<svg width="40" height="40" viewBox="0 0 40 40" fill="none" xmlns="http://www.w3.org/2000/svg">
<path d="M36.8319 27.2463H29.067C27.4957 27.2463 26.2158 28.5203 26.2158 30.0907V36.9509C26.2158 37.4267 26.4001 37.877 26.743 38.2197C27.0859 38.5574 27.5312 38.7416 28.0073 38.7416C28.4169 38.7416 28.7903 38.6085 29.0925 38.3784V39.642C29.0925 39.8363 29.2511 40 29.4507 40H36.4427C36.6371 40 36.8009 39.8415 36.8009 39.642V38.3784C37.1032 38.6083 37.4819 38.7413 37.8863 38.7413C38.3623 38.7413 38.8129 38.5572 39.1558 38.2145C39.4937 37.8718 39.678 37.4215 39.678 36.9509V30.0907C39.678 28.52 38.4033 27.2463 36.8319 27.2463H36.8319ZM34.5283 27.9574L32.9466 30.0957L31.37 27.9574H34.5283ZM29.8088 36.9459V32.8328C29.8088 32.6384 29.6502 32.4748 29.4506 32.4748C29.2562 32.4748 29.0924 32.6333 29.0924 32.8328V36.9511V36.9563C29.0924 37.5498 28.606 38.0305 28.0073 38.0305C27.7207 38.0305 27.4492 37.9179 27.2447 37.7184C27.0399 37.5137 26.9272 37.2426 26.9272 36.9562L26.927 30.0906C26.927 28.9139 27.8842 27.9573 29.0616 27.9573H30.4743L32.5832 30.8118V39.2836H29.7987V36.951C29.8089 36.951 29.8089 36.9458 29.8089 36.9458L29.8088 36.9459ZM38.9666 36.9511C38.9666 37.2375 38.854 37.5088 38.6544 37.7133C38.4496 37.9179 38.1783 38.0305 37.8918 38.0305C37.293 38.0305 36.8066 37.5496 36.8066 36.9511V32.8328C36.8066 32.6385 36.648 32.4748 36.4484 32.4748C36.2488 32.4748 36.0902 32.6333 36.0902 32.8328V39.2842H33.3057L33.3052 30.8124L35.4141 27.9578H36.8269C38.0042 27.9578 38.9615 28.9145 38.9615 30.0912V36.9514L38.9666 36.9511Z" fill="black"/>
<path d="M29.4365 23.6069C29.4365 25.5418 31.0121 27.1174 32.947 27.1174C34.8819 27.1174 36.4575 25.5418 36.4575 23.6069C36.4575 21.672 34.8819 20.0964 32.947 20.0964C31.0123 20.0964 29.4365 21.672 29.4365 23.6069ZM35.7443 23.6069C35.7443 25.1465 34.492 26.404 32.9472 26.404C31.4023 26.404 30.1501 25.1517 30.1501 23.6069C30.1501 22.0673 31.4023 20.8098 32.9472 20.8098C34.492 20.8098 35.7443 22.0673 35.7443 23.6069Z" fill="black"/>
<path d="M32.2298 6.78436V11.8418L31.217 10.8289C31.0204 10.6323 30.6997 10.6323 30.4957 10.8289C30.2991 11.0255 30.2991 11.3462 30.4957 11.5502L32.3754 13.4303C32.4774 13.5323 32.6012 13.5759 32.7324 13.5759C32.8635 13.5759 32.9947 13.5249 33.0893 13.4303L34.9694 11.5502C35.166 11.3536 35.166 11.0329 34.9694 10.8289C34.7728 10.6323 34.4521 10.6323 34.2481 10.8289L33.2353 11.8418V6.78436C33.2353 4.41622 31.3117 2.49219 28.9431 2.49219H22.9967C22.72 2.49219 22.4868 2.71797 22.4868 3.00212C22.4868 3.28627 22.7126 3.51205 22.9967 3.51205H28.9431C30.7651 3.51238 32.2298 4.97713 32.2298 6.78436Z" fill="black"/>
<path d="M20.184 36.5452H14.2306C12.4234 36.5452 10.9513 35.0731 10.9513 33.2659V28.2085L11.9718 29.229C12.1684 29.4256 12.4891 29.4256 12.6931 29.229C12.8897 29.0324 12.8897 28.7117 12.6931 28.5077L10.813 26.6277C10.6164 26.4311 10.2957 26.4311 10.0988 26.6277L8.21874 28.5077C8.02214 28.7043 8.02214 29.025 8.21874 29.229C8.32072 29.331 8.44451 29.3746 8.57568 29.3746C8.70685 29.3746 8.83803 29.3236 8.93263 29.229L9.94545 28.2162V33.2736C9.94545 35.6417 11.8691 37.5658 14.2376 37.5658H20.184C20.4608 37.5658 20.6939 37.34 20.6939 37.0558C20.6943 36.771 20.4611 36.5452 20.184 36.5452Z" fill="black"/>
<path d="M15.3727 3.13201H12.4234V1.87924C12.4234 1.25274 11.9156 0.745355 11.2893 0.745355C11.2244 0.745355 11.1649 0.766984 11.111 0.793834C10.9705 0.334902 10.5492 0 10.0469 0H7.14091C6.63859 0 6.21732 0.334877 6.0823 0.793834C6.02834 0.761515 5.96891 0.739886 5.904 0.739886C5.27734 0.739886 4.76982 1.24755 4.76982 1.87377V3.12654H1.82578C0.821156 3.12654 0 3.94195 0 4.94639V9.61208C0 9.81719 0.167357 9.98997 0.377984 9.98997H0.518482V14.2777C0.518482 15.2821 1.33958 16.1031 2.34426 16.1031H14.8593C15.8639 16.1031 16.6796 15.2822 16.6796 14.2777V9.98997H16.8201C17.0252 9.98997 17.1981 9.82265 17.1981 9.61208V4.95186C17.1928 3.94749 16.3772 3.13202 15.3725 3.13202L15.3727 3.13201ZM7.14077 0.761266H10.0467C10.2467 0.761266 10.4086 0.923362 10.4086 1.12299V1.12846C10.4086 1.32834 10.2464 1.49019 10.0467 1.49019H7.14077C6.94084 1.49019 6.77895 1.3281 6.77895 1.123C6.7787 0.923364 6.94084 0.761266 7.14077 0.761266ZM5.52016 1.87924C5.52016 1.66867 5.69299 1.50135 5.89815 1.50135C5.96305 1.50135 6.02248 1.47972 6.07645 1.4474C6.21695 1.90112 6.6382 2.23577 7.13506 2.23577H10.041C10.5434 2.23577 10.9646 1.90089 11.0996 1.4474C11.1536 1.47972 11.213 1.50135 11.2779 1.50135C11.4886 1.50135 11.6559 1.67413 11.6559 1.87924V3.13201H5.52014L5.52016 1.87924ZM0.750595 4.95179C0.750595 4.36308 1.23128 3.88251 1.82563 3.88251H15.3726C15.9614 3.88251 16.4421 4.36307 16.4421 4.95179V9.24479H13.32V8.92085C13.32 8.46192 12.9421 8.0838 12.4773 8.0838H11.6184C11.1539 8.0838 10.7757 8.45647 10.7757 8.92085V9.24479H6.17892V8.92085C6.17892 8.46192 5.80094 8.0838 5.33619 8.0838H4.47779C4.01326 8.0838 3.63505 8.45647 3.63505 8.92085V9.24479H0.750658L0.750595 4.95179ZM11.5264 8.91536C11.5264 8.8721 11.5642 8.83432 11.6129 8.83432H12.4719C12.5203 8.83432 12.5584 8.87211 12.5584 8.91536V10.4274C12.5584 10.4707 12.5206 10.5085 12.4719 10.5085H11.6129C11.5645 10.5085 11.5264 10.4707 11.5264 10.4274V8.91536ZM4.3907 8.91536C4.3907 8.8721 4.4285 8.83432 4.47724 8.83432H5.33615C5.38464 8.83432 5.42269 8.87211 5.42269 8.91536V10.4274C5.42269 10.4759 5.38489 10.5085 5.33615 10.5085H4.47724C4.42875 10.5085 4.3907 10.4707 4.3907 10.4274V8.91536ZM15.9228 14.2779C15.9228 14.8666 15.4421 15.3527 14.8532 15.3527L2.33822 15.3524C1.74414 15.3524 1.26319 14.8718 1.26319 14.2776V9.98987H3.63454V10.422C3.63454 10.8809 4.01252 11.259 4.47728 11.259H5.33619C5.80071 11.259 6.17892 10.8863 6.17892 10.422V9.98987H10.7757V10.422C10.7757 10.8809 11.1536 11.259 11.6184 11.259H12.4773C12.9418 11.259 13.32 10.8863 13.32 10.422V9.98987H15.9288L15.9283 14.2779L15.9228 14.2779Z" fill="black"/>
</svg>
