<svg width="310" height="377" viewBox="0 0 310 377" fill="none" xmlns="http://www.w3.org/2000/svg">
<path d="M-12.844 260.489L25.0647 268.667L36.9367 305.586L10.9 334.327L-27.0087 326.149L-38.8807 289.23L-12.844 260.489Z" stroke="#DADADA" stroke-width="2"/>
<path d="M-10.0702 268.456L19.6125 274.859L28.9083 303.767L8.52146 326.271L-21.1612 319.868L-30.4571 290.96L-10.0702 268.456Z" stroke="#DADADA" stroke-width="2"/>
<path d="M17.8535 339.926L34.4567 321.598L58.6303 326.813L66.2009 350.356L49.5977 368.683L25.4241 363.468L17.8535 339.926Z" stroke="#DADADA" stroke-width="2"/>
<path d="M-18.9269 353.124L-6.73692 339.668L11.0113 343.497L16.5696 360.782L4.37964 374.238L-13.3686 370.409L-18.9269 353.124Z" stroke="#DADADA" stroke-width="2"/>
<path d="M-13.3595 354.67L-4.95586 345.394L7.27958 348.033L11.1114 359.949L2.70777 369.226L-9.52767 366.586L-13.3595 354.67Z" fill="#DADADA" stroke="#DADADA" stroke-width="2"/>
<path d="M253.054 -57.5309L300.118 -30.3582L300.118 23.9871L253.054 51.1597L205.989 23.9871L205.989 -30.3582L253.054 -57.5309Z" stroke="#DADADA" stroke-width="2"/>
<path d="M259.114 60.8498L289.267 43.4408L319.42 60.8498L319.42 95.6678L289.267 113.077L259.114 95.6678L259.114 60.8498Z" stroke="#DADADA" stroke-width="2"/>
<path d="M204.838 62.6631L227.08 49.8217L249.322 62.6631L249.322 88.346L227.08 101.187L204.838 88.346L204.838 62.6631Z" stroke="#DADADA" stroke-width="2"/>
<path d="M211.546 67.0773L227 58.1547L242.454 67.0773L242.454 84.9226L227 93.8453L211.546 84.9226L211.546 67.0773Z" stroke="#DADADA" stroke-width="2"/>
</svg>
