<svg width="591" height="658" viewBox="0 0 591 658" fill="none" xmlns="http://www.w3.org/2000/svg">
<path d="M589.706 154.781C589.706 154.656 589.706 154.52 589.633 154.39C589.409 153.614 589.107 152.864 588.722 152.15C588.67 152.062 588.597 151.984 588.545 151.895C588.425 151.687 588.274 151.499 588.143 151.296L588.138 151.301C587.753 150.723 587.315 150.182 586.826 149.687C586.638 149.499 586.466 149.322 586.263 149.15H586.268C585.597 148.546 584.862 148.025 584.071 147.598H584.024L300.17 1.2383C296.946 -0.412767 293.123 -0.412767 289.9 1.2383L6.0729 147.572H6.0104C5.22914 147.999 4.4948 148.514 3.83333 149.113C3.64063 149.29 3.45833 149.473 3.27083 149.66V149.655C2.78646 150.155 2.34376 150.691 1.95833 151.269C1.82292 151.473 1.67708 151.66 1.55729 151.868C1.50521 151.957 1.43229 152.035 1.38021 152.124L1.375 152.118C0.994787 152.832 0.687502 153.582 0.463542 154.358C0.427083 154.483 0.416666 154.618 0.390625 154.749C0.192705 155.53 0.0781233 156.327 0.0520833 157.129C0.0520833 157.254 0 157.368 0 157.493V474.88C0 478.807 2.05734 482.448 5.42188 484.474L289.289 655.461C289.408 655.533 289.544 655.56 289.664 655.627H289.658C290.304 655.987 290.986 656.278 291.69 656.497C291.913 656.57 292.137 656.648 292.361 656.705V656.711C294.132 657.195 295.997 657.195 297.768 656.711C297.992 656.653 298.216 656.575 298.44 656.502V656.497C299.143 656.278 299.825 655.987 300.471 655.627C300.591 655.56 300.726 655.539 300.846 655.461L584.712 484.474H584.707C588.072 482.448 590.129 478.807 590.129 474.88V157.547C590.129 157.422 590.077 157.307 590.077 157.182V157.177C590.041 156.365 589.916 155.562 589.702 154.776L589.706 154.781ZM118.106 228.745L166.059 254.953V356.359L118.106 322.714V228.745ZM130.799 210.166L394.279 74.9793L442.273 99.7193L177.42 235.639L130.799 210.166ZM466.759 112.333L555.009 157.817L295.023 299.897L201.184 248.637L466.759 112.333ZM295.025 23.7966L369.812 62.354L107.079 197.181L35.0479 157.817L295.025 23.7966ZM306.223 626.037V369.077C306.223 362.894 301.213 357.879 295.025 357.879C288.838 357.879 283.827 362.894 283.827 369.077V626.05L22.3607 468.543V176.423L95.7101 216.543V328.543C95.7101 332.194 97.4913 335.616 100.476 337.71L170.825 387.074C174.247 389.475 178.721 389.772 182.429 387.845C186.137 385.918 188.466 382.084 188.466 377.907V267.199L289.663 322.506L289.658 322.501C293.007 324.329 297.048 324.329 300.397 322.501L567.704 176.421V468.541L306.223 626.037Z" fill="white"/>
</svg>
