<svg width="35" height="40" viewBox="0 0 35 40" fill="none" xmlns="http://www.w3.org/2000/svg">
<path d="M31.8552 26.9644H23.9244C22.3194 26.9644 21.0122 28.2665 21.0122 29.8717V36.8836C21.0122 37.3698 21.2004 37.8301 21.5506 38.1804C21.9009 38.5256 22.3557 38.7138 22.842 38.7138C23.2603 38.7138 23.6418 38.5778 23.9504 38.3426V39.6342C23.9504 39.8328 24.1123 40.0001 24.3162 40.0001H31.4577C31.6563 40.0001 31.8236 39.8381 31.8236 39.6342V38.3426C32.1324 38.5776 32.5192 38.7136 32.9322 38.7136C33.4184 38.7136 33.8786 38.5254 34.2288 38.1751C34.574 37.8248 34.7622 37.3646 34.7622 36.8836V29.8717C34.7622 28.2662 33.4603 26.9644 31.8553 26.9644H31.8552ZM29.5024 27.6911L27.8869 29.8767L26.2766 27.6911H29.5024ZM24.682 36.8785V32.6743C24.682 32.4757 24.5201 32.3084 24.3162 32.3084C24.1176 32.3084 23.9503 32.4704 23.9503 32.6743V36.8838V36.8891C23.9503 37.4957 23.4535 37.987 22.842 37.987C22.5493 37.987 22.272 37.8719 22.063 37.668C21.8539 37.4588 21.7388 37.1818 21.7388 36.889L21.7386 29.8716C21.7386 28.6688 22.7163 27.691 23.9188 27.691H25.3618L27.5158 30.6087V39.2679H24.6717V36.8836C24.6821 36.8836 24.6821 36.8783 24.6821 36.8783L24.682 36.8785ZM34.0356 36.8838C34.0356 37.1765 33.9206 37.4538 33.7167 37.6628C33.5076 37.872 33.2305 37.987 32.9378 37.987C32.3262 37.987 31.8294 37.4955 31.8294 36.8838V32.6744C31.8294 32.4758 31.6674 32.3085 31.4636 32.3085C31.2597 32.3085 31.0977 32.4705 31.0977 32.6744V39.2685H28.2537L28.2532 30.6093L30.4072 27.6916H31.8501C33.0527 27.6916 34.0304 28.6694 34.0304 29.8721V36.884L34.0356 36.8838Z" fill="black"/>
<path d="M10.89 7.32153H2.92479C1.31288 7.32153 0 8.62365 0 10.2288V17.2408C0 17.727 0.18904 18.1873 0.540767 18.5376C0.892494 18.8828 1.34935 19.071 1.83768 19.071C2.25782 19.071 2.64095 18.935 2.95086 18.6998V19.9913C2.95086 20.1899 3.11355 20.3572 3.3183 20.3572H10.4907C10.6902 20.3572 10.8582 20.1952 10.8582 19.9913V18.6998C11.1683 18.9348 11.5568 19.0708 11.9716 19.0708C12.4599 19.0708 12.9221 18.8825 13.2738 18.5323C13.6205 18.182 13.8095 17.7218 13.8095 17.2408V10.2288C13.8095 8.6234 12.502 7.32153 10.8901 7.32153H10.89ZM8.52696 8.0483L6.9044 10.2339L5.28717 8.0483H8.52696ZM3.68572 17.2356V13.0315C3.68572 12.8329 3.52304 12.6656 3.31828 12.6656C3.11885 12.6656 2.95084 12.8276 2.95084 13.0315V17.2409V17.2462C2.95084 17.8529 2.4519 18.3442 1.83766 18.3442C1.54371 18.3442 1.26523 18.2291 1.05538 18.0252C0.845314 17.816 0.729762 17.5389 0.729762 17.2462L0.72952 10.2287C0.72952 9.02602 1.71144 8.04818 2.91918 8.04818H4.3684L6.5317 10.9658V19.625H3.67535V17.2408C3.68575 17.2408 3.68575 17.2355 3.68575 17.2355L3.68572 17.2356ZM13.0798 17.2409C13.0798 17.5337 12.9643 17.811 12.7595 18.02C12.5494 18.2292 12.2712 18.3442 11.9772 18.3442C11.363 18.3442 10.864 17.8526 10.864 17.241V13.0316C10.864 12.8329 10.7014 12.6656 10.4966 12.6656C10.2919 12.6656 10.1292 12.8277 10.1292 13.0316V19.6256H7.27282L7.27233 10.9664L9.43563 8.04877H10.8848C12.0926 8.04877 13.0745 9.0266 13.0745 10.2293V17.2412L13.0798 17.2409Z" fill="black"/>
<path d="M24.2861 23.2145C24.2861 25.183 25.889 26.7859 27.8576 26.7859C29.8261 26.7859 31.429 25.183 31.429 23.2145C31.429 21.246 29.8261 19.6431 27.8576 19.6431C25.8893 19.6431 24.2861 21.246 24.2861 23.2145ZM30.7034 23.2145C30.7034 24.7809 29.4294 26.0602 27.8577 26.0602C26.2861 26.0602 25.0121 24.7861 25.0121 23.2145C25.0121 21.6481 26.2861 20.3688 27.8577 20.3688C29.4294 20.3688 30.7034 21.6481 30.7034 23.2145Z" fill="black"/>
<path d="M3.33301 3.57143C3.33301 5.53994 4.93592 7.14286 6.90444 7.14286C8.87295 7.14286 10.4759 5.53994 10.4759 3.57143C10.4759 1.60291 8.87295 0 6.90444 0C4.93617 0 3.33301 1.60291 3.33301 3.57143ZM9.75032 3.57143C9.75032 5.13778 8.47627 6.41712 6.90462 6.41712C5.33297 6.41712 4.05893 5.14308 4.05893 3.57143C4.05893 2.00507 5.33297 0.725732 6.90462 0.725732C8.47627 0.725732 9.75032 2.00507 9.75032 3.57143Z" fill="black"/>
<path d="M26.9269 9.00769V13.6813L25.991 12.7453C25.8093 12.5636 25.5129 12.5636 25.3244 12.7453C25.1427 12.927 25.1427 13.2234 25.3244 13.4118L27.0615 15.1492C27.1557 15.2435 27.2701 15.2838 27.3913 15.2838C27.5125 15.2838 27.6338 15.2367 27.7212 15.1492L29.4586 13.4118C29.6402 13.2302 29.6402 12.9338 29.4586 12.7453C29.2769 12.5636 28.9805 12.5636 28.792 12.7453L27.8561 13.6813V9.00769C27.8561 6.81928 26.0785 5.04126 23.8896 5.04126H18.3946C18.1388 5.04126 17.9233 5.2499 17.9233 5.51249C17.9233 5.77508 18.132 5.98372 18.3946 5.98372H23.8896C25.5734 5.98403 26.9269 7.33761 26.9269 9.00769Z" fill="black"/>
<path d="M15.795 36.5096H10.2935C8.62337 36.5096 7.26298 35.1492 7.26298 33.4791V28.8056L8.20607 29.7487C8.38775 29.9303 8.68412 29.9303 8.87261 29.7487C9.05429 29.567 9.05429 29.2706 8.87261 29.0821L7.13523 27.3448C6.95356 27.1631 6.65718 27.1631 6.4752 27.3448L4.73782 29.0821C4.55614 29.2638 4.55614 29.5602 4.73782 29.7487C4.83206 29.8429 4.94646 29.8832 5.06767 29.8832C5.18889 29.8832 5.31011 29.8361 5.39753 29.7487L6.33348 28.8127V33.4863C6.33348 35.6747 8.1111 37.4527 10.2999 37.4527H15.795C16.0508 37.4527 16.2662 37.2441 16.2662 36.9815C16.2665 36.7183 16.0511 36.5096 15.795 36.5096Z" fill="black"/>
</svg>
