<svg width="256" height="58" viewBox="0 0 256 58" fill="none" xmlns="http://www.w3.org/2000/svg">
<path d="M14.9122 49.5348L26.8187 22.992L39.3712 22.6633C41.5296 22.6068 43.2437 22.9462 44.5137 23.6814C45.7836 24.4166 46.5524 25.4766 46.8199 26.8615C47.0875 28.2463 46.7988 29.8804 45.9539 31.764C45.1012 33.6649 43.899 35.323 42.3473 36.7383C40.805 38.1534 39.0322 39.2587 37.0289 40.054C35.0351 40.8491 32.9306 41.2756 30.7155 41.3336L23.218 41.5299L25.7296 35.9311L31.6366 35.7764C32.5644 35.7521 33.4207 35.5845 34.2057 35.2737C35.004 34.9539 35.7023 34.513 36.3006 33.9508C36.9084 33.3884 37.3808 32.7314 37.718 31.9797C38.0591 31.2193 38.1699 30.576 38.0505 30.0498C37.9444 29.5146 37.624 29.1131 37.0893 28.8453C36.5679 28.5687 35.8433 28.4425 34.9156 28.4668L32.1324 28.5397L22.8072 49.328L14.9122 49.5348ZM41.2668 48.8446L50.1967 28.9376L57.8077 28.7383L56.1101 32.5227L56.3373 32.5168C57.3628 31.1066 58.4516 30.0663 59.6037 29.3957C60.7653 28.7249 61.9283 28.3742 63.0927 28.3437C63.4335 28.3348 63.7579 28.3519 64.066 28.3951C64.3874 28.4294 64.6849 28.4856 64.9585 28.5638L62.2203 34.6682C61.8864 34.5574 61.4491 34.4792 60.9082 34.4335C60.3673 34.3879 59.8934 34.3705 59.4863 34.3811C58.7195 34.4012 57.9568 34.5791 57.1981 34.9149C56.4527 35.2419 55.777 35.695 55.1709 36.2744C54.5687 36.8452 54.0971 37.5108 53.756 38.2711L49.105 48.6394L41.2668 48.8446ZM67.7 48.5111C65.3334 48.5731 63.4994 48.1984 62.1981 47.3872C60.9007 46.5673 60.1472 45.4001 59.9378 43.8857C59.7323 42.3626 60.0869 40.5816 61.0016 38.5425C61.9162 36.5034 63.1682 34.7031 64.7574 33.1416C66.3505 31.5715 68.1814 30.3366 70.2501 29.4371C72.3227 28.529 74.5424 28.0439 76.909 27.9819C79.2756 27.92 81.1076 28.2989 82.4051 29.1188C83.7064 29.9301 84.4598 31.0972 84.6654 32.6203C84.8748 34.1347 84.5221 35.9114 83.6074 37.9505C82.6927 39.9896 81.4389 41.7942 79.8458 43.3644C78.2566 44.9259 76.4257 46.1607 74.353 47.0689C72.2843 47.9684 70.0666 48.4491 67.7 48.5111ZM70.1288 43.2218C70.7915 43.2044 71.4553 42.9864 72.1202 42.5677C72.7852 42.1489 73.4188 41.5602 74.021 40.8016C74.6233 40.043 75.157 39.1452 75.6221 38.1084C76.091 37.0629 76.3597 36.1722 76.4279 35.436C76.5001 34.6913 76.3858 34.1222 76.0852 33.7287C75.7846 33.3353 75.3029 33.1472 74.6403 33.1646C73.9398 33.1829 73.2476 33.4017 72.5637 33.8209C71.8798 34.2402 71.2367 34.8291 70.6345 35.5877C70.0361 36.3377 69.5024 37.2355 69.0334 38.2809C68.5683 39.3178 68.2997 40.2086 68.2276 40.9533C68.1554 41.6981 68.2792 42.2669 68.5987 42.6599C68.9183 43.0528 69.4283 43.2401 70.1288 43.2218ZM90.1252 47.8214C88.5727 47.862 87.31 47.5279 86.3369 46.8191C85.3733 46.11 84.8378 45.0097 84.7304 43.5183C84.6324 42.0266 85.0989 40.1315 86.1298 37.8333C87.2073 35.4313 88.4903 33.4679 89.9788 31.9432C91.4768 30.4183 93.0312 29.2889 94.642 28.555C96.2623 27.821 97.792 27.4351 99.2309 27.3974C100.31 27.3692 101.179 27.5172 101.838 27.8415C102.501 28.1571 102.979 28.5929 103.273 29.1488C103.57 29.696 103.709 30.3029 103.691 30.9694L103.804 30.9664L108.339 20.8573L116.177 20.6521L104.271 47.1948L96.4894 47.3986L97.9544 44.1326L97.784 44.137C97.1788 44.8189 96.472 45.4351 95.6637 45.9857C94.8688 46.5274 93.9992 46.9643 93.055 47.2964C92.1242 47.6196 91.1476 47.7946 90.1252 47.8214ZM95.487 42.2504C96.2064 42.2315 96.907 42.0253 97.5887 41.6318C98.2838 41.2293 98.9256 40.6746 99.514 39.9675C100.116 39.2516 100.634 38.4098 101.068 37.4421C101.51 36.4571 101.746 35.6184 101.776 34.926C101.819 34.2247 101.664 33.6951 101.31 33.3372C100.969 32.9704 100.439 32.7964 99.7194 32.8153C98.9999 32.8341 98.2993 33.0403 97.6176 33.4338C96.9492 33.8185 96.3189 34.3687 95.7265 35.0844C95.1475 35.7912 94.6371 36.6371 94.1953 37.6221C93.7534 38.607 93.5061 39.4503 93.4534 40.1519C93.4139 40.8445 93.5598 41.3744 93.891 41.7414C94.2355 42.0996 94.7675 42.2692 95.487 42.2504ZM126.169 38.0144L131.192 26.8167L139.03 26.6114L130.1 46.5185L122.659 46.7133L124.357 42.9289L124.13 42.9348C123.087 44.2173 121.813 45.2327 120.308 45.9808C118.807 46.7203 117.242 47.1113 115.614 47.154C114.09 47.1939 112.898 46.9091 112.04 46.2997C111.19 45.6901 110.701 44.832 110.57 43.7254C110.449 42.6185 110.71 41.3394 111.351 39.8881L117.049 27.187L124.887 26.9818L119.864 38.1795C119.432 39.1642 119.359 39.9303 119.647 40.4778C119.944 41.025 120.585 41.2858 121.569 41.26C122.223 41.2429 122.842 41.1028 123.428 40.8399C124.027 40.568 124.559 40.1955 125.024 39.7222C125.502 39.2401 125.883 38.6708 126.169 38.0144ZM144.432 46.5018C142.065 46.5638 140.231 46.1891 138.93 45.3779C137.632 44.558 136.879 43.3908 136.669 41.8764C136.464 40.3534 136.818 38.5723 137.733 36.5332C138.648 34.4941 139.9 32.6938 141.489 31.1323C143.082 29.5622 144.913 28.3273 146.982 27.4278C149.054 26.5197 151.274 26.0346 153.64 25.9727C155.78 25.9166 157.472 26.2224 158.716 26.89C159.973 27.5487 160.744 28.5105 161.028 29.7753C161.316 31.0315 161.077 32.5235 160.311 34.2513L153.041 34.4417C153.406 33.399 153.431 32.6127 153.117 32.083C152.816 31.5444 152.23 31.2865 151.359 31.3093C150.677 31.3272 149.999 31.5242 149.325 31.9005C148.655 32.2682 148.016 32.8186 147.406 33.5518C146.8 34.2764 146.253 35.183 145.765 36.2717C145.277 37.3603 145.012 38.2638 144.97 38.9822C144.932 39.6919 145.088 40.2215 145.436 40.571C145.788 40.9118 146.305 41.0733 146.987 41.0555C147.564 41.0404 148.13 40.906 148.683 40.6524C149.241 40.3902 149.763 40.0179 150.251 39.5355C150.752 39.0442 151.186 38.4522 151.553 37.7595L158.823 37.5692C158.008 39.3239 156.881 40.8647 155.444 42.1917C154.011 43.51 152.354 44.5439 150.475 45.2933C148.604 46.0424 146.59 46.4453 144.432 46.5018ZM166.729 25.0664L169.334 19.2601L194.609 18.5983L192.005 24.4045L183.258 24.6336L173.956 45.3701L166.174 45.5738L175.476 24.8373L166.729 25.0664ZM185.674 45.0632L197.58 18.5205L210.133 18.1918C212.291 18.1353 214.019 18.4444 215.316 19.1191C216.613 19.7939 217.409 20.7934 217.704 22.1177C217.998 23.4421 217.723 25.046 216.878 26.9296C216.026 28.8304 214.843 30.4453 213.33 31.7743C211.826 33.103 210.092 34.1218 208.128 34.8307C206.173 35.5394 204.088 35.9228 201.873 35.9808L194.375 36.1771L196.887 30.5782L202.794 30.4236C203.721 30.3993 204.558 30.2749 205.305 30.0504C206.064 29.8171 206.724 29.4625 207.283 28.9868C207.852 28.5108 208.305 27.8969 208.643 27.1452C208.984 26.3849 209.081 25.7718 208.934 25.306C208.801 24.8314 208.454 24.4904 207.892 24.2831C207.343 24.0669 206.605 23.9709 205.677 23.9952L202.894 24.0681L193.569 44.8565L185.674 45.0632ZM208.178 32.4343L209.984 44.4266L201.407 44.6512L199.772 32.6544L208.178 32.4343ZM221.731 17.8881L230.534 17.6575L231.377 28.2918L231.604 28.2858L242.121 17.3541L250.925 17.1236L232.084 35.5995L228.34 43.9459L220.502 44.1512L224.246 35.8047L221.731 17.8881Z" fill="black"/>
<path d="M14.9122 49.5348L9.91393 49.6656L7.8675 54.2277L12.8658 54.0968L14.9122 49.5348ZM26.8187 22.992L28.8652 18.43L23.8669 18.5609L21.8204 23.1229L26.8187 22.992ZM44.5137 23.6814L40.3748 27.7794L40.3748 27.7794L44.5137 23.6814ZM46.8199 26.8615L52.1688 24.4512L52.1688 24.4512L46.8199 26.8615ZM42.3473 36.7383L39.1418 34.4781L39.1319 34.4871L39.122 34.4962L42.3473 36.7383ZM37.0289 40.054L36.6486 36.0223L36.6363 36.0272L37.0289 40.054ZM23.218 41.5299L18.2198 41.6608L16.1733 46.2229L21.1716 46.092L23.218 41.5299ZM25.7296 35.9311L27.776 31.3691L22.7777 31.4999L20.7313 36.062L25.7296 35.9311ZM34.2057 35.2737L34.5793 39.308L34.5949 39.3018L34.6106 39.2955L34.2057 35.2737ZM36.3006 33.9508L33.0476 31.7343L33.0225 31.7575L32.9976 31.7808L36.3006 33.9508ZM38.0505 30.0498L32.7042 32.4729L32.7114 32.5093L32.7196 32.5453L38.0505 30.0498ZM37.0893 28.8453L33.0443 32.9954L33.0753 33.0118L33.1068 33.0276L37.0893 28.8453ZM32.1324 28.5397L34.1789 23.9776L29.1806 24.1085L27.1342 28.6706L32.1324 28.5397ZM22.8072 49.328L20.7608 53.89L25.7591 53.7592L27.8055 49.1971L22.8072 49.328ZM19.9105 49.4039L31.817 22.8611L21.8204 23.1229L9.91393 49.6656L19.9105 49.4039ZM24.7723 27.5541L37.3248 27.2254L41.4177 18.1013L28.8652 18.43L24.7723 27.5541ZM37.3248 27.2254C38.8177 27.1863 39.7611 27.4241 40.3748 27.7794L48.6525 19.5834C46.7263 18.4682 44.2415 18.0274 41.4177 18.1013L37.3248 27.2254ZM40.3748 27.7794C41.011 28.1477 41.3474 28.6316 41.4711 29.2717L52.1688 24.4512C51.7573 22.3216 50.5562 20.6855 48.6525 19.5834L40.3748 27.7794ZM41.4711 29.2717C41.5867 29.8703 41.4955 30.6913 40.9556 31.8949L50.9521 31.6331C52.1021 29.0696 52.5882 26.6222 52.1688 24.4512L41.4711 29.2717ZM40.9556 31.8949C40.4145 33.101 39.771 33.9041 39.1418 34.4781L45.5528 38.9985C48.0269 36.7418 49.7878 34.2287 50.9521 31.6331L40.9556 31.8949ZM39.122 34.4962C38.4457 35.1168 37.6704 35.6166 36.6486 36.0223L37.4093 44.0857C40.394 42.9007 43.1643 41.1901 45.5725 38.9805L39.122 34.4962ZM36.6363 36.0272C35.6232 36.4312 34.3558 36.7299 32.7619 36.7716L28.669 45.8957C31.5054 45.8214 34.447 45.2669 37.4215 44.0808L36.6363 36.0272ZM32.7619 36.7716L25.2645 36.9679L21.1716 46.092L28.669 45.8957L32.7619 36.7716ZM28.2163 41.3991L30.7279 35.8002L20.7313 36.062L18.2198 41.6608L28.2163 41.3991ZM23.6831 40.4931L29.5902 40.3384L33.6831 31.2144L27.776 31.3691L23.6831 40.4931ZM29.5902 40.3384C31.0805 40.2994 32.7739 40.023 34.5793 39.308L33.8321 31.2393C33.9484 31.1932 34.0042 31.1841 33.9828 31.1883C33.9584 31.1931 33.8608 31.2097 33.6831 31.2144L29.5902 40.3384ZM34.6106 39.2955C36.3979 38.5796 38.1187 37.5158 39.6035 36.1208L32.9976 31.7808C33.1205 31.6654 33.2707 31.5476 33.4357 31.4434C33.5983 31.3407 33.7285 31.2807 33.8007 31.2518L34.6106 39.2955ZM39.5536 36.1674C41.0585 34.7749 42.0742 33.2802 42.7163 31.8488L32.7198 32.1106C32.7001 32.1543 32.7069 32.1279 32.763 32.0498C32.822 31.9678 32.9162 31.8558 33.0476 31.7343L39.5536 36.1674ZM42.7163 31.8488C43.3552 30.4245 43.6915 28.9205 43.3814 27.5542L32.7196 32.5453C32.6865 32.3995 32.6933 32.2666 32.7092 32.1741C32.7243 32.0865 32.7436 32.0575 32.7198 32.1106L42.7163 31.8488ZM43.3968 27.6266C43.1271 26.2658 42.2948 25.2755 41.0717 24.6631L33.1068 33.0276C33.0471 32.9977 32.9546 32.937 32.8695 32.8303C32.7832 32.7222 32.7288 32.5972 32.7042 32.4729L43.3968 27.6266ZM41.1342 24.6953C39.935 24.059 38.4523 23.8657 36.962 23.9048L32.8692 33.0288C33.0468 33.0242 33.1317 33.0361 33.1523 33.0396C33.1704 33.0428 33.1216 33.0364 33.0443 32.9954L41.1342 24.6953ZM36.962 23.9048L34.1789 23.9776L30.086 33.1017L32.8692 33.0288L36.962 23.9048ZM27.1342 28.6706L17.8089 49.4589L27.8055 49.1971L37.1307 28.4088L27.1342 28.6706ZM24.8537 44.766L16.9586 44.9727L12.8658 54.0968L20.7608 53.89L24.8537 44.766ZM41.2668 48.8446L36.2685 48.9755L34.2221 53.5375L39.2204 53.4067L41.2668 48.8446ZM50.1967 28.9376L52.2431 24.3756L47.2448 24.5064L45.1984 29.0685L50.1967 28.9376ZM57.8077 28.7383L62.806 28.6074L64.8524 24.0454L59.8542 24.1763L57.8077 28.7383ZM56.1101 32.5227L51.1118 32.6536L49.0654 37.2156L54.0637 37.0847L56.1101 32.5227ZM56.3373 32.5168L54.2909 37.0788L58.1586 36.9775L60.6621 33.535L56.3373 32.5168ZM59.6037 29.3957L58.0317 25.9425L58.0178 25.9505L58.004 25.9585L59.6037 29.3957ZM64.066 28.3951L61.2044 32.9137L61.2772 32.9239L61.3514 32.9318L64.066 28.3951ZM64.9585 28.5638L69.9568 28.433L71.475 25.0485L68.3666 24.1599L64.9585 28.5638ZM62.2203 34.6682L58.6685 39.0277L64.3573 40.9157L67.2186 34.5373L62.2203 34.6682ZM60.9082 34.4335L63.5201 29.8871L63.52 29.8871L60.9082 34.4335ZM57.1981 34.9149L57.8649 38.8269L57.8786 38.8209L57.8922 38.8149L57.1981 34.9149ZM55.1709 36.2744L58.5024 38.4175L58.5163 38.4044L58.5301 38.3911L55.1709 36.2744ZM49.105 48.6394L47.0586 53.2014L52.0569 53.0705L54.1033 48.5085L49.105 48.6394ZM46.2651 48.7137L55.195 28.8067L45.1984 29.0685L36.2685 48.9755L46.2651 48.7137ZM48.1503 33.4996L55.7613 33.3003L59.8542 24.1763L52.2431 24.3756L48.1503 33.4996ZM52.8094 28.8692L51.1118 32.6536L61.1084 32.3918L62.806 28.6074L52.8094 28.8692ZM54.0637 37.0847L54.2909 37.0788L58.3837 27.9547L58.1565 27.9607L54.0637 37.0847ZM60.6621 33.535C60.958 33.128 61.1724 32.9005 61.2804 32.7974C61.38 32.7021 61.355 32.7447 61.2034 32.8329L58.004 25.9585C55.3924 27.4785 53.4439 29.5303 52.0126 31.4986L60.6621 33.535ZM61.1758 32.849C61.183 32.8448 61.1728 32.8511 61.1478 32.8621C61.1223 32.8733 61.0922 32.8846 61.0612 32.894C61.0304 32.9033 61.0097 32.9073 61.0024 32.9084C60.9957 32.9095 61.0098 32.9067 61.0462 32.9058L65.1391 23.7817C62.8692 23.8411 60.4288 24.5581 58.0317 25.9425L61.1758 32.849ZM61.0462 32.9058C61.1079 32.9042 61.1593 32.9073 61.2044 32.9137L66.9275 23.8765C66.3565 23.7965 65.759 23.7655 65.1391 23.7817L61.0462 32.9058ZM61.3514 32.9318C61.4426 32.9415 61.5066 32.9552 61.5505 32.9678L68.3666 24.1599C67.8632 24.016 67.3322 23.9173 66.7805 23.8584L61.3514 32.9318ZM59.9603 28.6947L57.222 34.799L67.2186 34.5373L69.9568 28.433L59.9603 28.6947ZM65.7721 30.3086C65.0611 30.0726 64.276 29.9508 63.5201 29.8871L58.2963 38.98C58.4497 38.9929 58.5549 39.0078 58.6208 39.0196C58.688 39.0316 58.6979 39.0375 58.6685 39.0277L65.7721 30.3086ZM63.52 29.8871C62.8631 29.8317 62.1932 29.8018 61.5328 29.8191L57.4399 38.9432C57.5936 38.9391 57.8716 38.9442 58.2964 38.98L63.52 29.8871ZM61.5328 29.8191C59.9731 29.8599 58.2681 30.2342 56.5039 31.015L57.8922 38.8149C57.7867 38.8616 57.6794 38.8973 57.5833 38.9197C57.4896 38.9416 57.4395 38.9432 57.4399 38.9432L61.5328 29.8191ZM56.5312 31.003C54.7706 31.7751 53.1696 32.8596 51.8117 34.1578L58.5301 38.3911C58.4732 38.4455 58.3771 38.5277 58.244 38.6169C58.11 38.7068 57.978 38.7773 57.8649 38.8269L56.5312 31.003ZM51.8394 34.1314C50.3791 35.5156 49.3907 36.9909 48.7577 38.402L58.7543 38.1402C58.7816 38.0795 58.7849 38.0873 58.7428 38.1468C58.6981 38.2099 58.6193 38.3067 58.5024 38.4175L51.8394 34.1314ZM48.7577 38.402L44.1067 48.7703L54.1033 48.5085L58.7543 38.1402L48.7577 38.402ZM51.1515 44.0774L43.3132 44.2826L39.2204 53.4067L47.0586 53.2014L51.1515 44.0774ZM62.1981 47.3872L57.9658 51.4286L57.973 51.4331L57.9802 51.4376L62.1981 47.3872ZM59.9378 43.8857L54.5634 46.14L54.5647 46.1492L59.9378 43.8857ZM64.7574 33.1416L68.2034 35.1741L68.2131 35.1646L64.7574 33.1416ZM70.2501 29.4371L70.8912 33.3604L70.9026 33.3554L70.9141 33.3504L70.2501 29.4371ZM82.4051 29.1188L78.1728 33.1603L78.1799 33.1648L78.1872 33.1693L82.4051 29.1188ZM84.6654 32.6203L79.291 34.8746L79.2922 34.8838L84.6654 32.6203ZM79.8458 43.3644L83.2918 45.3969L83.3014 45.3874L79.8458 43.3644ZM74.353 47.0689L74.9941 50.9921L75.0056 50.9871L75.017 50.9821L74.353 47.0689ZM72.1202 42.5677L74.0026 45.8337L74.0026 45.8337L72.1202 42.5677ZM74.021 40.8016L78.152 42.0747L78.152 42.0747L74.021 40.8016ZM76.4279 35.436L71.043 36.9583L71.0423 36.9656L71.0417 36.9728L76.4279 35.436ZM76.0852 33.7287L80.9773 30.2853L80.9773 30.2853L76.0852 33.7287ZM70.6345 35.5877L74.7536 36.8756L74.7596 36.8682L74.7654 36.8608L70.6345 35.5877ZM68.2276 40.9533L73.6125 39.4311L73.6125 39.4311L68.2276 40.9533ZM69.7465 43.9491C68.0385 43.9938 67.0268 43.7174 66.416 43.3367L57.9802 51.4376C59.9721 52.6794 62.6283 53.1523 65.6536 53.0731L69.7465 43.9491ZM66.4304 43.3457C65.7653 42.9254 65.4145 42.3708 65.3109 41.6222L54.5647 46.1492C54.88 48.4294 56.0361 50.2091 57.9658 51.4286L66.4304 43.3457ZM65.3122 41.6314C65.2076 40.8563 65.3644 39.8281 65.9998 38.4116L56.0033 38.6734C54.8093 41.335 54.257 43.869 54.5634 46.14L65.3122 41.6314ZM65.9998 38.4116C66.6356 36.9943 67.4047 35.959 68.2034 35.1741L61.3114 31.1091C58.9317 33.4473 57.1969 36.0125 56.0033 38.6734L65.9998 38.4116ZM68.2131 35.1646C69.0003 34.3887 69.8524 33.8121 70.8912 33.3604L69.6091 25.5139C66.5104 26.8612 63.7007 28.7542 61.3017 31.1186L68.2131 35.1646ZM70.9141 33.3504C71.882 32.9263 73.1624 32.5885 74.8625 32.544L78.9554 23.4199C75.9223 23.4993 72.7635 24.1317 69.5861 25.5239L70.9141 33.3504ZM74.8625 32.544C76.5627 32.4995 77.5669 32.7774 78.1728 33.1603L86.6373 25.0774C84.6484 23.8205 81.9885 23.3405 78.9554 23.4199L74.8625 32.544ZM78.1872 33.1693C78.8406 33.5767 79.1894 34.1219 79.291 34.8746L90.0397 30.366C89.7302 28.0726 88.5722 26.2835 86.6229 25.0683L78.1872 33.1693ZM79.2922 34.8838C79.3975 35.6449 79.2449 36.6642 78.6092 38.0814L88.6057 37.8197C89.7994 35.1587 90.3521 32.6245 90.0385 30.3568L79.2922 34.8838ZM78.6092 38.0814C77.9737 39.498 77.2009 40.5422 76.3901 41.3413L83.3014 45.3874C85.6768 43.0463 87.4118 40.4813 88.6057 37.8197L78.6092 38.0814ZM76.3998 41.3318C75.6142 42.1037 74.7516 42.6901 73.6891 43.1556L75.017 50.9821C78.0997 49.6314 80.8989 47.7481 83.2918 45.3969L76.3998 41.3318ZM73.712 43.1456C72.7411 43.5678 71.4544 43.9043 69.7465 43.9491L65.6536 53.0731C68.6789 52.9939 71.8275 52.369 74.9941 50.9921L73.712 43.1456ZM68.0824 47.7838C69.9872 47.7339 72.0534 47.0611 74.0026 45.8337L70.2378 39.3016C70.4947 39.1399 70.8328 38.9678 71.2215 38.8401C71.6093 38.7128 71.9364 38.666 72.1753 38.6598L68.0824 47.7838ZM74.0026 45.8337C75.7756 44.7172 77.1343 43.3567 78.152 42.0747L69.8901 39.5286C69.7033 39.7638 69.7947 39.5807 70.2378 39.3016L74.0026 45.8337ZM78.152 42.0747C79.2091 40.7431 80.005 39.3492 80.6204 37.9775L70.6238 38.2393C70.3089 38.9413 70.0375 39.3428 69.8901 39.5286L78.152 42.0747ZM80.6204 37.9775C81.2366 36.6038 81.6926 35.2106 81.8142 33.8992L71.0417 36.9728C71.0267 37.1337 70.9455 37.5221 70.6238 38.2393L80.6204 37.9775ZM81.8128 33.9138C81.9347 32.6552 81.7789 31.3344 80.9773 30.2853L71.1931 37.1721C70.9928 36.9099 71.0654 36.7273 71.043 36.9583L81.8128 33.9138ZM80.9773 30.2853C80.096 29.132 78.5915 28.5527 76.6867 28.6026L72.5938 37.7266C72.355 37.7329 72.0625 37.7023 71.7812 37.5925C71.4991 37.4824 71.3092 37.3241 71.1931 37.1721L80.9773 30.2853ZM76.6867 28.6026C74.8238 28.6513 72.7683 29.2747 70.7785 30.4945L74.3489 37.1474C74.0882 37.3071 73.7654 37.4635 73.4113 37.5754C73.0611 37.6861 72.7807 37.7217 72.5938 37.7266L76.6867 28.6026ZM70.7785 30.4945C68.9533 31.6134 67.5516 32.9944 66.5035 34.3147L74.7654 36.8608C74.9219 36.6638 74.8063 36.867 74.3489 37.1474L70.7785 30.4945ZM66.5153 34.2999C65.4493 35.6359 64.6513 37.0381 64.0351 38.4118L74.0317 38.1501C74.3534 37.4328 74.6228 37.0396 74.7536 36.8756L66.5153 34.2999ZM64.0351 38.4118C63.4198 39.7835 62.9693 41.1684 62.8427 42.4755L73.6125 39.4311C73.6301 39.2488 73.7168 38.852 74.0317 38.1501L64.0351 38.4118ZM62.8427 42.4755C62.7171 43.7716 62.8984 45.1112 63.7513 46.16L73.4461 39.1598C73.6599 39.4226 73.5937 39.6245 73.6125 39.4311L62.8427 42.4755ZM63.7513 46.16C64.6811 47.3033 66.2195 47.8326 68.0824 47.7838L72.1753 38.6598C72.3621 38.6549 72.6169 38.6764 72.8749 38.7712C73.1358 38.867 73.3243 39.01 73.4461 39.1598L63.7513 46.16ZM86.3369 46.8191L81.9463 50.7525L81.9514 50.7563L81.9566 50.7601L86.3369 46.8191ZM84.7304 43.5183L79.336 45.5725L79.3366 45.582L79.3373 45.5915L84.7304 43.5183ZM89.9788 31.9432L86.4234 30.0201L86.414 30.0296L86.4047 30.0392L89.9788 31.9432ZM94.642 28.555L93.8768 24.6869L93.8683 24.6908L93.8598 24.6947L94.642 28.555ZM101.838 27.8415L97.8748 32.0332L97.8924 32.0418L97.9102 32.0503L101.838 27.8415ZM103.273 29.1488L98.1671 32.2585L98.1738 32.2712L98.1806 32.2838L103.273 29.1488ZM103.691 30.9694L98.291 32.7292L98.2115 35.6213L101.644 35.5314L103.691 30.9694ZM103.804 30.9664L101.758 35.5284L106.756 35.3975L108.803 30.8355L103.804 30.9664ZM108.339 20.8573L110.385 16.2953L105.387 16.4262L103.341 20.9882L108.339 20.8573ZM116.177 20.6521L121.176 20.5212L123.222 15.9592L118.224 16.0901L116.177 20.6521ZM104.271 47.1948L102.224 51.7568L107.223 51.626L109.269 47.0639L104.271 47.1948ZM96.4894 47.3986L91.4911 47.5295L89.4446 52.0915L94.4429 51.9606L96.4894 47.3986ZM97.9544 44.1326L102.953 44.0017L104.999 39.4397L100.001 39.5706L97.9544 44.1326ZM97.784 44.137L99.8305 39.575L96.4785 39.6628L93.9365 42.5266L97.784 44.137ZM95.6637 45.9857L93.4951 42.9072L93.4937 42.9081L95.6637 45.9857ZM93.055 47.2964L93.0885 51.4572L93.1042 51.4517L93.12 51.4461L93.055 47.2964ZM97.5887 41.6318L99.1596 45.0858L99.17 45.0797L97.5887 41.6318ZM99.514 39.9675L95.5232 38.523L95.5106 38.538L95.4981 38.553L99.514 39.9675ZM101.776 34.926L96.381 36.5705L96.379 36.6019L96.3777 36.6332L101.776 34.926ZM101.31 33.3372L96.5658 36.9565L96.5918 36.9845L96.6188 37.0118L101.31 33.3372ZM97.6176 33.4338L99.1776 36.8941L99.1884 36.8878L97.6176 33.4338ZM95.7265 35.0844L91.6966 33.6867L91.6838 33.7021L91.6711 33.7176L95.7265 35.0844ZM93.4534 40.1519L88.0619 41.7499L88.0596 41.7815L88.0578 41.8128L93.4534 40.1519ZM93.891 41.7414L89.1238 45.3351L89.1497 45.3638L89.1766 45.3917L93.891 41.7414ZM92.1717 43.2594C91.5452 43.2758 91.0942 43.1527 90.7172 42.8781L81.9566 50.7601C83.5257 51.9032 85.6002 52.4483 88.0788 52.3834L92.1717 43.2594ZM90.7276 42.8857C90.4721 42.6977 90.1862 42.3168 90.1234 41.445L79.3373 45.5915C79.4894 47.7026 80.2746 49.5223 81.9463 50.7525L90.7276 42.8857ZM90.1247 41.4641C90.0779 40.7507 90.2909 39.5687 91.1281 37.7024L81.1315 37.9641C79.9068 40.6944 79.1869 43.3024 79.336 45.5725L90.1247 41.4641ZM91.1281 37.7024C92.0177 35.7193 92.8963 34.5198 93.5529 33.8473L86.4047 30.0392C84.0843 32.416 82.397 35.1432 81.1315 37.9641L91.1281 37.7024ZM93.5342 33.8663C94.4249 32.9596 95.0495 32.5862 95.4243 32.4154L93.8598 24.6947C91.0129 25.9916 88.5287 27.8769 86.4234 30.0201L93.5342 33.8663ZM95.4073 32.4232C96.1283 32.0965 96.6827 31.9726 97.1844 31.9595L101.277 22.8354C98.9012 22.8976 96.3964 23.5455 93.8768 24.6869L95.4073 32.4232ZM97.1844 31.9595C97.6801 31.9465 97.8472 32.0196 97.8748 32.0332L105.802 23.6498C104.511 23.0148 102.94 22.7919 101.277 22.8354L97.1844 31.9595ZM97.9102 32.0503C98.0871 32.1345 98.1422 32.2113 98.1671 32.2585L108.378 26.039C107.816 24.9744 106.915 24.1797 105.766 23.6326L97.9102 32.0503ZM98.1806 32.2838C98.2696 32.4476 98.2948 32.5928 98.291 32.7292L109.091 29.2095C109.123 28.013 108.87 26.9444 108.364 26.0138L98.1806 32.2838ZM101.644 35.5314L101.758 35.5284L105.851 26.4044L105.737 26.4073L101.644 35.5314ZM108.803 30.8355L113.337 20.7265L103.341 20.9882L98.8061 31.0973L108.803 30.8355ZM106.293 25.4194L114.131 25.2141L118.224 16.0901L110.385 16.2953L106.293 25.4194ZM111.179 20.783L99.2725 47.3257L109.269 47.0639L121.176 20.5212L111.179 20.783ZM106.317 42.6328L98.5358 42.8366L94.4429 51.9606L102.224 51.7568L106.317 42.6328ZM101.488 47.2677L102.953 44.0017L92.9561 44.2635L91.4911 47.5295L101.488 47.2677ZM100.001 39.5706L99.8305 39.575L95.7376 48.6991L95.908 48.6946L100.001 39.5706ZM93.9365 42.5266C93.8238 42.6536 93.6904 42.7742 93.4951 42.9072L97.8324 49.0642C99.2536 48.0961 100.534 46.9843 101.632 45.7475L93.9365 42.5266ZM93.4937 42.9081C93.4192 42.9589 93.2733 43.047 92.9901 43.1466L93.12 51.4461C94.7251 50.8815 96.3184 50.0958 97.8337 49.0633L93.4937 42.9081ZM93.0216 43.1356C92.924 43.1695 92.6552 43.2467 92.1717 43.2594L88.0788 52.3834C89.64 52.3425 91.3245 52.0697 93.0885 51.4572L93.0216 43.1356ZM93.4405 46.8124C95.1984 46.7664 97.1777 46.2299 99.1596 45.0857L96.0179 38.1778C96.2848 38.0238 96.5846 37.8916 96.888 37.8023C97.185 37.7149 97.4064 37.6917 97.5334 37.6883L93.4405 46.8124ZM99.17 45.0797C100.982 44.0303 102.424 42.7105 103.53 41.382L95.4981 38.553C95.459 38.6 95.4783 38.5695 95.5677 38.4922C95.6617 38.411 95.8102 38.2981 96.0075 38.1838L99.17 45.0797ZM103.505 41.4121C104.635 40.068 105.457 38.6697 106.066 37.3112L96.0696 37.573C95.8108 38.1499 95.597 38.4352 95.5232 38.523L103.505 41.4121ZM106.066 37.3112C106.677 35.9486 107.116 34.5448 107.173 33.2188L96.3777 36.6332C96.3751 36.692 96.342 36.9656 96.0696 37.573L106.066 37.3112ZM107.17 33.2815C107.251 31.9686 106.976 30.6491 106 29.6626L96.6188 37.0118C96.351 36.741 96.3865 36.4808 96.381 36.5705L107.17 33.2815ZM106.053 29.7179C105.063 28.6516 103.524 28.2072 101.766 28.2532L97.6729 37.3773C97.5459 37.3806 97.3404 37.3686 97.1157 37.2948C96.8861 37.2195 96.6991 37.1001 96.5658 36.9565L106.053 29.7179ZM101.766 28.2532C100.008 28.2993 98.0287 28.8358 96.0468 29.9799L99.1884 36.8878C98.9216 37.0419 98.6217 37.174 98.3184 37.2633C98.0213 37.3507 97.8 37.374 97.6729 37.3773L101.766 28.2532ZM96.0577 29.9736C94.2079 31.0382 92.772 32.3873 91.6966 33.6867L99.7565 36.4821C99.8657 36.3501 99.6905 36.5989 99.1776 36.8941L96.0577 29.9736ZM91.6711 33.7176C90.5888 35.0388 89.7959 36.4178 89.197 37.7529L99.1935 37.4912C99.4783 36.8563 99.7062 36.5436 99.7819 36.4511L91.6711 33.7176ZM89.197 37.7529C88.597 39.0904 88.1592 40.4566 88.0619 41.7499L98.8448 38.5538C98.853 38.444 98.9098 38.1237 99.1935 37.4912L89.197 37.7529ZM88.0578 41.8128C87.9857 43.0791 88.2376 44.353 89.1238 45.3351L98.6582 38.1477C98.8821 38.3958 98.8422 38.61 98.8489 38.4909L88.0578 41.8128ZM89.1766 45.3917C90.1785 46.4332 91.7114 46.8577 93.4405 46.8124L97.5334 37.6883C97.6488 37.6853 97.8438 37.6957 98.0609 37.7649C98.2831 37.8358 98.4694 37.9497 98.6055 38.0911L89.1766 45.3917ZM126.169 38.0144L121.17 38.1453L121.157 38.1753L121.144 38.2053L126.169 38.0144ZM131.192 26.8167L133.238 22.2546L128.24 22.3855L126.193 26.9475L131.192 26.8167ZM139.03 26.6114L144.028 26.4805L146.075 21.9185L141.076 22.0494L139.03 26.6114ZM130.1 46.5185L128.054 51.0805L133.052 50.9496L135.098 46.3876L130.1 46.5185ZM122.659 46.7133L117.661 46.8442L115.615 51.4062L120.613 51.2753L122.659 46.7133ZM124.357 42.9289L129.355 42.798L131.402 38.236L126.403 38.3669L124.357 42.9289ZM124.13 42.9348L126.176 38.3728L122.597 38.4665L120.057 41.5897L124.13 42.9348ZM120.308 45.9808L121.338 49.7235L121.353 49.7162L121.368 49.7089L120.308 45.9808ZM112.04 46.2997L107.674 50.2515L107.68 50.2557L107.686 50.2599L112.04 46.2997ZM110.57 43.7254L105.187 45.9073L105.188 45.9195L105.19 45.9317L110.57 43.7254ZM111.351 39.8881L106.353 40.019L106.347 40.0326L106.341 40.0462L111.351 39.8881ZM117.049 27.187L119.095 22.625L114.097 22.7559L112.05 27.3179L117.049 27.187ZM124.887 26.9818L129.885 26.8509L131.932 22.2888L126.933 22.4197L124.887 26.9818ZM119.864 38.1795L114.866 38.3104L114.857 38.3304L114.848 38.3504L119.864 38.1795ZM119.647 40.4778L114.54 43.5841L114.547 43.5985L114.555 43.6128L119.647 40.4778ZM123.428 40.8399L124.165 44.7205L124.182 44.7131L124.198 44.7057L123.428 40.8399ZM125.024 39.7222L121.498 37.7691L121.483 37.7841L121.468 37.7991L125.024 39.7222ZM131.167 37.8835L136.19 26.6858L126.193 26.9475L121.17 38.1453L131.167 37.8835ZM129.145 31.3787L136.983 31.1734L141.076 22.0494L133.238 22.2546L129.145 31.3787ZM134.032 26.7423L125.102 46.6493L135.098 46.3876L144.028 26.4805L134.032 26.7423ZM132.146 41.9564L124.706 42.1513L120.613 51.2753L128.054 51.0805L132.146 41.9564ZM127.658 46.5824L129.355 42.798L119.359 43.0598L117.661 46.8442L127.658 46.5824ZM126.403 38.3669L126.176 38.3728L122.083 47.4969L122.311 47.4909L126.403 38.3669ZM120.057 41.5897C119.768 41.9449 119.54 42.1076 119.248 42.2527L121.368 49.7089C124.086 48.3577 126.406 46.4898 128.203 44.28L120.057 41.5897ZM119.277 42.2381C118.958 42.3952 118.465 42.5709 117.66 42.5919L113.567 51.716C116.019 51.6518 118.655 51.0453 121.338 49.7235L119.277 42.2381ZM117.66 42.5919C116.929 42.6111 116.587 42.4771 116.393 42.3396L107.686 50.2599C109.209 51.3412 111.25 51.7767 113.567 51.716L117.66 42.5919ZM116.405 42.348C116.156 42.1696 115.999 41.9274 115.951 41.5191L105.19 45.9317C105.402 47.7365 106.224 49.2106 107.674 50.2515L116.405 42.348ZM115.953 41.5435C115.91 41.1477 115.985 40.5811 116.362 39.7301L106.341 40.0462C105.434 42.0977 104.988 44.0893 105.187 45.9073L115.953 41.5435ZM116.35 39.7572L122.047 27.0561L112.05 27.3179L106.353 40.019L116.35 39.7572ZM115.002 31.749L122.841 31.5438L126.933 22.4197L119.095 22.625L115.002 31.749ZM119.889 27.1126L114.866 38.3104L124.862 38.0486L129.885 26.8509L119.889 27.1126ZM114.848 38.3504C114.091 40.0744 113.712 42.0097 114.54 43.5841L124.754 37.3715C124.87 37.5913 124.885 37.8123 124.871 37.9619C124.858 38.0973 124.826 38.1317 124.88 38.0086L114.848 38.3504ZM114.555 43.6128C115.465 45.2884 117.416 45.8772 119.523 45.822L123.616 36.698C123.642 36.6973 123.852 36.6956 124.111 36.8011C124.387 36.9136 124.609 37.1038 124.739 37.3428L114.555 43.6128ZM119.523 45.822C120.886 45.7863 122.469 45.482 124.165 44.7205L122.69 36.9593C123.215 36.7236 123.559 36.6994 123.616 36.698L119.523 45.822ZM124.198 44.7057C125.852 43.9553 127.346 42.9008 128.579 41.6453L121.468 37.7991C121.602 37.6633 121.782 37.5053 122.006 37.3483C122.231 37.1907 122.455 37.0659 122.657 36.9741L124.198 44.7057ZM128.549 41.6753C129.827 40.3868 130.66 39.0506 131.193 37.8235L121.144 38.2053C121.107 38.291 121.176 38.0933 121.498 37.7691L128.549 41.6753ZM138.93 45.3779L134.697 49.4193L134.705 49.4239L134.712 49.4284L138.93 45.3779ZM136.669 41.8764L131.295 44.1307L131.296 44.1399L136.669 41.8764ZM141.489 31.1323L144.935 33.1649L144.945 33.1554L141.489 31.1323ZM146.982 27.4278L147.623 31.3511L147.634 31.3461L147.646 31.3411L146.982 27.4278ZM158.716 26.89L154.659 31.0336L154.672 31.0406L154.685 31.0474L158.716 26.89ZM161.028 29.7753L155.696 32.2648L155.697 32.2706L155.698 32.2763L161.028 29.7753ZM160.311 34.2513L158.265 38.8133L163.288 38.6818L165.32 34.0976L160.311 34.2513ZM153.041 34.4417L147.878 34.9851L146.43 39.1232L150.995 39.0037L153.041 34.4417ZM153.117 32.083L148.039 35.2435L148.054 35.2704L148.07 35.297L153.117 32.083ZM149.325 31.9005L150.718 35.4548L150.748 35.4381L150.779 35.4212L149.325 31.9005ZM147.406 33.5518L151.411 34.9794L151.418 34.9712L151.425 34.9629L147.406 33.5518ZM144.97 38.9822L139.575 40.6398L139.574 40.6479L139.574 40.656L144.97 38.9822ZM145.436 40.571L140.752 44.2524L140.768 44.2681L140.784 44.2835L145.436 40.571ZM148.683 40.6524L149.483 44.5047L149.525 44.4857L149.566 44.4662L148.683 40.6524ZM150.251 39.5355L146.811 37.4966L146.798 37.51L146.784 37.5235L150.251 39.5355ZM151.553 37.7595L153.599 33.1975L148.962 33.3189L146.721 37.5489L151.553 37.7595ZM158.823 37.5692L163.79 37.5057L165.942 32.8743L160.869 33.0071L158.823 37.5692ZM155.444 42.1917L158.677 44.4266L158.684 44.4208L158.69 44.4149L155.444 42.1917ZM150.475 45.2933L150.083 41.2662L150.07 41.2714L150.475 45.2933ZM146.478 41.9398C144.77 41.9845 143.758 41.7081 143.148 41.3274L134.712 49.4284C136.704 50.6701 139.36 51.143 142.385 51.0638L146.478 41.9398ZM143.162 41.3364C142.497 40.9161 142.146 40.3615 142.042 39.6129L131.296 44.1399C131.612 46.4201 132.768 48.1999 134.697 49.4193L143.162 41.3364ZM142.044 39.6221C141.939 38.847 142.096 37.8189 142.731 36.4023L132.735 36.6641C131.541 39.3257 130.988 41.8597 131.295 44.1307L142.044 39.6221ZM142.731 36.4023C143.367 34.9851 144.136 33.9497 144.935 33.1649L138.043 29.0998C135.663 31.438 133.928 34.0032 132.735 36.6641L142.731 36.4023ZM144.945 33.1554C145.732 32.3794 146.584 31.8028 147.623 31.3511L146.341 23.5046C143.242 24.8519 140.432 26.7449 138.033 29.1093L144.945 33.1554ZM147.646 31.3411C148.614 30.917 149.894 30.5792 151.594 30.5347L155.687 21.4106C152.654 21.4901 149.495 22.1224 146.318 23.5146L147.646 31.3411ZM151.594 30.5347C153.133 30.4944 154.076 30.7208 154.659 31.0336L162.773 22.7464C160.867 21.724 158.426 21.3389 155.687 21.4106L151.594 30.5347ZM154.685 31.0474C155.298 31.3686 155.585 31.773 155.696 32.2648L166.36 27.2858C165.903 25.248 164.649 23.7288 162.747 22.7327L154.685 31.0474ZM155.698 32.2763C155.803 32.7326 155.755 33.3843 155.303 34.405L165.32 34.0976C166.399 31.6627 166.829 29.3305 166.358 27.2744L155.698 32.2763ZM162.358 29.6893L155.087 29.8797L150.995 39.0037L158.265 38.8133L162.358 29.6893ZM158.204 33.8983C158.781 32.2489 159.05 30.3633 158.164 28.8691L148.07 35.297C147.944 35.0852 147.932 34.8935 147.934 34.8144C147.936 34.7459 147.948 34.7841 147.878 34.9851L158.204 33.8983ZM158.195 28.9225C157.337 27.3884 155.584 26.6903 153.405 26.7473L149.312 35.8714C149.16 35.8754 148.888 35.8565 148.608 35.7331C148.321 35.6069 148.138 35.4206 148.039 35.2435L158.195 28.9225ZM153.405 26.7473C151.675 26.7926 149.766 27.3223 147.872 28.3798L150.779 35.4212C150.544 35.5522 150.269 35.6726 149.978 35.757C149.691 35.8405 149.464 35.8674 149.312 35.8714L153.405 26.7473ZM147.933 28.3463C145.976 29.4201 144.48 30.8261 143.387 32.1407L151.425 34.9629C151.551 34.8111 151.335 35.1162 150.718 35.4548L147.933 28.3463ZM143.401 32.1241C142.237 33.5162 141.399 34.9924 140.767 36.4025L150.763 36.1408C151.107 35.3736 151.363 35.0365 151.411 34.9794L143.401 32.1241ZM140.767 36.4025C140.133 37.8157 139.653 39.2782 139.575 40.6398L150.365 37.3245C150.37 37.2494 150.42 36.9049 150.763 36.1408L140.767 36.4025ZM139.574 40.656C139.506 41.9383 139.768 43.265 140.752 44.2524L150.12 36.8896C150.408 37.1779 150.359 37.4454 150.366 37.3083L139.574 40.656ZM140.784 44.2835C141.774 45.2413 143.239 45.6621 144.94 45.6175L149.033 36.4935C149.172 36.4898 149.37 36.5034 149.581 36.5691C149.794 36.6357 149.965 36.739 150.088 36.8584L140.784 44.2835ZM144.94 45.6175C146.312 45.5816 147.86 45.2485 149.483 44.5047L147.883 36.8002C148.4 36.5635 148.816 36.4991 149.033 36.4935L144.94 45.6175ZM149.566 44.4662C151.191 43.7018 152.585 42.6675 153.718 41.5475L146.784 37.5235C146.941 37.3683 147.29 37.0786 147.8 36.8387L149.566 44.4662ZM153.69 41.5744C154.903 40.3849 155.766 39.1374 156.384 37.9702L146.721 37.5489C146.666 37.6537 146.635 37.6936 146.644 37.6822C146.653 37.6691 146.705 37.6003 146.811 37.4966L153.69 41.5744ZM149.506 42.3216L156.776 42.1312L160.869 33.0071L153.599 33.1975L149.506 42.3216ZM153.855 37.6326C153.353 38.7131 152.769 39.4419 152.198 39.9684L158.69 44.4149C160.994 42.2875 162.662 39.9346 163.79 37.5057L153.855 37.6326ZM152.211 39.9568C151.649 40.4736 150.991 40.904 150.083 41.2662L150.866 49.3204C153.718 48.1837 156.373 46.5464 158.677 44.4266L152.211 39.9568ZM150.07 41.2714C149.214 41.6141 148.045 41.8987 146.478 41.9398L142.385 51.0638C145.135 50.9918 147.994 50.4708 150.879 49.3152L150.07 41.2714ZM166.729 25.0664L161.731 25.1972L159.685 29.7593L164.683 29.6284L166.729 25.0664ZM169.334 19.2601L171.38 14.6981L166.382 14.829L164.335 19.391L169.334 19.2601ZM194.609 18.5983L199.607 18.4674L201.654 13.9054L196.656 14.0363L194.609 18.5983ZM192.005 24.4045L189.958 28.9665L194.957 28.8356L197.003 24.2736L192.005 24.4045ZM183.258 24.6336L185.304 20.0715L180.306 20.2024L178.259 24.7644L183.258 24.6336ZM173.956 45.3701L171.909 49.9321L176.908 49.8012L178.954 45.2392L173.956 45.3701ZM166.174 45.5738L161.176 45.7047L159.13 50.2667L164.128 50.1358L166.174 45.5738ZM175.476 24.8373L180.475 24.7064L182.521 20.1444L177.523 20.2753L175.476 24.8373ZM171.728 24.9355L174.332 19.1293L164.335 19.391L161.731 25.1972L171.728 24.9355ZM167.287 23.8222L192.563 23.1603L196.656 14.0363L171.38 14.6981L167.287 23.8222ZM189.611 18.7292L187.006 24.5354L197.003 24.2736L199.607 18.4674L189.611 18.7292ZM194.051 19.8425L185.304 20.0715L181.211 29.1956L189.958 28.9665L194.051 19.8425ZM178.259 24.7644L168.957 45.5009L178.954 45.2392L188.256 24.5027L178.259 24.7644ZM176.002 40.808L168.221 41.0118L164.128 50.1358L171.909 49.9321L176.002 40.808ZM171.173 45.4429L180.475 24.7064L170.478 24.9682L161.176 45.7047L171.173 45.4429ZM177.523 20.2753L168.776 20.5043L164.683 29.6284L173.43 29.3993L177.523 20.2753ZM185.674 45.0632L180.676 45.1941L178.629 49.7561L183.628 49.6252L185.674 45.0632ZM197.58 18.5205L199.627 13.9584L194.629 14.0893L192.582 18.6514L197.58 18.5205ZM215.316 19.1191L211.293 23.2804L215.316 19.1191ZM217.704 22.1177L223.037 19.6331L223.037 19.6331L217.704 22.1177ZM213.33 31.7743L210.251 29.4005L210.241 29.4096L210.231 29.4187L213.33 31.7743ZM208.128 34.8307L207.999 30.7037L207.988 30.7078L208.128 34.8307ZM194.375 36.1771L189.377 36.308L187.33 40.87L192.329 40.7391L194.375 36.1771ZM196.887 30.5782L198.933 26.0162L193.935 26.1471L191.888 30.7091L196.887 30.5782ZM205.305 30.0504L205.014 34.3162L205.036 34.3095L205.059 34.3026L205.305 30.0504ZM207.283 28.9868L204.373 26.4684L204.345 26.4922L204.317 26.5161L207.283 28.9868ZM208.934 25.306L203.636 27.9301L203.647 27.9688L203.659 28.0069L208.934 25.306ZM207.892 24.2831L204.165 28.5791L204.199 28.5925L204.233 28.6052L207.892 24.2831ZM202.894 24.0681L204.941 19.5061L199.942 19.637L197.896 24.199L202.894 24.0681ZM193.569 44.8565L191.523 49.4185L196.521 49.2876L198.567 44.7256L193.569 44.8565ZM208.178 32.4343L213.547 30.1372L213.194 27.7945L210.225 27.8723L208.178 32.4343ZM209.984 44.4266L207.937 48.9887L216.352 48.7683L215.352 42.1295L209.984 44.4266ZM201.407 44.6512L196.033 46.9092L196.358 49.2919L199.361 49.2132L201.407 44.6512ZM199.772 32.6544L201.819 28.0924L193.499 28.3103L194.398 34.9124L199.772 32.6544ZM190.672 44.9323L202.579 18.3896L192.582 18.6514L180.676 45.1941L190.672 44.9323ZM195.534 23.0825L208.087 22.7538L212.179 13.6297L199.627 13.9584L195.534 23.0825ZM208.087 22.7538C209.638 22.7132 210.639 22.9402 211.293 23.2804L219.34 14.9578C217.4 13.9485 214.945 13.5573 212.179 13.6297L208.087 22.7538ZM211.293 23.2804C211.928 23.6108 212.246 24.0437 212.37 24.6023L223.037 19.6331C222.572 17.5431 221.299 15.977 219.34 14.9578L211.293 23.2804ZM212.37 24.6023C212.481 25.0989 212.423 25.8507 211.88 27.0604L221.877 26.7987C223.024 24.2413 223.516 21.7853 223.037 19.6331L212.37 24.6023ZM211.88 27.0604C211.334 28.2768 210.733 28.9771 210.251 29.4005L216.409 34.1481C218.952 31.9136 220.717 29.384 221.877 26.7987L211.88 27.0604ZM210.231 29.4187C209.662 29.9215 208.978 30.3506 207.999 30.7037L208.256 38.9578C211.207 37.893 213.991 36.2845 216.429 34.1298L210.231 29.4187ZM207.988 30.7078C206.93 31.0915 205.592 31.3749 203.919 31.4187L199.826 40.5428C202.583 40.4706 205.416 39.9874 208.268 38.9537L207.988 30.7078ZM203.919 31.4187L196.422 31.6151L192.329 40.7391L199.826 40.5428L203.919 31.4187ZM199.373 36.0462L201.885 30.4474L191.888 30.7091L189.377 36.308L199.373 36.0462ZM194.84 35.1403L200.747 34.9856L204.84 25.8615L198.933 26.0162L194.84 35.1403ZM200.747 34.9856C202.055 34.9513 203.498 34.7722 205.014 34.3162L205.595 25.7846C205.619 25.7775 205.387 25.8472 204.84 25.8615L200.747 34.9856ZM205.059 34.3026C206.795 33.7693 208.613 32.849 210.25 31.4574L204.317 26.5161C204.549 26.3188 204.801 26.149 205.046 26.0171C205.285 25.8888 205.464 25.8248 205.551 25.7982L205.059 34.3026ZM210.193 31.5051C211.957 30.0301 213.015 28.4104 213.641 27.0143L203.644 27.2761C203.596 27.3834 203.748 26.9914 204.373 26.4684L210.193 31.5051ZM213.641 27.0143C214.268 25.6172 214.656 24.0218 214.21 22.6051L203.659 28.0069C203.506 27.5219 203.7 27.1526 203.644 27.2761L213.641 27.0143ZM214.233 22.682C213.852 21.3263 212.856 20.4425 211.55 19.9609L204.233 28.6052C204.16 28.5784 204.034 28.5174 203.909 28.3949C203.781 28.2695 203.687 28.11 203.636 27.9301L214.233 22.682ZM211.619 19.987C210.454 19.5278 209.085 19.3976 207.724 19.4332L203.631 28.5573C204.125 28.5443 204.233 28.606 204.165 28.5791L211.619 19.987ZM207.724 19.4332L204.941 19.5061L200.848 28.6301L203.631 28.5573L207.724 19.4332ZM197.896 24.199L188.571 44.9873L198.567 44.7256L207.893 23.9372L197.896 24.199ZM195.615 40.2944L187.72 40.5012L183.628 49.6252L191.523 49.4185L195.615 40.2944ZM202.81 34.7314L204.616 46.7237L215.352 42.1295L213.547 30.1372L202.81 34.7314ZM212.03 39.8646L203.454 40.0892L199.361 49.2132L207.937 48.9887L212.03 39.8646ZM206.781 42.3933L205.146 30.3965L194.398 34.9124L196.033 46.9092L206.781 42.3933ZM197.726 37.2165L206.132 36.9963L210.225 27.8723L201.819 28.0924L197.726 37.2165ZM221.731 17.8881L223.777 13.3261L215.43 13.5446L216.358 20.1574L221.731 17.8881ZM230.534 17.6575L235.926 15.5629L235.724 13.0132L232.581 13.0955L230.534 17.6575ZM231.377 28.2918L225.986 30.3865L226.188 32.9361L229.331 32.8538L231.377 28.2918ZM231.604 28.2858L229.558 32.8479L232.701 32.7656L235.222 30.1446L231.604 28.2858ZM242.121 17.3541L244.168 12.7921L241.025 12.8744L238.503 15.4954L242.121 17.3541ZM250.925 17.1236L254.365 19.1622L261.319 12.343L252.972 12.5616L250.925 17.1236ZM232.084 35.5995L228.645 33.5609L227.6 34.5856L227.086 35.7304L232.084 35.5995ZM228.34 43.9459L226.294 48.508L231.292 48.3771L233.339 43.8151L228.34 43.9459ZM220.502 44.1512L215.504 44.2821L213.458 48.8441L218.456 48.7132L220.502 44.1512ZM224.246 35.8047L229.245 35.6739L229.758 34.5291L229.619 33.5354L224.246 35.8047ZM219.684 22.4501L228.488 22.2196L232.581 13.0955L223.777 13.3261L219.684 22.4501ZM225.143 19.7522L225.986 30.3865L236.769 26.1971L235.926 15.5629L225.143 19.7522ZM229.331 32.8538L229.558 32.8479L233.651 23.7238L233.424 23.7298L229.331 32.8538ZM235.222 30.1446L245.739 19.2129L238.503 15.4954L227.986 26.4271L235.222 30.1446ZM240.075 21.9162L248.879 21.6856L252.972 12.5616L244.168 12.7921L240.075 21.9162ZM247.485 15.085L228.645 33.5609L235.524 37.6381L254.365 19.1622L247.485 15.085ZM227.086 35.7304L223.342 44.0768L233.339 43.8151L237.083 35.4686L227.086 35.7304ZM230.387 39.3839L222.549 39.5892L218.456 48.7132L226.294 48.508L230.387 39.3839ZM225.501 44.0203L229.245 35.6739L219.248 35.9356L215.504 44.2821L225.501 44.0203ZM229.619 33.5354L227.103 15.6187L216.358 20.1574L218.874 38.0741L229.619 33.5354Z" fill="black"/>
<path d="M5.55797 41.4769L17.4645 14.9342L30.017 14.6055C32.1753 14.549 33.8895 14.8883 35.1594 15.6235C36.4294 16.3588 37.1981 17.4188 37.4657 18.8036C37.7332 20.1884 37.4445 21.8226 36.5996 23.7061C35.7469 25.607 34.5447 27.2651 32.993 28.6805C31.4508 30.0956 29.678 31.2008 27.6747 31.9961C25.6809 32.7912 23.5764 33.2178 21.3612 33.2758L13.8638 33.4721L16.3753 27.8732L22.2824 27.7185C23.2101 27.6943 24.0664 27.5267 24.8514 27.2158C25.6497 26.896 26.348 26.4551 26.9463 25.8929C27.5541 25.3306 28.0266 24.6735 28.3638 23.9218C28.7049 23.1615 28.8157 22.5182 28.6963 21.9919C28.5902 21.4567 28.2698 21.0553 27.735 20.7875C27.2136 20.5108 26.489 20.3846 25.5613 20.4089L22.7782 20.4818L13.453 41.2702L5.55797 41.4769ZM31.9126 40.7868L40.8424 20.8797L48.4535 20.6804L46.7559 24.4648L46.9831 24.4589C48.0085 23.0488 49.0973 22.0084 50.2495 21.3378C51.4111 20.667 52.5741 20.3164 53.7384 20.2859C54.0792 20.277 54.4037 20.2941 54.7117 20.3372C55.0331 20.3715 55.3307 20.4278 55.6043 20.506L52.866 26.6103C52.5322 26.4995 52.0948 26.4213 51.554 26.3757C51.0131 26.3301 50.5391 26.3126 50.1321 26.3233C49.3653 26.3433 48.6025 26.5213 47.8438 26.8571C47.0984 27.184 46.4227 27.6372 45.8167 28.2166C45.2145 28.7874 44.7428 29.4529 44.4018 30.2133L39.7508 40.5815L31.9126 40.7868ZM58.3458 40.4532C55.9792 40.5152 54.1452 40.1406 52.8439 39.3293C51.5464 38.5094 50.793 37.3422 50.5836 35.8278C50.378 34.3048 50.7326 32.5237 51.6473 30.4846C52.562 28.4455 53.8139 26.6452 55.4032 25.0837C56.9962 23.5136 58.8271 22.2788 60.8959 21.3793C62.9685 20.4711 65.1881 19.9861 67.5547 19.9241C69.9213 19.8621 71.7534 20.2411 73.0508 21.061C74.3521 21.8722 75.1056 23.0394 75.3111 24.5624C75.5205 26.0768 75.1679 27.8536 74.2532 29.8927C73.3385 31.9318 72.0846 33.7364 70.4915 35.3065C68.9023 36.868 67.0714 38.1029 64.9988 39.011C62.9301 39.9105 60.7124 40.3912 58.3458 40.4532ZM60.7746 35.1639C61.4372 35.1466 62.101 34.9285 62.766 34.5098C63.4309 34.0911 64.0645 33.5024 64.6668 32.7437C65.2691 31.9851 65.8027 31.0874 66.2678 30.0505C66.7368 29.0051 67.0054 28.1143 67.0737 27.3782C67.1458 26.6334 67.0316 26.0643 66.7309 25.6709C66.4303 25.2774 65.9487 25.0894 65.286 25.1067C64.5855 25.1251 63.8933 25.3439 63.2094 25.7631C62.5255 26.1823 61.8825 26.7712 61.2802 27.5299C60.6818 28.2799 60.1481 29.1776 59.6792 30.2231C59.2141 31.2599 58.9455 32.1507 58.8733 32.8954C58.8012 33.6402 58.9249 34.2091 59.2445 34.602C59.564 34.995 60.0741 35.1823 60.7746 35.1639ZM80.771 39.7635C79.2185 39.8042 77.9557 39.4701 76.9827 38.7612C76.0191 38.0521 75.4836 36.9519 75.3761 35.4604C75.2781 33.9687 75.7446 32.0737 76.7756 29.7754C77.8531 27.3734 79.1361 25.4101 80.6246 23.8854C82.1225 22.3604 83.6769 21.231 85.2878 20.4972C86.9081 19.7631 88.4377 19.3772 89.8766 19.3396C90.9558 19.3113 91.8249 19.4593 92.484 19.7836C93.147 20.0993 93.6251 20.535 93.9183 21.0909C94.2154 21.6381 94.3548 22.245 94.3365 22.9115L94.4501 22.9085L98.9848 12.7995L106.823 12.5942L94.9165 39.137L87.1351 39.3407L88.6002 36.0747L88.4298 36.0792C87.8245 36.7611 87.1178 37.3773 86.3095 37.9278C85.5145 38.4695 84.645 38.9064 83.7008 39.2385C82.77 39.5618 81.7934 39.7368 80.771 39.7635ZM86.1327 34.1925C86.8522 34.1737 87.5528 33.9675 88.2345 33.5739C88.9296 33.1715 89.5713 32.6167 90.1598 31.9097C90.7616 31.1937 91.2796 30.3519 91.7136 29.3842C92.1555 28.3992 92.3914 27.5605 92.4213 26.8681C92.4646 26.1668 92.3093 25.6372 91.9553 25.2793C91.6146 24.9125 91.0846 24.7386 90.3651 24.7574C89.6457 24.7762 88.9451 24.9824 88.2634 25.376C87.595 25.7607 86.9646 26.3108 86.3723 27.0265C85.7933 27.7333 85.2828 28.5792 84.841 29.5642C84.3992 30.5492 84.1519 31.3924 84.0991 32.094C84.0597 32.7867 84.2056 33.3165 84.5368 33.6835C84.8813 34.0417 85.4133 34.2113 86.1327 34.1925ZM116.814 29.9565L121.837 18.7588L129.676 18.5536L120.746 38.4606L113.305 38.6554L115.003 34.871L114.776 34.877C113.732 36.1595 112.458 37.1748 110.953 37.9229C109.452 38.6624 107.888 39.0535 106.259 39.0961C104.735 39.136 103.544 38.8513 102.685 38.2419C101.836 37.6323 101.346 36.7741 101.216 35.6675C101.095 34.5606 101.355 33.2816 101.997 31.8303L107.695 19.1291L115.533 18.9239L110.51 30.1216C110.077 31.1063 110.005 31.8725 110.293 32.4199C110.59 32.9672 111.231 33.2279 112.215 33.2021C112.868 33.185 113.488 33.045 114.073 32.782C114.672 32.5102 115.204 32.1376 115.669 31.6644C116.148 31.1822 116.529 30.6129 116.814 29.9565ZM135.077 38.4439C132.711 38.5059 130.877 38.1313 129.575 37.32C128.278 36.5001 127.525 35.333 127.315 33.8186C127.11 32.2955 127.464 30.5144 128.379 28.4753C129.294 26.4363 130.545 24.636 132.135 23.0745C133.728 21.5043 135.559 20.2695 137.627 19.37C139.7 18.4618 141.92 17.9768 144.286 17.9148C146.426 17.8588 148.117 18.1646 149.362 18.8322C150.619 19.4909 151.39 20.4526 151.674 21.7175C151.962 22.9737 151.723 24.4657 150.957 26.1935L143.687 26.3838C144.052 25.3411 144.077 24.5549 143.762 24.0252C143.461 23.4866 142.875 23.2287 142.005 23.2515C141.323 23.2693 140.645 23.4664 139.971 23.8427C139.301 24.2103 138.661 24.7607 138.052 25.4939C137.446 26.2185 136.899 27.1251 136.411 28.2138C135.922 29.3025 135.657 30.206 135.616 30.9243C135.578 31.634 135.733 32.1636 136.082 32.5131C136.434 32.854 136.951 33.0155 137.633 32.9976C138.21 32.9825 138.776 32.8482 139.329 32.5946C139.886 32.3324 140.409 31.9601 140.897 31.4777C141.398 30.9864 141.832 30.3944 142.198 29.7017L149.469 29.5113C148.653 31.266 147.527 32.8068 146.09 34.1338C144.657 35.4522 143 36.486 141.12 37.2354C139.25 37.9846 137.236 38.3874 135.077 38.4439Z" fill="white"/>
<path d="M157.375 17.0085L159.98 11.2023L185.255 10.5404L182.65 16.3466L173.903 16.5757L164.601 37.3122L156.82 37.516L166.122 16.7795L157.375 17.0085ZM176.32 37.0053L188.226 10.4626L200.779 10.1339C202.937 10.0774 204.665 10.3865 205.962 11.0613C207.259 11.736 208.055 12.7355 208.35 14.0599C208.644 15.3842 208.369 16.9881 207.524 18.8717C206.671 20.7725 205.489 22.3875 203.976 23.7164C202.472 25.0451 200.738 26.064 198.774 26.7729C196.819 27.4816 194.733 27.8649 192.518 27.9229L185.021 28.1192L187.532 22.5204L193.439 22.3657C194.367 22.3414 195.204 22.217 195.95 21.9925C196.71 21.7592 197.369 21.4046 197.929 20.9289C198.498 20.4529 198.951 19.8391 199.288 19.0874C199.629 18.327 199.727 17.714 199.58 17.2482C199.447 16.7735 199.099 16.4325 198.537 16.2252C197.989 16.009 197.251 15.9131 196.323 15.9374L193.54 16.0103L184.215 36.7986L176.32 37.0053ZM198.824 24.3764L200.63 36.3688L192.053 36.5933L190.418 24.5966L198.824 24.3764ZM212.376 9.83022L221.18 9.59969L222.023 20.2339L222.25 20.228L232.767 9.29627L241.571 9.06574L222.73 27.5416L218.986 35.8881L211.148 36.0933L214.892 27.7469L212.376 9.83022Z" fill="#45D3A1"/>
<path d="M5.55797 41.4769L0.559679 41.6078L-1.48675 46.1698L3.51153 46.0389L5.55797 41.4769ZM17.4645 14.9342L19.5109 10.3721L14.5126 10.503L12.4662 15.0651L17.4645 14.9342ZM35.1594 15.6235L31.0206 19.7215L31.0206 19.7215L35.1594 15.6235ZM37.4657 18.8036L42.8145 16.3933L42.8145 16.3933L37.4657 18.8036ZM32.993 28.6805L29.7875 26.4203L29.7776 26.4293L29.7678 26.4383L32.993 28.6805ZM27.6747 31.9961L27.2943 27.9645L27.2821 27.9693L27.6747 31.9961ZM13.8638 33.4721L8.86551 33.603L6.81908 38.165L11.8174 38.0341L13.8638 33.4721ZM16.3753 27.8732L18.4218 23.3112L13.4235 23.4421L11.377 28.0041L16.3753 27.8732ZM24.8514 27.2158L25.225 31.2501L25.2407 31.2439L25.2563 31.2377L24.8514 27.2158ZM26.9463 25.8929L23.6933 23.6764L23.6682 23.6996L23.6434 23.7229L26.9463 25.8929ZM28.6963 21.9919L23.35 24.4151L23.3572 24.4515L23.3653 24.4874L28.6963 21.9919ZM27.735 20.7875L23.6901 24.9375L23.721 24.954L23.7526 24.9698L27.735 20.7875ZM22.7782 20.4818L24.8246 15.9198L19.8263 16.0507L17.7799 20.6127L22.7782 20.4818ZM13.453 41.2702L11.4066 45.8322L16.4048 45.7013L18.4513 41.1393L13.453 41.2702ZM10.5563 41.346L22.4628 14.8033L12.4662 15.0651L0.559679 41.6078L10.5563 41.346ZM15.418 19.4962L27.9706 19.1675L32.0634 10.0434L19.5109 10.3721L15.418 19.4962ZM27.9706 19.1675C29.4635 19.1284 30.4069 19.3662 31.0206 19.7215L39.2983 11.5256C37.3721 10.4104 34.8872 9.9695 32.0634 10.0434L27.9706 19.1675ZM31.0206 19.7215C31.6568 20.0899 31.9932 20.5738 32.1168 21.2138L42.8145 16.3933C42.4031 14.2638 41.202 12.6277 39.2983 11.5256L31.0206 19.7215ZM32.1168 21.2138C32.2325 21.8124 32.1412 22.6334 31.6013 23.837L41.5979 23.5753C42.7478 21.0118 43.234 18.5644 42.8145 16.3933L32.1168 21.2138ZM31.6013 23.837C31.0603 25.0431 30.4168 25.8463 29.7875 26.4203L36.1985 30.9407C38.6727 28.6839 40.4335 26.1709 41.5979 23.5753L31.6013 23.837ZM29.7678 26.4383C29.0914 27.0589 28.3162 27.5588 27.2943 27.9645L28.0551 36.0278C31.0398 34.8428 33.8101 33.1323 36.2182 30.9226L29.7678 26.4383ZM27.2821 27.9693C26.269 28.3733 25.0016 28.672 23.4077 28.7137L19.3148 37.8378C22.1512 37.7635 25.0928 37.2091 28.0673 36.0229L27.2821 27.9693ZM23.4077 28.7137L15.9102 28.9101L11.8174 38.0341L19.3148 37.8378L23.4077 28.7137ZM18.8621 33.3412L21.3736 27.7423L11.377 28.0041L8.86551 33.603L18.8621 33.3412ZM14.3289 32.4353L20.236 32.2806L24.3288 23.1565L18.4218 23.3112L14.3289 32.4353ZM20.236 32.2806C21.7262 32.2416 23.4196 31.9651 25.225 31.2501L24.4778 23.1815C24.5941 23.1354 24.6499 23.1263 24.6286 23.1304C24.6042 23.1352 24.5065 23.1519 24.3288 23.1565L20.236 32.2806ZM25.2563 31.2377C27.0437 30.5218 28.7645 29.458 30.2493 28.0629L23.6434 23.7229C23.7662 23.6075 23.9165 23.4897 24.0815 23.3856C24.2441 23.2829 24.3742 23.2229 24.4465 23.1939L25.2563 31.2377ZM30.1993 28.1095C31.7042 26.717 32.72 25.2223 33.3621 23.7909L23.3655 24.0527C23.3459 24.0965 23.3526 24.0701 23.4088 23.9919C23.4678 23.9099 23.5619 23.798 23.6933 23.6764L30.1993 28.1095ZM33.3621 23.7909C34.001 22.3666 34.3372 20.8626 34.0272 19.4963L23.3653 24.4874C23.3322 24.3416 23.339 24.2087 23.3549 24.1163C23.37 24.0286 23.3893 23.9996 23.3655 24.0527L33.3621 23.7909ZM34.0426 19.5687C33.7728 18.208 32.9406 17.2177 31.7174 16.6052L23.7526 24.9698C23.6928 24.9398 23.6004 24.8791 23.5153 24.7725C23.4289 24.6643 23.3746 24.5393 23.35 24.4151L34.0426 19.5687ZM31.78 16.6374C30.5807 16.0011 29.098 15.8079 27.6078 15.8469L23.5149 24.971C23.6926 24.9663 23.7775 24.9782 23.7981 24.9818C23.8162 24.9849 23.7673 24.9785 23.6901 24.9375L31.78 16.6374ZM27.6078 15.8469L24.8246 15.9198L20.7318 25.0438L23.5149 24.971L27.6078 15.8469ZM17.7799 20.6127L8.4547 41.401L18.4513 41.1393L27.7765 20.3509L17.7799 20.6127ZM15.4994 36.7081L7.6044 36.9149L3.51153 46.0389L11.4066 45.8322L15.4994 36.7081ZM31.9126 40.7868L26.9143 40.9177L24.8678 45.4797L29.8661 45.3488L31.9126 40.7868ZM40.8424 20.8797L42.8889 16.3177L37.8906 16.4486L35.8442 21.0106L40.8424 20.8797ZM48.4535 20.6804L53.4518 20.5495L55.4982 15.9875L50.4999 16.1184L48.4535 20.6804ZM46.7559 24.4648L41.7576 24.5957L39.7111 29.1578L44.7094 29.0269L46.7559 24.4648ZM46.9831 24.4589L44.9366 29.0209L48.8043 28.9196L51.3078 25.4771L46.9831 24.4589ZM50.2495 21.3378L48.6774 17.8846L48.6636 17.8926L48.6497 17.9006L50.2495 21.3378ZM54.7117 20.3372L51.8502 24.8558L51.923 24.866L51.9971 24.8739L54.7117 20.3372ZM55.6043 20.506L60.6026 20.3751L62.1208 16.9906L59.0123 16.1021L55.6043 20.506ZM52.866 26.6103L49.3142 30.9699L55.0031 32.8578L57.8643 26.4794L52.866 26.6103ZM51.554 26.3757L54.1658 21.8292L54.1658 21.8292L51.554 26.3757ZM47.8438 26.8571L48.5107 30.7691L48.5243 30.7631L48.538 30.757L47.8438 26.8571ZM45.8167 28.2166L49.1481 30.3597L49.162 30.3465L49.1758 30.3333L45.8167 28.2166ZM39.7508 40.5815L37.7044 45.1436L42.7026 45.0127L44.7491 40.4506L39.7508 40.5815ZM36.9109 40.6559L45.8407 20.7488L35.8442 21.0106L26.9143 40.9177L36.9109 40.6559ZM38.796 25.4418L46.407 25.2425L50.4999 16.1184L42.8889 16.3177L38.796 25.4418ZM43.4552 20.8113L41.7576 24.5957L51.7542 24.334L53.4518 20.5495L43.4552 20.8113ZM44.7094 29.0269L44.9366 29.0209L49.0295 19.8969L48.8023 19.9028L44.7094 29.0269ZM51.3078 25.4771C51.6038 25.0701 51.8182 24.8426 51.9261 24.7395C52.0258 24.6443 52.0008 24.6868 51.8492 24.7751L48.6497 17.9006C46.0381 19.4207 44.0897 21.4724 42.6583 23.4407L51.3078 25.4771ZM51.8215 24.7911C51.8288 24.7869 51.8186 24.7932 51.7935 24.8042C51.7681 24.8154 51.738 24.8267 51.707 24.8361C51.6761 24.8454 51.6554 24.8494 51.6482 24.8506C51.6414 24.8517 51.6555 24.8489 51.692 24.8479L55.7849 15.7238C53.5149 15.7833 51.0746 16.5002 48.6774 17.8846L51.8215 24.7911ZM51.692 24.8479C51.7537 24.8463 51.8051 24.8495 51.8502 24.8558L57.5733 15.8187C57.0022 15.7387 56.4048 15.7076 55.7849 15.7238L51.692 24.8479ZM51.9971 24.8739C52.0883 24.8836 52.1523 24.8974 52.1963 24.9099L59.0123 16.1021C58.509 15.9582 57.978 15.8594 57.4263 15.8006L51.9971 24.8739ZM50.606 20.6369L47.8677 26.7412L57.8643 26.4794L60.6026 20.3751L50.606 20.6369ZM56.4178 22.2507C55.7068 22.0148 54.9218 21.893 54.1658 21.8292L48.9421 30.9221C49.0955 30.9351 49.2006 30.9499 49.2665 30.9617C49.3338 30.9737 49.3437 30.9796 49.3142 30.9699L56.4178 22.2507ZM54.1658 21.8292C53.5089 21.7738 52.839 21.7439 52.1785 21.7612L48.0857 30.8853C48.2393 30.8813 48.5173 30.8863 48.9421 30.9221L54.1658 21.8292ZM52.1785 21.7612C50.6188 21.8021 48.9138 22.1763 47.1497 22.9571L48.538 30.757C48.4325 30.8037 48.3251 30.8394 48.2291 30.8619C48.1354 30.8837 48.0853 30.8853 48.0857 30.8853L52.1785 21.7612ZM47.177 22.9451C45.4164 23.7173 43.8153 24.8017 42.4575 26.0999L49.1758 30.3333C49.119 30.3876 49.0228 30.4698 48.8898 30.559C48.7557 30.6489 48.6237 30.7195 48.5107 30.7691L47.177 22.9451ZM42.4852 26.0735C41.0248 27.4577 40.0365 28.933 39.4035 30.3442L49.4001 30.0824C49.4273 30.0216 49.4307 30.0294 49.3885 30.089C49.3438 30.152 49.2651 30.2488 49.1481 30.3597L42.4852 26.0735ZM39.4035 30.3442L34.7525 40.7124L44.7491 40.4506L49.4001 30.0824L39.4035 30.3442ZM41.7972 36.0195L33.959 36.2247L29.8661 45.3488L37.7044 45.1436L41.7972 36.0195ZM52.8439 39.3293L48.6116 43.3707L48.6188 43.3753L48.626 43.3798L52.8439 39.3293ZM50.5836 35.8278L45.2092 38.0821L45.2105 38.0913L50.5836 35.8278ZM55.4032 25.0837L58.8492 27.1163L58.8588 27.1068L55.4032 25.0837ZM60.8959 21.3793L61.5369 25.3025L61.5484 25.2975L61.5599 25.2925L60.8959 21.3793ZM73.0508 21.061L68.8185 25.1024L68.8257 25.107L68.8329 25.1115L73.0508 21.061ZM75.3111 24.5624L69.9367 26.8167L69.938 26.8259L75.3111 24.5624ZM70.4915 35.3065L73.9375 37.3391L73.9472 37.3296L70.4915 35.3065ZM64.9988 39.011L65.6398 42.9343L65.6513 42.9293L65.6628 42.9242L64.9988 39.011ZM62.766 34.5098L64.6484 37.7758L64.6484 37.7758L62.766 34.5098ZM64.6668 32.7437L68.7978 34.0168L68.7978 34.0168L64.6668 32.7437ZM67.0737 27.3782L61.6888 28.9004L61.6881 28.9077L61.6874 28.915L67.0737 27.3782ZM66.7309 25.6709L71.623 22.2275L71.623 22.2275L66.7309 25.6709ZM61.2802 27.5299L65.3994 28.8178L65.4053 28.8104L65.4112 28.8029L61.2802 27.5299ZM58.8733 32.8954L64.2582 31.3732L64.2582 31.3732L58.8733 32.8954ZM60.3922 35.8912C58.6843 35.9359 57.6725 35.6595 57.0618 35.2788L48.626 43.3798C50.6179 44.6216 53.2741 45.0945 56.2993 45.0153L60.3922 35.8912ZM57.0762 35.2878C56.411 34.8675 56.0602 34.3129 55.9567 33.5644L45.2105 38.0913C45.5258 40.3716 46.6818 42.1513 48.6116 43.3707L57.0762 35.2878ZM55.958 33.5736C55.8533 32.7984 56.0102 31.7703 56.6456 30.3537L46.649 30.6155C45.4551 33.2772 44.9027 35.8112 45.2092 38.0821L55.958 33.5736ZM56.6456 30.3537C57.2813 28.9365 58.0504 27.9011 58.8492 27.1163L51.9571 23.0512C49.5775 25.3894 47.8426 27.9546 46.649 30.6155L56.6456 30.3537ZM58.8588 27.1068C59.6461 26.3309 60.4981 25.7542 61.5369 25.3025L60.2548 17.456C57.1562 18.8033 54.3464 20.6963 51.9475 23.0607L58.8588 27.1068ZM61.5599 25.2925C62.5278 24.8684 63.8081 24.5306 65.5083 24.4861L69.6011 15.3621C66.5681 15.4415 63.4092 16.0738 60.2319 17.466L61.5599 25.2925ZM65.5083 24.4861C67.2084 24.4416 68.2126 24.7195 68.8185 25.1024L77.2831 17.0195C75.2941 15.7626 72.6342 15.2826 69.6011 15.3621L65.5083 24.4861ZM68.8329 25.1115C69.4864 25.5188 69.8352 26.0641 69.9367 26.8167L80.6855 22.3082C80.376 20.0147 79.2179 18.2256 77.2687 17.0105L68.8329 25.1115ZM69.938 26.8259C70.0432 27.5871 69.8907 28.6063 69.2549 30.0236L79.2515 29.7618C80.4451 27.1009 80.9978 24.5666 80.6842 22.2989L69.938 26.8259ZM69.2549 30.0236C68.6195 31.4401 67.8467 32.4844 67.0359 33.2835L73.9472 37.3296C76.3226 34.9884 78.0575 32.4234 79.2515 29.7618L69.2549 30.0236ZM67.0455 33.274C66.26 34.0458 65.3974 34.6322 64.3348 35.0978L65.6628 42.9242C68.7454 41.5735 71.5447 39.6902 73.9375 37.3391L67.0455 33.274ZM64.3578 35.0877C63.3869 35.5099 62.1002 35.8465 60.3922 35.8912L56.2993 45.0153C59.3246 44.936 62.4733 44.3111 65.6398 42.9343L64.3578 35.0877ZM58.7281 39.726C60.6329 39.6761 62.6991 39.0033 64.6484 37.7758L60.8836 31.2438C61.1404 31.082 61.4785 30.91 61.8672 30.7823C62.255 30.6549 62.5822 30.6081 62.821 30.6019L58.7281 39.726ZM64.6484 37.7758C66.4214 36.6593 67.78 35.2988 68.7978 34.0168L60.5358 31.4707C60.349 31.7059 60.4405 31.5228 60.8836 31.2438L64.6484 37.7758ZM68.7978 34.0168C69.8549 32.6852 70.6508 31.2914 71.2661 29.9197L61.2695 30.1814C60.9547 30.8834 60.6832 31.285 60.5358 31.4707L68.7978 34.0168ZM71.2661 29.9197C71.8823 28.546 72.3384 27.1527 72.46 25.8414L61.6874 28.915C61.6725 29.0759 61.5913 29.4642 61.2695 30.1814L71.2661 29.9197ZM72.4586 25.8559C72.5805 24.5974 72.4246 23.2765 71.623 22.2275L61.8388 29.1143C61.6385 28.8521 61.7112 28.6695 61.6888 28.9004L72.4586 25.8559ZM71.623 22.2275C70.7418 21.0741 69.2372 20.4948 67.3325 20.5447L63.2396 29.6688C63.0008 29.675 62.7083 29.6445 62.4269 29.5346C62.1449 29.4245 61.955 29.2663 61.8388 29.1143L71.623 22.2275ZM67.3325 20.5447C65.4695 20.5935 63.4141 21.2169 61.4242 22.4367L64.9946 29.0895C64.734 29.2493 64.4111 29.4057 64.057 29.5176C63.7069 29.6283 63.4264 29.6639 63.2396 29.6688L67.3325 20.5447ZM61.4242 22.4367C59.5991 23.5555 58.1973 24.9366 57.1492 26.2568L65.4112 28.8029C65.5676 28.6059 65.452 28.8091 64.9946 29.0895L61.4242 22.4367ZM57.161 26.242C56.0951 27.5781 55.2971 28.9803 54.6809 30.354L64.6775 30.0922C64.9992 29.375 65.2686 28.9817 65.3994 28.8178L57.161 26.242ZM54.6809 30.354C54.0656 31.7257 53.615 33.1105 53.4884 34.4177L64.2582 31.3732C64.2759 31.1909 64.3626 30.7941 64.6775 30.0922L54.6809 30.354ZM53.4884 34.4177C53.3629 35.7138 53.5442 37.0534 54.397 38.1021L64.0919 31.1019C64.3056 31.3647 64.2395 31.5666 64.2582 31.3732L53.4884 34.4177ZM54.397 38.1021C55.3268 39.2454 56.8652 39.7747 58.7281 39.726L62.821 30.6019C63.0078 30.597 63.2626 30.6186 63.5207 30.7133C63.7815 30.8091 63.9701 30.9522 64.0919 31.1019L54.397 38.1021ZM76.9827 38.7612L72.592 42.6947L72.5971 42.6984L72.6023 42.7022L76.9827 38.7612ZM75.3761 35.4604L69.9818 37.5146L69.9824 37.5241L69.9831 37.5336L75.3761 35.4604ZM80.6246 23.8854L77.0692 21.9622L77.0598 21.9718L77.0505 21.9813L80.6246 23.8854ZM85.2878 20.4972L84.5225 16.6291L84.514 16.6329L84.5055 16.6368L85.2878 20.4972ZM92.484 19.7836L88.5205 23.9753L88.5381 23.984L88.5559 23.9924L92.484 19.7836ZM93.9183 21.0909L88.8129 24.2007L88.8196 24.2133L88.8264 24.2259L93.9183 21.0909ZM94.3365 22.9115L88.9368 24.6713L88.8573 27.5634L92.2901 27.4735L94.3365 22.9115ZM94.4501 22.9085L92.4037 27.4706L97.402 27.3397L99.4484 22.7776L94.4501 22.9085ZM98.9848 12.7995L101.031 8.23745L96.033 8.36834L93.9865 12.9304L98.9848 12.7995ZM106.823 12.5942L111.821 12.4633L113.868 7.90132L108.869 8.0322L106.823 12.5942ZM94.9165 39.137L92.8701 43.699L97.8684 43.5681L99.9148 39.0061L94.9165 39.137ZM87.1351 39.3407L82.1368 39.4716L80.0904 44.0336L85.0887 43.9027L87.1351 39.3407ZM88.6002 36.0747L93.5985 35.9438L95.6449 31.3818L90.6466 31.5127L88.6002 36.0747ZM88.4298 36.0792L90.4762 31.5172L87.1242 31.6049L84.5823 34.4687L88.4298 36.0792ZM86.3095 37.9278L84.1408 34.8494L84.1395 34.8503L86.3095 37.9278ZM83.7008 39.2385L83.7342 43.3993L83.75 43.3938L83.7657 43.3883L83.7008 39.2385ZM88.2345 33.5739L89.8053 37.0279L89.8157 37.0218L88.2345 33.5739ZM90.1598 31.9097L86.1689 30.4652L86.1563 30.4802L86.1438 30.4952L90.1598 31.9097ZM92.4213 26.8681L87.0267 28.5126L87.0248 28.544L87.0234 28.5753L92.4213 26.8681ZM91.9553 25.2793L87.2115 28.8986L87.2376 28.9267L87.2645 28.9539L91.9553 25.2793ZM88.2634 25.376L89.8233 28.8362L89.8342 28.83L88.2634 25.376ZM86.3723 27.0265L82.3423 25.6288L82.3295 25.6443L82.3169 25.6598L86.3723 27.0265ZM84.0991 32.094L78.7077 33.6921L78.7053 33.7236L78.7035 33.755L84.0991 32.094ZM84.5368 33.6835L79.7695 37.2772L79.7954 37.3059L79.8223 37.3339L84.5368 33.6835ZM82.8174 35.2015C82.191 35.2179 81.7399 35.0949 81.363 34.8203L72.6023 42.7022C74.1715 43.8453 76.246 44.3905 78.7245 44.3256L82.8174 35.2015ZM81.3733 34.8278C81.1178 34.6398 80.832 34.259 80.7692 33.3872L69.9831 37.5336C70.1352 39.6447 70.9203 41.4645 72.592 42.6947L81.3733 34.8278ZM80.7705 33.4062C80.7236 32.6928 80.9367 31.5108 81.7739 29.6445L71.7773 29.9063C70.5526 32.6366 69.8326 35.2445 69.9818 37.5146L80.7705 33.4062ZM81.7739 29.6445C82.6634 27.6615 83.5421 26.4619 84.1987 25.7894L77.0505 21.9813C74.73 24.3582 73.0427 27.0854 71.7773 29.9063L81.7739 29.6445ZM84.18 25.8085C85.0707 24.9018 85.6953 24.5283 86.0701 24.3576L84.5055 16.6368C81.6586 17.9337 79.1744 19.819 77.0692 21.9622L84.18 25.8085ZM86.053 24.3653C86.7741 24.0386 87.3284 23.9147 87.8302 23.9016L91.923 14.7775C89.547 14.8398 87.0421 15.4876 84.5225 16.6291L86.053 24.3653ZM87.8302 23.9016C88.3259 23.8886 88.4929 23.9617 88.5205 23.9753L96.4475 15.5919C95.1569 14.9569 93.5857 14.734 91.923 14.7775L87.8302 23.9016ZM88.5559 23.9924C88.7328 24.0767 88.788 24.1535 88.8129 24.2007L99.0237 17.9811C98.4621 16.9166 97.5611 16.1219 96.4121 15.5748L88.5559 23.9924ZM88.8264 24.2259C88.9154 24.3897 88.9405 24.5349 88.9368 24.6713L99.7363 21.1517C99.7692 19.9551 99.5155 18.8865 99.0102 17.9559L88.8264 24.2259ZM92.2901 27.4735L92.4037 27.4706L96.4965 18.3465L96.3829 18.3495L92.2901 27.4735ZM99.4484 22.7776L103.983 12.6686L93.9865 12.9304L89.4518 23.0394L99.4484 22.7776ZM96.9384 17.3615L104.777 17.1563L108.869 8.0322L101.031 8.23745L96.9384 17.3615ZM101.825 12.7251L89.9182 39.2678L99.9148 39.0061L111.821 12.4633L101.825 12.7251ZM96.963 34.5749L89.1815 34.7787L85.0887 43.9027L92.8701 43.699L96.963 34.5749ZM92.1334 39.2098L93.5985 35.9438L83.6019 36.2056L82.1368 39.4716L92.1334 39.2098ZM90.6466 31.5127L90.4762 31.5172L86.3833 40.6412L86.5537 40.6368L90.6466 31.5127ZM84.5823 34.4687C84.4695 34.5957 84.3362 34.7163 84.1408 34.8494L88.4781 41.0063C89.8994 40.0382 91.1795 38.9264 92.2773 37.6896L84.5823 34.4687ZM84.1395 34.8503C84.0649 34.9011 83.9191 34.9892 83.6359 35.0888L83.7657 43.3883C85.3708 42.8237 86.9642 42.0379 88.4795 41.0054L84.1395 34.8503ZM83.6674 35.0778C83.5697 35.1117 83.3009 35.1888 82.8174 35.2015L78.7245 44.3256C80.2858 44.2847 81.9702 44.0118 83.7342 43.3993L83.6674 35.0778ZM84.0863 38.7545C85.8441 38.7085 87.8234 38.172 89.8053 37.0279L86.6637 30.1199C86.9305 29.9659 87.2304 29.8337 87.5337 29.7445C87.8308 29.657 88.0521 29.6338 88.1792 29.6305L84.0863 38.7545ZM89.8157 37.0218C91.6282 35.9725 93.0701 34.6527 94.1758 33.3242L86.1438 30.4952C86.1047 30.5421 86.124 30.5117 86.2134 30.4344C86.3075 30.3531 86.4559 30.2402 86.6532 30.126L89.8157 37.0218ZM94.1507 33.3542C95.2805 32.0102 96.1025 30.6118 96.7119 29.2533L86.7154 29.5151C86.4566 30.092 86.2428 30.3773 86.1689 30.4652L94.1507 33.3542ZM96.7119 29.2533C97.3232 27.8907 97.7619 26.487 97.8192 25.1609L87.0234 28.5753C87.0209 28.6341 86.9878 28.9078 86.7154 29.5151L96.7119 29.2533ZM97.8159 25.2236C97.897 23.9107 97.6218 22.5912 96.646 21.6047L87.2645 28.9539C86.9967 28.6832 87.0323 28.4229 87.0267 28.5126L97.8159 25.2236ZM96.699 21.66C95.7087 20.5937 94.1694 20.1493 92.4116 20.1954L88.3187 29.3194C88.1916 29.3228 87.9861 29.3107 87.7614 29.2369C87.5319 29.1616 87.3449 29.0422 87.2115 28.8986L96.699 21.66ZM92.4116 20.1954C90.6537 20.2414 88.6744 20.7779 86.6925 21.922L89.8342 28.83C89.5673 28.984 89.2675 29.1162 88.9641 29.2054C88.6671 29.2929 88.4457 29.3161 88.3187 29.3194L92.4116 20.1954ZM86.7034 21.9158C84.8537 22.9803 83.4178 24.3295 82.3423 25.6288L90.4022 28.4242C90.5115 28.2922 90.3363 28.541 89.8233 28.8362L86.7034 21.9158ZM82.3169 25.6598C81.2346 26.9809 80.4416 28.36 79.8427 29.6951L89.8393 29.4333C90.1241 28.7985 90.352 28.4857 90.4277 28.3933L82.3169 25.6598ZM79.8427 29.6951C79.2428 31.0326 78.8049 32.3987 78.7077 33.6921L89.4905 30.4959C89.4988 30.3862 89.5556 30.0658 89.8393 29.4333L79.8427 29.6951ZM78.7035 33.755C78.6315 35.0212 78.8833 36.2951 79.7695 37.2772L89.304 30.0899C89.5278 30.3379 89.4879 30.5521 89.4947 30.433L78.7035 33.755ZM79.8223 37.3339C80.8242 38.3754 82.3572 38.7998 84.0863 38.7545L88.1792 29.6305C88.2946 29.6275 88.4895 29.6378 88.7067 29.7071C88.9288 29.7779 89.1152 29.8918 89.2512 30.0332L79.8223 37.3339ZM116.814 29.9565L111.816 30.0874L111.803 30.1174L111.79 30.1474L116.814 29.9565ZM121.837 18.7588L123.884 14.1968L118.886 14.3277L116.839 18.8897L121.837 18.7588ZM129.676 18.5536L134.674 18.4227L136.72 13.8606L131.722 13.9915L129.676 18.5536ZM120.746 38.4606L118.699 43.0226L123.698 42.8917L125.744 38.3297L120.746 38.4606ZM113.305 38.6554L108.307 38.7863L106.26 43.3483L111.259 43.2175L113.305 38.6554ZM115.003 34.871L120.001 34.7401L122.047 30.1781L117.049 30.309L115.003 34.871ZM114.776 34.877L116.822 30.3149L113.243 30.4087L110.702 33.5318L114.776 34.877ZM110.953 37.9229L111.984 41.6656L111.999 41.6584L112.013 41.651L110.953 37.9229ZM102.685 38.2419L98.3199 42.1937L98.3258 42.1979L98.3317 42.2021L102.685 38.2419ZM101.216 35.6675L95.8328 37.8494L95.8341 37.8616L95.8355 37.8738L101.216 35.6675ZM101.997 31.8303L96.9988 31.9611L96.9927 31.9747L96.9867 31.9883L101.997 31.8303ZM107.695 19.1291L109.741 14.5671L104.743 14.698L102.696 19.26L107.695 19.1291ZM115.533 18.9239L120.531 18.793L122.577 14.231L117.579 14.3619L115.533 18.9239ZM110.51 30.1216L105.511 30.2525L105.502 30.2725L105.494 30.2925L110.51 30.1216ZM110.293 32.4199L105.185 35.5262L105.193 35.5406L105.201 35.5549L110.293 32.4199ZM114.073 32.782L114.811 36.6627L114.827 36.6553L114.844 36.6478L114.073 32.782ZM115.669 31.6644L112.144 29.7113L112.129 29.7262L112.114 29.7412L115.669 31.6644ZM121.813 29.8256L126.836 18.6279L116.839 18.8897L111.816 30.0874L121.813 29.8256ZM119.791 23.3208L127.629 23.1156L131.722 13.9915L123.884 14.1968L119.791 23.3208ZM124.677 18.6844L115.747 38.5915L125.744 38.3297L134.674 18.4227L124.677 18.6844ZM122.792 33.8986L115.352 34.0934L111.259 43.2175L118.699 43.0226L122.792 33.8986ZM118.303 38.5245L120.001 34.7401L110.004 35.0019L108.307 38.7863L118.303 38.5245ZM117.049 30.309L116.822 30.3149L112.729 39.439L112.956 39.4331L117.049 30.309ZM110.702 33.5318C110.414 33.887 110.185 34.0497 109.893 34.1948L112.013 41.651C114.732 40.2999 117.051 38.432 118.849 36.2221L110.702 33.5318ZM109.923 34.1802C109.604 34.3373 109.11 34.513 108.306 34.5341L104.213 43.6581C106.665 43.5939 109.301 42.9875 111.984 41.6656L109.923 34.1802ZM108.306 34.5341C107.575 34.5532 107.233 34.4192 107.039 34.2817L98.3317 42.2021C99.8552 43.2833 101.896 43.7188 104.213 43.6581L108.306 34.5341ZM107.051 34.2901C106.802 34.1117 106.645 33.8696 106.596 33.4612L95.8355 37.8738C96.0482 39.6787 96.87 41.1528 98.3199 42.1937L107.051 34.2901ZM106.599 33.4856C106.556 33.0898 106.631 32.5233 107.007 31.6722L96.9867 31.9883C96.0796 34.0399 95.6341 36.0315 95.8328 37.8494L106.599 33.4856ZM106.995 31.6994L112.693 18.9983L102.696 19.26L96.9988 31.9611L106.995 31.6994ZM105.648 23.6912L113.486 23.4859L117.579 14.3619L109.741 14.5671L105.648 23.6912ZM110.534 19.0548L105.511 30.2525L115.508 29.9907L120.531 18.793L110.534 19.0548ZM105.494 30.2925C104.737 32.0165 104.358 33.9519 105.185 35.5262L115.4 29.3137C115.515 29.5335 115.531 29.7544 115.517 29.904C115.504 30.0394 115.472 30.0739 115.526 29.9507L105.494 30.2925ZM105.201 35.5549C106.11 37.2305 108.061 37.8193 110.169 37.7642L114.262 28.6401C114.287 28.6394 114.497 28.6378 114.757 28.7432C115.033 28.8557 115.255 29.046 115.385 29.2849L105.201 35.5549ZM110.169 37.7642C111.531 37.7285 113.115 37.4242 114.811 36.6627L113.336 28.9014C113.861 28.6658 114.205 28.6416 114.262 28.6401L110.169 37.7642ZM114.844 36.6478C116.497 35.8974 117.992 34.8429 119.225 33.5875L112.114 29.7412C112.247 29.6054 112.427 29.4474 112.651 29.2904C112.876 29.1328 113.101 29.0081 113.303 28.9162L114.844 36.6478ZM119.195 33.6174C120.473 32.3289 121.306 30.9927 121.839 29.7656L111.79 30.1474C111.752 30.2331 111.822 30.0355 112.144 29.7113L119.195 33.6174ZM129.575 37.32L125.343 41.3615L125.35 41.366L125.357 41.3705L129.575 37.32ZM127.315 33.8186L121.941 36.0728L121.942 36.082L127.315 33.8186ZM132.135 23.0745L135.581 25.107L135.59 25.0975L132.135 23.0745ZM137.627 19.37L138.268 23.2932L138.28 23.2882L138.291 23.2832L137.627 19.37ZM149.362 18.8322L145.305 22.9758L145.317 22.9827L145.331 22.9895L149.362 18.8322ZM151.674 21.7175L146.341 24.207L146.343 24.2127L146.344 24.2184L151.674 21.7175ZM150.957 26.1935L148.91 30.7555L153.934 30.6239L155.965 26.0398L150.957 26.1935ZM143.687 26.3838L138.524 26.9272L137.076 31.0654L141.64 30.9459L143.687 26.3838ZM143.762 24.0252L138.685 27.1856L138.7 27.2126L138.715 27.2391L143.762 24.0252ZM139.971 23.8427L141.364 27.3969L141.394 27.3803L141.425 27.3634L139.971 23.8427ZM138.052 25.4939L142.057 26.9216L142.064 26.9133L142.071 26.905L138.052 25.4939ZM135.616 30.9243L130.22 32.5819L130.22 32.59L130.22 32.5981L135.616 30.9243ZM136.082 32.5131L131.398 36.1945L131.413 36.2102L131.429 36.2257L136.082 32.5131ZM139.329 32.5946L140.129 36.4468L140.171 36.4278L140.212 36.4083L139.329 32.5946ZM140.897 31.4777L137.457 29.4387L137.443 29.4522L137.43 29.4657L140.897 31.4777ZM142.198 29.7017L144.245 25.1396L139.607 25.2611L137.367 29.491L142.198 29.7017ZM149.469 29.5113L154.436 29.4478L156.588 24.8164L151.515 24.9493L149.469 29.5113ZM146.09 34.1338L149.323 36.3687L149.329 36.3629L149.336 36.3571L146.09 34.1338ZM141.12 37.2354L140.728 33.2083L140.715 33.2136L141.12 37.2354ZM137.124 33.8819C135.416 33.9266 134.404 33.6503 133.793 33.2695L125.357 41.3705C127.349 42.6123 130.006 43.0852 133.031 43.006L137.124 33.8819ZM133.808 33.2786C133.143 32.8582 132.792 32.3036 132.688 31.5551L121.942 36.082C122.257 38.3623 123.413 40.142 125.343 41.3615L133.808 33.2786ZM132.689 31.5643C132.585 30.7891 132.742 29.761 133.377 28.3445L123.381 28.6062C122.187 31.2679 121.634 33.8019 121.941 36.0728L132.689 31.5643ZM133.377 28.3445C134.013 26.9272 134.782 25.8918 135.581 25.107L128.689 21.0419C126.309 23.3801 124.574 25.9453 123.381 28.6062L133.377 28.3445ZM135.59 25.0975C136.378 24.3216 137.23 23.7449 138.268 23.2932L136.986 15.4467C133.888 16.7941 131.078 18.687 128.679 21.0514L135.59 25.0975ZM138.291 23.2832C139.259 22.8591 140.54 22.5213 142.24 22.4768L146.333 13.3528C143.3 13.4322 140.141 14.0645 136.963 15.4567L138.291 23.2832ZM142.24 22.4768C143.779 22.4365 144.722 22.663 145.305 22.9758L153.419 14.6886C151.513 13.6661 149.072 13.281 146.333 13.3528L142.24 22.4768ZM145.331 22.9895C145.944 23.3108 146.231 23.7151 146.341 24.207L157.006 19.228C156.549 17.1902 155.294 15.671 153.393 14.6748L145.331 22.9895ZM146.344 24.2184C146.449 24.6747 146.401 25.3265 145.948 26.3471L155.965 26.0398C157.044 23.6049 157.475 21.2726 157.003 19.2165L146.344 24.2184ZM153.003 21.6314L145.733 21.8218L141.64 30.9459L148.91 30.7555L153.003 21.6314ZM148.85 25.8405C149.427 24.1911 149.696 22.3054 148.81 20.8112L138.715 27.2391C138.59 27.0273 138.577 26.8357 138.58 26.7566C138.582 26.6881 138.594 26.7262 138.524 26.9272L148.85 25.8405ZM148.84 20.8647C147.983 19.3305 146.229 18.6324 144.051 18.6894L139.958 27.8135C139.806 27.8175 139.534 27.7987 139.253 27.6752C138.967 27.549 138.784 27.3628 138.685 27.1856L148.84 20.8647ZM144.051 18.6894C142.321 18.7348 140.412 19.2644 138.518 20.322L141.425 27.3634C141.19 27.4944 140.915 27.6147 140.624 27.6992C140.337 27.7827 140.109 27.8095 139.958 27.8135L144.051 18.6894ZM138.579 20.2884C136.621 21.3622 135.126 22.7682 134.033 24.0828L142.071 26.905C142.197 26.7532 141.981 27.0584 141.364 27.3969L138.579 20.2884ZM134.047 24.0663C132.883 25.4583 132.045 26.9345 131.412 28.3447L141.409 28.0829C141.753 27.3157 142.009 26.9787 142.057 26.9216L134.047 24.0663ZM131.412 28.3447C130.778 29.7578 130.299 31.2204 130.22 32.5819L141.011 29.2667C141.016 29.1915 141.066 28.8471 141.409 28.0829L131.412 28.3447ZM130.22 32.5981C130.151 33.8805 130.414 35.2071 131.398 36.1945L140.766 28.8317C141.053 29.1201 141.005 29.3875 141.012 29.2505L130.22 32.5981ZM131.429 36.2257C132.419 37.1834 133.885 37.6042 135.586 37.5597L139.679 28.4356C139.818 28.432 140.016 28.4455 140.226 28.5112C140.44 28.5779 140.611 28.6811 140.734 28.8005L131.429 36.2257ZM135.586 37.5597C136.958 37.5237 138.506 37.1907 140.129 36.4468L138.529 28.7423C139.045 28.5057 139.462 28.4413 139.679 28.4356L135.586 37.5597ZM140.212 36.4083C141.837 35.644 143.231 34.6097 144.363 33.4897L137.43 29.4657C137.587 29.3104 137.936 29.0208 138.446 28.7809L140.212 36.4083ZM144.336 33.5166C145.549 32.327 146.411 31.0795 147.03 29.9123L137.367 29.491C137.312 29.5958 137.281 29.6358 137.29 29.6243C137.299 29.6112 137.351 29.5425 137.457 29.4387L144.336 33.5166ZM140.152 34.2637L147.422 34.0733L151.515 24.9493L144.245 25.1396L140.152 34.2637ZM144.501 29.5747C143.999 30.6552 143.415 31.384 142.844 31.9106L149.336 36.3571C151.64 34.2297 153.308 31.8768 154.436 29.4478L144.501 29.5747ZM142.857 31.8989C142.295 32.4157 141.637 32.8462 140.728 33.2083L141.512 41.2625C144.363 40.1259 147.018 38.4886 149.323 36.3687L142.857 31.8989ZM140.715 33.2136C139.86 33.5562 138.691 33.8409 137.124 33.8819L133.031 43.006C135.78 42.934 138.64 42.4129 141.525 41.2573L140.715 33.2136ZM157.375 17.0085L152.377 17.1394L150.33 21.7014L155.329 21.5705L157.375 17.0085ZM159.98 11.2023L162.026 6.64025L157.028 6.77114L154.981 11.3332L159.98 11.2023ZM185.255 10.5404L190.253 10.4095L192.3 5.84751L187.301 5.97839L185.255 10.5404ZM182.65 16.3466L180.604 20.9087L185.602 20.7778L187.649 16.2158L182.65 16.3466ZM173.903 16.5757L175.95 12.0137L170.952 12.1445L168.905 16.7066L173.903 16.5757ZM164.601 37.3122L162.555 41.8742L167.553 41.7433L169.6 37.1813L164.601 37.3122ZM156.82 37.516L151.822 37.6468L149.775 42.2089L154.774 42.078L156.82 37.516ZM166.122 16.7795L171.12 16.6486L173.167 12.0865L168.168 12.2174L166.122 16.7795ZM162.373 16.8776L164.978 11.0714L154.981 11.3332L152.377 17.1394L162.373 16.8776ZM157.933 15.7643L183.209 15.1025L187.301 5.97839L162.026 6.64025L157.933 15.7643ZM180.257 10.6713L177.652 16.4775L187.649 16.2158L190.253 10.4095L180.257 10.6713ZM184.697 11.7846L175.95 12.0137L171.857 21.1377L180.604 20.9087L184.697 11.7846ZM168.905 16.7066L159.603 37.4431L169.6 37.1813L178.902 16.4448L168.905 16.7066ZM166.648 32.7502L158.866 32.9539L154.774 42.078L162.555 41.8742L166.648 32.7502ZM161.818 37.3851L171.12 16.6486L161.124 16.9103L151.822 37.6468L161.818 37.3851ZM168.168 12.2174L159.421 12.4465L155.329 21.5705L164.076 21.3415L168.168 12.2174ZM176.32 37.0053L171.321 37.1362L169.275 41.6983L174.273 41.5674L176.32 37.0053ZM188.226 10.4626L190.273 5.90059L185.274 6.03147L183.228 10.5935L188.226 10.4626ZM205.962 11.0613L201.938 15.2225L205.962 11.0613ZM208.35 14.0599L213.683 11.5753L213.683 11.5753L208.35 14.0599ZM203.976 23.7164L200.897 21.3426L200.887 21.3517L200.876 21.3609L203.976 23.7164ZM198.774 26.7729L198.645 22.6458L198.634 22.6499L198.774 26.7729ZM185.021 28.1192L180.023 28.2501L177.976 32.8121L182.974 32.6813L185.021 28.1192ZM187.532 22.5204L189.579 17.9583L184.581 18.0892L182.534 22.6513L187.532 22.5204ZM195.95 21.9925L195.66 26.2584L195.682 26.2517L195.704 26.2448L195.95 21.9925ZM197.929 20.9289L195.019 18.4105L194.991 18.4343L194.962 18.4583L197.929 20.9289ZM199.58 17.2482L194.282 19.8722L194.293 19.9109L194.305 19.9491L199.58 17.2482ZM198.537 16.2252L194.81 20.5213L194.844 20.5346L194.879 20.5473L198.537 16.2252ZM193.54 16.0103L195.586 11.4482L190.588 11.5791L188.542 16.1411L193.54 16.0103ZM184.215 36.7986L182.168 41.3606L187.167 41.2297L189.213 36.6677L184.215 36.7986ZM198.824 24.3764L204.193 22.0794L203.84 19.7367L200.871 19.8144L198.824 24.3764ZM200.63 36.3688L198.583 40.9308L206.997 40.7105L205.998 34.0717L200.63 36.3688ZM192.053 36.5933L186.679 38.8513L187.004 41.234L190.007 41.1554L192.053 36.5933ZM190.418 24.5966L192.464 20.0345L184.144 20.2524L185.044 26.8545L190.418 24.5966ZM181.318 36.8745L193.225 10.3317L183.228 10.5935L171.321 37.1362L181.318 36.8745ZM186.18 15.0246L198.732 14.6959L202.825 5.57189L190.273 5.90059L186.18 15.0246ZM198.732 14.6959C200.284 14.6553 201.284 14.8823 201.938 15.2225L209.985 6.89999C208.045 5.89068 205.591 5.49947 202.825 5.57189L198.732 14.6959ZM201.938 15.2225C202.573 15.5529 202.892 15.9859 203.016 16.5445L213.683 11.5753C213.218 9.48524 211.944 7.91909 209.985 6.89999L201.938 15.2225ZM203.016 16.5445C203.127 17.041 203.069 17.7928 202.526 19.0026L212.522 18.7408C213.67 16.1834 214.162 13.7274 213.683 11.5753L203.016 16.5445ZM202.526 19.0026C201.98 20.219 201.379 20.9192 200.897 21.3426L207.054 26.0902C209.598 23.8557 211.363 21.3261 212.522 18.7408L202.526 19.0026ZM200.876 21.3609C200.308 21.8636 199.623 22.2928 198.645 22.6458L198.902 30.9C201.853 29.8352 204.637 28.2266 207.075 26.072L200.876 21.3609ZM198.634 22.6499C197.575 23.0336 196.238 23.3171 194.565 23.3609L190.472 32.4849C193.229 32.4127 196.062 31.9295 198.914 30.8959L198.634 22.6499ZM194.565 23.3609L187.067 23.5572L182.974 32.6813L190.472 32.4849L194.565 23.3609ZM190.019 27.9883L192.531 22.3895L182.534 22.6513L180.023 28.2501L190.019 27.9883ZM185.486 27.0824L191.393 26.9277L195.486 17.8037L189.579 17.9583L185.486 27.0824ZM191.393 26.9277C192.701 26.8935 194.144 26.7144 195.66 26.2584L196.241 17.7267C196.265 17.7197 196.033 17.7893 195.486 17.8037L191.393 26.9277ZM195.704 26.2448C197.44 25.7114 199.259 24.7911 200.896 23.3995L194.962 18.4583C195.195 18.2609 195.447 18.0911 195.692 17.9593C195.931 17.8309 196.11 17.767 196.196 17.7403L195.704 26.2448ZM200.839 23.4473C202.602 21.9722 203.66 20.3526 204.287 18.9565L194.29 19.2182C194.242 19.3255 194.394 18.9336 195.019 18.4105L200.839 23.4473ZM204.287 18.9565C204.913 17.5593 205.301 15.9639 204.856 14.5473L194.305 19.9491C194.152 19.464 194.345 19.0947 194.29 19.2182L204.287 18.9565ZM204.878 14.6241C204.498 13.2684 203.502 12.3847 202.196 11.9031L194.879 20.5473C194.806 20.5206 194.68 20.4596 194.555 20.337C194.427 20.2116 194.332 20.0522 194.282 19.8722L204.878 14.6241ZM202.265 11.9292C201.099 11.4699 199.73 11.3397 198.37 11.3753L194.277 20.4994C194.771 20.4865 194.879 20.5481 194.81 20.5213L202.265 11.9292ZM198.37 11.3753L195.586 11.4482L191.494 20.5723L194.277 20.4994L198.37 11.3753ZM188.542 16.1411L179.216 36.9295L189.213 36.6677L198.538 15.8794L188.542 16.1411ZM186.261 32.2366L178.366 32.4433L174.273 41.5674L182.168 41.3606L186.261 32.2366ZM193.456 26.6735L195.261 38.6659L205.998 34.0717L204.193 22.0794L193.456 26.6735ZM202.676 31.8067L194.099 32.0313L190.007 41.1554L198.583 40.9308L202.676 31.8067ZM197.427 34.3354L195.792 22.3386L185.044 26.8545L186.679 38.8513L197.427 34.3354ZM188.372 29.1586L196.778 28.9385L200.871 19.8144L192.464 20.0345L188.372 29.1586ZM212.376 9.83022L214.423 5.26819L206.076 5.48677L207.004 12.0996L212.376 9.83022ZM221.18 9.59969L226.572 7.50503L226.369 4.95536L223.227 5.03766L221.18 9.59969ZM222.023 20.2339L216.632 22.3286L216.834 24.8783L219.977 24.796L222.023 20.2339ZM222.25 20.228L220.204 24.79L223.347 24.7077L225.868 22.0867L222.25 20.228ZM232.767 9.29627L234.814 4.73424L231.671 4.81654L229.149 7.43753L232.767 9.29627ZM241.571 9.06574L245.011 11.1043L251.965 4.28513L243.617 4.50371L241.571 9.06574ZM222.73 27.5416L219.29 25.503L218.246 26.5277L217.732 27.6725L222.73 27.5416ZM218.986 35.8881L216.94 40.4501L221.938 40.3192L223.985 35.7572L218.986 35.8881ZM211.148 36.0933L206.15 36.2242L204.103 40.7862L209.102 40.6554L211.148 36.0933ZM214.892 27.7469L219.89 27.616L220.404 26.4712L220.264 25.4775L214.892 27.7469ZM210.33 14.3923L219.134 14.1617L223.227 5.03766L214.423 5.26819L210.33 14.3923ZM215.789 11.6943L216.632 22.3286L227.414 18.1393L226.572 7.50503L215.789 11.6943ZM219.977 24.796L220.204 24.79L224.297 15.666L224.069 15.6719L219.977 24.796ZM225.868 22.0867L236.385 11.155L229.149 7.43753L218.632 18.3692L225.868 22.0867ZM230.721 13.8583L239.524 13.6278L243.617 4.50371L234.814 4.73424L230.721 13.8583ZM238.131 7.02714L219.29 25.503L226.17 29.5802L245.011 11.1043L238.131 7.02714ZM217.732 27.6725L213.988 36.019L223.985 35.7572L227.729 27.4107L217.732 27.6725ZM221.033 31.326L213.194 31.5313L209.102 40.6554L216.94 40.4501L221.033 31.326ZM216.146 35.9624L219.89 27.616L209.894 27.8778L206.15 36.2242L216.146 35.9624ZM220.264 25.4775L217.749 7.56088L207.004 12.0996L209.52 30.0162L220.264 25.4775Z" fill="black"/>
</svg>
