<svg width="107" height="108" viewBox="0 0 107 108" fill="none" xmlns="http://www.w3.org/2000/svg">
<path d="M85.4763 26.3452L85.4957 26.3597L85.5164 26.3722C85.7891 26.5378 86.1068 26.6722 86.5009 26.6722C87.0744 26.6722 87.5828 26.4108 87.9438 25.9282L87.9439 25.9282L87.9487 25.9215L100.242 8.91192L100.242 8.91197L100.247 8.90415C100.809 8.09514 100.626 7.01958 99.8641 6.44968L99.857 6.44435L99.8497 6.43928C99.0407 5.87775 97.9651 6.06052 97.3952 6.82225L97.3952 6.8222L97.39 6.82943L85.0985 23.8835L85.0984 23.8834L85.0933 23.8907C84.5318 24.6997 84.7146 25.7753 85.4763 26.3452Z" fill="black" stroke="black"/>
<path d="M51.4839 25.4017C51.4839 26.4143 52.3084 27.1716 53.2538 27.1716C54.2221 27.1716 55.0237 26.347 55.0237 25.3559V2.26993C55.0237 1.26868 54.2551 0.5 53.2538 0.5C52.2412 0.5 51.4839 1.32453 51.4839 2.26993V25.4017Z" fill="black" stroke="black"/>
<path d="M6.6892 6.44993L6.68919 6.44993L6.68809 6.45076C5.93682 7.01608 5.73633 8.13855 6.31374 8.91494L18.602 25.9644C18.6021 25.9646 18.6022 25.9647 18.6023 25.9649C18.9283 26.4199 19.4463 26.6724 20.0067 26.6724C20.3492 26.6724 20.7039 26.5424 21.0029 26.3914L21.0426 26.3714L21.0782 26.3446C21.8294 25.7793 22.0299 24.6569 21.4525 23.8805L9.16336 6.82968L9.16345 6.82962L9.15726 6.8214C8.59101 6.06887 7.46573 5.86896 6.6892 6.44993Z" fill="black" stroke="black"/>
<path d="M40.3744 40.2344H66.1821C67.1272 40.2344 67.952 39.4788 67.952 38.4645C67.952 37.4519 67.1275 36.6946 66.1821 36.6946H40.3744C39.3732 36.6946 38.6045 37.4633 38.6045 38.4645C38.6045 39.4771 39.429 40.2344 40.3744 40.2344Z" fill="black" stroke="black"/>
<path d="M34.4006 41.1388L34.4005 41.1388L34.3977 41.1492C34.1533 42.0703 34.6423 43.0342 35.5994 43.2982C35.8054 43.365 35.9612 43.365 36.0957 43.3649C36.0993 43.3649 36.1029 43.3649 36.1065 43.3649C36.8648 43.3649 37.5733 42.8612 37.7674 42.0848C38.0708 40.9926 39.1403 40.1899 40.2769 40.1899H40.3074C41.2888 40.2449 42.0926 39.4092 42.0926 38.4657C42.0926 37.5329 41.3487 36.6958 40.3684 36.6958H40.2782C37.6043 36.6958 35.1423 38.5692 34.4006 41.1388Z" fill="black" stroke="black"/>
<path d="M27.0112 65.9441L27.0112 65.9441L27.0094 65.9504C26.7598 66.8295 27.2485 67.8423 28.2087 68.1076C28.4148 68.1745 28.5706 68.1744 28.705 68.1744L28.7159 68.1744C29.4719 68.1744 30.1778 67.6739 30.3765 66.8991L37.7672 42.0984L37.7672 42.0984L37.769 42.0922C38.0195 41.2097 37.526 40.1924 36.5584 39.9319C35.6779 39.6842 34.6647 40.1761 34.4029 41.1398L27.0112 65.9441Z" fill="black" stroke="black"/>
<path d="M27.0186 65.8404L27.0154 65.85L27.0125 65.8597C26.4713 67.7286 26.8141 69.7491 27.9965 71.3286C29.1337 72.9073 30.9603 73.8465 32.89 73.8465L32.8905 73.8465C32.8956 73.8466 32.931 73.8469 32.9668 73.8433C33.0169 73.8382 33.0806 73.8252 33.149 73.7926C34.044 73.7036 34.7057 72.9101 34.7057 72.0309V72.0141L34.7045 71.9974C34.6424 71.075 33.8987 70.3068 32.9357 70.3068H32.89C32.0508 70.3068 31.2948 69.9281 30.8013 69.2443L30.3959 69.5368L30.8013 69.2443C30.3013 68.5513 30.1501 67.7146 30.375 66.9159C30.6846 65.9635 30.1633 65.0168 29.2386 64.7079L29.2378 64.7077C28.2816 64.3902 27.3286 64.912 27.0186 65.8404Z" fill="black" stroke="black"/>
<path d="M32.9345 73.8465H73.5722C74.5159 73.8465 75.3421 73.0895 75.3421 72.0766C75.3421 71.064 74.5176 70.3066 73.5722 70.3066H32.9345C31.9332 70.3066 31.1646 71.0753 31.1646 72.0766C31.1646 73.0891 31.9891 73.8465 32.9345 73.8465Z" fill="black" stroke="black"/>
<path d="M76.1823 66.9735L76.1822 66.9735L76.1845 66.9801C76.4424 67.7177 76.3004 68.584 75.7627 69.2754C75.2134 69.9818 74.4929 70.3522 73.6633 70.3522H73.6176C72.6288 70.3522 71.8477 71.1072 71.8477 72.0764C71.8477 73.0092 72.5915 73.8463 73.5718 73.8463H73.6176C75.5013 73.8463 77.3222 72.9546 78.5478 71.386L78.5479 71.386L78.5537 71.3783C79.7324 69.8077 80.1348 67.7335 79.5361 65.8898L79.5338 65.8827L79.5312 65.8757C79.2152 64.9931 78.2734 64.4967 77.3442 64.7446L77.3241 64.7499L77.3045 64.7569C76.4524 65.062 75.8563 65.9973 76.1823 66.9735Z" fill="black" stroke="black"/>
<path d="M68.7343 42.086L68.7362 42.093L68.7382 42.0999L76.1291 66.9013C76.3292 67.6717 77.0324 68.1745 77.7909 68.1745H77.7989C77.8614 68.1745 77.9489 68.1745 78.0338 68.167C78.1059 68.1606 78.2118 68.1463 78.3211 68.1022C79.2611 67.829 79.7425 66.8755 79.4982 65.9595L79.4963 65.9525L79.4942 65.9456L72.1025 41.1413C71.8417 40.1803 70.8771 39.6852 69.9508 39.9323L69.9508 39.9323C68.9849 40.1901 68.4865 41.1573 68.7343 42.086Z" fill="black" stroke="black"/>
<path d="M68.6958 42.0955L68.6988 42.1061L68.7023 42.1165C68.9492 42.8551 69.6316 43.3647 70.4007 43.3647C70.4085 43.3647 70.4169 43.3648 70.4258 43.3648C70.5299 43.3655 70.7066 43.3666 70.8885 43.2903C71.8264 43.0159 72.3064 42.0635 72.0623 41.1486L72.0624 41.1486L72.0596 41.1388C71.3178 38.5691 68.8573 36.6958 66.182 36.6958H66.0919C65.1132 36.6958 64.3677 37.5326 64.3677 38.4657V38.4825L64.3688 38.4993C64.4309 39.4217 65.1746 40.1899 66.1376 40.1899H66.1833C67.3138 40.1899 68.3922 41.034 68.6958 42.0955Z" fill="black" stroke="black"/>
<path d="M94.9975 75.743L94.9994 75.75L95.0014 75.7569L102.392 100.558C102.592 101.329 103.296 101.831 104.054 101.831C104.172 101.831 104.269 101.812 104.324 101.801L104.333 101.799C104.39 101.788 104.401 101.787 104.411 101.787L104.479 101.788L104.545 101.77C105.511 101.512 106.009 100.545 105.761 99.6165L105.759 99.6095L105.757 99.6026L98.3657 74.7983C98.1049 73.8373 97.1403 73.3422 96.214 73.5893L96.214 73.5893C95.2481 73.847 94.7497 74.8143 94.9975 75.743Z" fill="black" stroke="black"/>
<path d="M94.9551 75.7491L94.9581 75.7596L94.9616 75.7701C95.2084 76.5086 95.8909 77.0183 96.66 77.0183L96.6659 77.0183C96.7096 77.0183 96.7875 77.0183 96.8691 77.0102C96.9363 77.0034 97.0396 76.9884 97.1469 76.9442C98.0854 76.67 98.5658 75.7174 98.3216 74.8022L98.3217 74.8021L98.3189 74.7924C97.577 72.2227 95.1165 70.3494 92.4413 70.3494H92.3511C91.3725 70.3494 90.627 71.1861 90.627 72.1193V72.1361L90.6281 72.1529C90.6902 73.0752 91.4339 73.8435 92.3969 73.8435H92.4426C93.5731 73.8435 94.6515 74.6876 94.9551 75.7491Z" fill="black" stroke="black"/>
<path d="M66.5878 73.8465H92.3965L93.6654 72.0766H94.1654C94.1654 72.0763 94.1654 72.0759 94.1654 72.0756C94.1649 71.0635 93.3406 70.3066 92.3955 70.3066H66.5878C65.5865 70.3066 64.8179 71.0753 64.8179 72.0766C64.8179 73.0891 65.6424 73.8465 66.5878 73.8465Z" fill="black" stroke="black"/>
<path d="M60.6638 74.7921L60.6637 74.7921L60.6609 74.8026C60.4165 75.7236 60.9055 76.6875 61.8625 76.9515C62.0686 77.0183 62.2244 77.0183 62.3588 77.0182C62.3625 77.0182 62.3661 77.0182 62.3697 77.0182C63.1275 77.0182 63.835 76.5139 64.0305 75.7386C64.3337 74.6462 65.4033 73.8432 66.5401 73.8432H66.5858C67.5186 73.8432 68.3557 73.0994 68.3557 72.119C68.3557 71.1863 67.6119 70.3491 66.6315 70.3491H66.5414C63.8675 70.3491 61.4055 72.2225 60.6638 74.7921Z" fill="black" stroke="black"/>
<path d="M53.226 99.6011L53.226 99.6011L53.2242 99.6074C52.9747 100.486 53.4634 101.499 54.4235 101.765C54.6296 101.831 54.7854 101.831 54.9199 101.831L54.9307 101.831C55.6995 101.831 56.3838 101.322 56.6307 100.581L56.6334 100.573L56.6358 100.565L63.9823 75.7546L63.9823 75.7546L63.9838 75.7492C64.2344 74.8666 63.7409 73.8493 62.7733 73.5889C61.8928 73.3412 60.8795 73.8331 60.6178 74.7968L53.226 99.6011Z" fill="black" stroke="black"/>
<path d="M53.2751 99.5033L53.2783 99.4937C53.5884 98.5653 54.5413 98.0436 55.4975 98.361L55.4984 98.3613C56.4231 98.6701 56.9444 99.6168 56.6348 100.569C56.4106 101.365 56.56 102.199 57.0559 102.89C57.6109 103.6 58.3697 103.997 59.1726 103.961L59.1841 103.96H59.1955C60.1287 103.96 60.9654 104.706 60.9654 105.684C60.9654 106.569 60.2948 107.368 59.3908 107.448C59.3722 107.456 59.3538 107.463 59.3359 107.469C59.2957 107.482 59.2589 107.49 59.2276 107.494C59.2119 107.496 59.1974 107.498 59.1843 107.499C59.1777 107.499 59.1715 107.499 59.1656 107.5L59.157 107.5L59.1529 107.5L59.1509 107.5L59.1499 107.5H59.1497L53.2751 99.5033ZM53.2751 99.5033L53.2723 99.513M53.2751 99.5033L53.2723 99.513M53.2723 99.513C52.731 101.382 53.0739 103.402 54.2562 104.982M53.2723 99.513L54.2562 104.982M54.2562 104.982C55.3934 106.561 57.2199 107.5 59.1494 107.5L54.2562 104.982Z" fill="black" stroke="black"/>
<path d="M59.1982 107.5H99.8358C100.781 107.5 101.606 106.744 101.606 105.73C101.606 104.717 100.781 103.96 99.8358 103.96H59.1982C58.1969 103.96 57.4282 104.729 57.4282 105.73C57.4282 106.742 58.2528 107.5 59.1982 107.5Z" fill="black" stroke="black"/>
<path d="M102.445 100.627L102.445 100.627L102.447 100.634C102.705 101.371 102.563 102.238 102.025 102.929C101.479 103.632 100.714 104.006 99.926 104.006H99.8803C98.8915 104.006 98.1104 104.761 98.1104 105.73C98.1104 106.663 98.8542 107.5 99.8346 107.5H99.8803C101.769 107.5 103.586 106.558 104.806 105.045L104.811 105.039L104.816 105.032C105.995 103.461 106.398 101.387 105.799 99.5434L105.796 99.5363L105.794 99.5292C105.478 98.6467 104.536 98.1502 103.607 98.3981L103.587 98.4035L103.567 98.4105C102.715 98.7156 102.119 99.6509 102.445 100.627Z" fill="black" stroke="black"/>
<path d="M42.52 75.743L42.5218 75.75L42.5239 75.7569L49.9148 100.558C50.1148 101.329 50.8181 101.831 51.5765 101.831C51.6372 101.831 51.6921 101.824 51.7285 101.818C51.7644 101.813 51.8054 101.805 51.8294 101.801C51.8907 101.79 51.9174 101.787 51.9334 101.787L52.0015 101.788L52.0673 101.77C53.0332 101.512 53.5316 100.545 53.2838 99.6165L53.2819 99.6095L53.2799 99.6026L45.8881 74.7983C45.6274 73.8373 44.6628 73.3422 43.7365 73.5893L43.7365 73.5893C42.7705 73.847 42.2722 74.8143 42.52 75.743Z" fill="black" stroke="black"/>
<path d="M42.4331 75.7491L42.4362 75.7596L42.4396 75.7701C42.6865 76.5086 43.3689 77.0183 44.138 77.0183C44.1458 77.0183 44.1543 77.0183 44.1633 77.0184C44.266 77.0191 44.4447 77.0203 44.6266 76.9437C45.564 76.6689 46.0437 75.7168 45.7996 74.8022L45.7997 74.8021L45.7969 74.7924C45.0551 72.2227 42.5946 70.3494 39.9193 70.3494H39.8292C38.8505 70.3494 38.105 71.1861 38.105 72.1193V72.1361L38.1061 72.1529C38.1682 73.0752 38.9119 73.8435 39.8749 73.8435H39.9206C41.0511 73.8435 42.1295 74.6876 42.4331 75.7491Z" fill="black" stroke="black"/>
<path d="M14.1117 73.8465H39.9194C40.8631 73.8465 41.6893 73.0895 41.6893 72.0766C41.6893 71.064 40.8648 70.3066 39.9194 70.3066H14.1117C13.1105 70.3066 12.3418 71.0753 12.3418 72.0766C12.3418 73.0891 13.1663 73.8465 14.1117 73.8465Z" fill="black" stroke="black"/>
<path d="M8.14133 74.7921L8.14122 74.7921L8.13844 74.8026C7.89406 75.7236 8.38304 76.6875 9.34008 76.9515C9.54615 77.0183 9.70196 77.0183 9.83638 77.0182C9.84002 77.0182 9.84365 77.0182 9.84726 77.0182C10.605 77.0182 11.3126 76.5138 11.508 75.7386C11.8112 74.6462 12.8808 73.8432 14.0176 73.8432H14.0633C14.9961 73.8432 15.8333 73.0994 15.8333 72.119C15.8333 71.1863 15.0894 70.3491 14.1091 70.3491H14.019C11.3451 70.3491 8.88306 72.2225 8.14133 74.7921Z" fill="black" stroke="black"/>
<path d="M0.748499 99.6011L0.748458 99.6011L0.746679 99.6074C0.497136 100.486 0.985831 101.499 1.94595 101.765C2.15207 101.831 2.3079 101.831 2.44234 101.831L2.45321 101.831C3.21039 101.831 3.91664 101.33 4.11395 100.556L11.5045 75.7554L11.5045 75.7554L11.5063 75.7492C11.7568 74.8666 11.2633 73.8493 10.2957 73.5889C9.41522 73.3412 8.40196 73.8331 8.14026 74.7968L0.748499 99.6011Z" fill="black" stroke="black"/>
<path d="M0.75586 99.4937L0.752658 99.5033L0.749846 99.513C0.208567 101.382 0.551454 103.402 1.73378 104.982C2.87096 106.561 4.69761 107.5 6.62727 107.5L6.62801 107.5C6.63374 107.5 6.66861 107.5 6.7037 107.497C6.75281 107.492 6.81759 107.479 6.88763 107.446C7.78189 107.356 8.44297 106.563 8.44297 105.684C8.44297 104.706 7.6062 103.96 6.67304 103.96H6.6616L6.65016 103.961C5.8472 103.997 5.08848 103.6 4.53344 102.89C4.03756 102.199 3.88817 101.365 4.11235 100.569C4.42195 99.6168 3.90065 98.6701 2.97592 98.3613L2.97507 98.361C2.0189 98.0436 1.06593 98.5653 0.75586 99.4937Z" fill="black" stroke="black"/>
<path d="M6.6752 107.5H47.3129C48.2579 107.5 49.0828 106.744 49.0828 105.73C49.0828 104.717 48.2583 103.96 47.3129 103.96H6.6752C5.67395 103.96 4.90527 104.729 4.90527 105.73C4.90527 106.742 5.7298 107.5 6.6752 107.5Z" fill="black" stroke="black"/>
<path d="M49.9225 100.627L49.9225 100.627L49.9248 100.634C50.1827 101.371 50.0406 102.238 49.503 102.929C48.9562 103.632 48.1914 104.006 47.4035 104.006H47.3578C46.369 104.006 45.5879 104.761 45.5879 105.73C45.5879 106.663 46.3317 107.5 47.3121 107.5H47.3578C49.2893 107.5 51.1099 106.561 52.2894 105.038L52.2894 105.038L52.294 105.032C53.4726 103.461 53.8751 101.387 53.2763 99.5435L53.274 99.5364L53.2715 99.5294C52.9664 98.6773 52.0311 98.0811 51.0549 98.4071L51.0549 98.407L51.0448 98.4106C50.1927 98.7157 49.5965 99.651 49.9225 100.627Z" fill="black" stroke="black"/>
</svg>
