<svg width="747" height="724" viewBox="0 0 747 724" fill="none" xmlns="http://www.w3.org/2000/svg">
<path d="M363.853 385.84C361.09 383.26 358.305 380.68 355.542 378.099C348.875 371.912 342.23 365.701 335.563 359.513C327.526 352.047 319.512 344.58 311.474 337.114C304.51 330.63 297.547 324.146 290.582 317.684C287.203 314.533 283.87 311.313 280.422 308.231C280.376 308.185 280.33 308.139 280.285 308.094C281.404 310.788 282.522 313.482 283.618 316.176V309.646C279.805 313.459 276.015 317.249 272.202 321.063H285.513C290.08 321.063 294.692 321.222 299.259 321.017C309.83 320.537 320.425 317.409 329.307 311.587C337.869 305.97 345.221 298.298 349.994 289.188C354.903 279.804 357.529 269.118 356.98 258.501C356.432 248.02 353.327 237.586 347.55 228.772C341.888 220.142 334.102 212.698 324.877 207.949C316.178 203.474 306.634 201.053 296.839 201.053H267.361H266.425C263.502 201.053 260.42 202.332 258.342 204.387C256.356 206.373 254.872 209.615 255.009 212.469C255.146 215.415 256.105 218.475 258.342 220.552C260.58 222.607 263.32 223.886 266.425 223.886H295.286C297.98 223.886 300.674 223.954 303.346 224.297C302.341 224.16 301.314 224.023 300.309 223.886C304.602 224.457 308.78 225.598 312.776 227.265C311.862 226.877 310.949 226.489 310.059 226.123C313.963 227.79 317.616 229.936 320.973 232.516C320.197 231.923 319.443 231.329 318.667 230.735C321.909 233.27 324.809 236.17 327.343 239.412C326.749 238.635 326.156 237.882 325.562 237.106C328.142 240.462 330.288 244.115 331.955 248.02C331.567 247.107 331.179 246.193 330.814 245.303C332.48 249.299 333.622 253.477 334.193 257.769C334.056 256.765 333.919 255.737 333.782 254.733C334.33 258.934 334.33 263.204 333.782 267.405C333.919 266.4 334.056 265.373 334.193 264.368C333.622 268.661 332.48 272.839 330.814 276.835C331.202 275.922 331.59 275.008 331.955 274.118C330.288 278.022 328.142 281.676 325.562 285.032C326.156 284.256 326.749 283.502 327.343 282.726C324.809 285.968 321.909 288.868 318.667 291.402C319.443 290.809 320.197 290.215 320.973 289.621C317.616 292.202 313.963 294.348 310.059 296.014C310.972 295.626 311.885 295.238 312.776 294.873C308.78 296.54 304.602 297.681 300.309 298.252C301.314 298.115 302.341 297.978 303.346 297.841C299.282 298.366 295.195 298.252 291.108 298.252H275.992H272.202C266.037 298.252 260.786 303.481 260.786 309.669C260.786 311.792 260.763 313.915 260.786 316.039C260.831 319.327 262.178 322.455 264.576 324.693C266.037 326.04 267.498 327.41 268.96 328.757C275.33 334.671 281.701 340.607 288.071 346.521C296.519 354.375 304.967 362.23 313.415 370.107C321.018 377.185 328.645 384.264 336.248 391.342C340.016 394.858 343.76 398.397 347.55 401.868C347.596 401.913 347.664 401.959 347.71 402.005C349.902 404.037 352.756 405.338 355.793 405.338C358.601 405.338 361.935 404.105 363.875 402.005C365.862 399.836 367.346 396.982 367.209 393.922C367.072 390.954 366.09 387.917 363.853 385.839L363.853 385.84Z" fill="#45D3A1"/>
<path d="M266.447 223.863H278.503H307.477H342.389H372.665C377.574 223.863 382.483 223.931 387.369 223.863H387.575C390.498 223.863 393.58 222.584 395.658 220.529C397.644 218.543 399.128 215.301 398.991 212.447C398.854 209.501 397.895 206.442 395.658 204.364C393.42 202.309 390.68 201.03 387.575 201.03H375.519H346.545H311.633H281.357C276.448 201.03 271.538 200.962 266.652 201.03H266.447C263.524 201.03 260.442 202.309 258.364 204.364C256.378 206.35 254.894 209.593 255.03 212.447C255.167 215.392 256.126 218.452 258.364 220.529C260.602 222.584 263.365 223.863 266.447 223.863Z" fill="#45D3A1"/>
<path d="M266.447 272.476H278.503H307.477H342.389H372.665C377.574 272.476 382.483 272.544 387.369 272.476H387.575C390.498 272.476 393.58 271.197 395.658 269.142C397.644 267.156 399.128 263.914 398.991 261.06C398.854 258.114 397.895 255.055 395.658 252.977C393.42 250.922 390.68 249.643 387.575 249.643H375.519H346.545H311.633H281.357C276.448 249.643 271.538 249.575 266.652 249.643H266.447C263.524 249.643 260.442 250.922 258.364 252.977C256.378 254.963 254.894 258.206 255.03 261.06C255.167 264.005 256.126 267.065 258.364 269.142C260.602 271.174 263.365 272.476 266.447 272.476Z" fill="#45D3A1"/>
<path d="M326.712 606.669C321.665 606.669 316.331 606.622 311.3 606.055C298.492 604.633 305.669 596.143 307.102 583.336C308.513 570.529 303.675 558.248 316.471 559.685C319.81 560.05 323.284 559.993 326.716 560.003C468.236 560.003 583.383 444.863 583.383 303.336C583.378 161.816 468.238 46.6696 326.716 46.6696C185.195 46.6696 70.0496 161.81 70.0496 303.336C70.0496 365.372 92.2896 425.06 132.68 471.403C141.144 481.111 135.618 490.471 125.904 498.934C116.185 507.413 105.94 511.757 97.4976 502.053C49.7056 447.22 23.3829 376.637 23.3829 303.333C23.3829 136.067 159.45 0 326.716 0C493.983 0 630.05 136.067 630.05 303.333C630.05 470.6 493.983 606.667 326.716 606.667L326.712 606.669Z" fill="#45D3A1"/>
<path d="M326.712 513.336C297.144 513.336 268.446 507.242 241.4 495.232C229.629 489.992 238.452 479.691 243.681 467.909C248.931 456.138 248.592 447.347 260.358 452.576C281.389 461.93 303.722 466.669 326.713 466.669C416.776 466.669 490.046 393.399 490.046 303.336C490.046 213.273 416.776 140.003 326.713 140.003C236.65 140.003 163.38 213.273 163.38 303.336C163.38 338.164 174.182 371.424 194.609 399.508C202.197 409.935 195.885 417.888 185.473 425.467C175.026 433.055 164.443 437.357 156.875 426.967C130.604 390.841 116.713 348.092 116.713 303.341C116.713 187.549 210.921 93.3412 326.713 93.3412C442.505 93.3412 536.713 187.549 536.713 303.341C536.713 419.133 442.505 513.341 326.713 513.341L326.712 513.336Z" fill="#45D3A1"/>
<path d="M676.098 722.723C657.369 722.723 639.786 715.441 626.572 702.228L472.385 548.028C463.27 538.913 463.27 524.148 472.385 515.033C481.5 505.919 496.265 505.919 505.38 515.033L659.58 669.233C668.366 678.02 683.814 678.04 692.596 669.233C697.007 664.837 699.434 658.968 699.434 652.723C699.434 646.467 697.007 640.603 692.611 636.212L538.411 481.999C529.297 472.884 529.297 458.119 538.411 449.004C547.526 439.889 562.291 439.889 571.406 449.004L725.606 603.204C738.82 616.407 746.101 633.985 746.101 652.72C746.101 671.439 738.819 689.023 725.606 702.236C712.403 715.439 694.825 722.72 676.101 722.72L676.098 722.723Z" fill="#45D3A1"/>
<path d="M300.645 723.336H72.7783C46.5076 723.336 22.9916 710.075 9.8516 687.852C-3.28387 665.628 -3.28387 639.102 9.8516 616.882L123.773 424.162C136.919 401.944 160.434 388.678 186.71 388.678C212.981 388.678 236.497 401.939 249.648 424.162L363.569 616.882C376.704 639.101 376.704 665.632 363.569 687.852C350.433 710.076 326.918 723.336 300.642 723.336H300.645ZM186.713 434.242C182.203 434.242 170.968 435.477 164.202 446.94L50.2809 639.66C43.5049 651.124 48.0153 661.239 50.2705 665.056C52.5257 668.874 59.2393 677.754 72.7812 677.754L300.648 677.749C314.194 677.749 320.908 668.869 323.159 665.051C325.414 661.239 329.924 651.119 323.148 639.655L209.227 446.935C202.461 435.472 191.227 434.237 186.716 434.237L186.713 434.242Z" fill="#45D3A1"/>
<path d="M186.712 583.336C173.826 583.336 163.378 572.888 163.378 560.002V513.336C163.378 500.45 173.826 490.002 186.712 490.002C199.597 490.002 210.045 500.45 210.045 513.336V560.002C210.045 572.888 199.597 583.336 186.712 583.336Z" fill="#45D3A1"/>
<path d="M186.712 653.336C180.639 653.336 174.576 650.758 170.144 646.57C165.94 642.138 163.378 636.065 163.378 630.002C163.378 626.961 164.076 623.929 165.237 621.127C166.409 618.336 168.039 615.763 170.149 613.435C178.774 604.799 194.403 604.799 203.279 613.435C205.373 615.758 207.003 618.336 208.18 621.127C209.582 623.929 210.05 626.961 210.05 630.002C210.05 636.065 207.472 642.138 203.285 646.57C198.852 650.763 192.779 653.336 186.717 653.336H186.712Z" fill="#45D3A1"/>
</svg>
