<svg width="627" height="580" viewBox="0 0 627 580" fill="none" xmlns="http://www.w3.org/2000/svg">
<mask id="path-1-outside-1_64_1023" maskUnits="userSpaceOnUse" x="0" y="0" width="627" height="507" fill="white">
<rect fill="white" width="627" height="507"/>
<path d="M548.559 63.9705C506.741 25.2518 451.804 3.81981 394.812 4.00114C380.64 4.02718 366.505 5.35528 352.577 7.96994C316.28 14.8502 282.203 30.4753 253.296 53.4859C224.389 76.4966 201.525 106.205 186.676 140.033C176.546 162.705 170.316 186.923 168.244 211.669H156.577C153.379 211.721 150.796 214.299 150.744 217.502V299.866H133.009V276.303C133.025 274.751 132.416 273.262 131.317 272.163C130.218 271.064 128.728 270.454 127.176 270.47H68.588C67.0358 270.454 65.5464 271.064 64.4473 272.163C63.3535 273.262 62.7442 274.751 62.7546 276.303V341.871L9.81196 341.866C7.77556 341.767 5.8641 342.861 4.9109 344.668C3.7859 346.345 3.69735 348.507 4.67652 350.267L79.1085 499.134L79.1137 499.139C80.1867 501.077 82.2596 502.248 84.4783 502.17H290.052C292.52 502.238 294.76 500.743 295.651 498.436L315.953 445.004C354.672 459.223 396.521 462.692 437.052 455.035C492.636 444.561 542.317 413.743 576.399 368.603C610.48 323.463 626.519 267.239 621.377 210.91C616.231 154.582 590.279 102.191 548.58 63.9763L548.559 63.9705ZM610.392 225.664H487.892C487.892 189.158 483.824 152.768 475.757 117.164C500.825 107.669 523.986 93.7625 544.147 76.0958C584.959 115.356 608.741 169.06 610.393 225.669L610.392 225.664ZM434.232 19.1571C436.8 19.8551 439.367 20.3238 441.93 21.0217C445.664 21.954 449.399 22.6571 453.362 23.5894C455.93 24.5217 458.498 25.4539 461.06 26.1571C464.794 27.3238 468.294 28.4905 471.794 29.8915C474.362 30.8238 476.93 31.9905 479.727 33.1571C482.992 34.5582 486.258 35.9593 489.758 37.5894L497.456 41.7873C500.487 43.4227 503.758 45.0529 506.789 46.9227C509.357 48.5582 511.69 50.1883 514.258 51.8238C517.06 53.9227 520.091 55.7926 522.893 57.8915H522.899C525.409 59.7041 527.826 61.6519 530.133 63.7249C531.997 65.1259 533.867 66.7561 535.732 68.3915C517.076 84.3035 495.852 96.9275 472.967 105.725C466.232 73.0115 450.565 42.8035 427.696 18.4595L434.232 19.1571ZM400.633 16.355C425.603 21.4905 447.997 57.423 461.769 109.688H461.764C442.009 116.178 421.42 119.792 400.633 120.423L400.633 16.355ZM400.633 132.09C422.368 131.631 443.915 127.933 464.565 121.126C472.138 155.465 476.133 190.495 476.487 225.657H400.654V216.558L408.821 194.156H464.821C468.024 194.104 470.602 191.526 470.654 188.323C470.664 186.771 470.055 185.282 468.961 184.182C467.862 183.089 466.373 182.479 464.821 182.49H404.623C403.134 182.469 401.696 183.063 400.654 184.125L400.633 132.09ZM364.232 282.116L344.164 336.715L342.299 341.85H279.769L279.764 282.121L364.232 282.116ZM279.763 270.45V237.319H301.695C301.695 248.517 302.163 259.72 302.861 270.455L279.763 270.45ZM314.763 270.45C313.83 259.715 313.362 248.518 313.127 237.314H380.559L368.424 270.45H314.763ZM313.153 225.652C313.497 190.491 317.487 155.459 325.054 121.122C345.7 127.929 367.248 131.627 388.986 132.085V214.221L384.789 225.654L313.153 225.652ZM400.653 237.319H476.487C476.143 272.48 472.153 307.512 464.586 341.85C443.908 335.173 422.378 331.48 400.654 330.886L400.653 237.319ZM388.987 16.3457V120.414C368.2 119.783 347.612 116.169 327.851 109.679C341.596 57.4139 363.996 21.4819 388.965 16.3459L388.987 16.3457ZM259.487 63.715C261.794 61.6421 264.205 59.6942 266.721 57.8817C269.523 55.7827 272.32 53.9129 275.356 51.8139C277.924 50.1785 280.258 48.5483 282.825 46.9129C285.857 45.0483 289.127 43.4129 292.159 41.7774C294.726 40.3763 297.294 38.9753 300.091 37.5795C302.893 36.1785 306.622 34.5483 309.893 33.1473C312.461 31.9806 315.258 30.8139 317.825 29.8817H317.82C321.247 28.5067 324.752 27.3347 328.32 26.3817C331.122 25.4494 333.685 24.5171 336.252 23.5795C340.221 22.6472 343.95 21.9441 347.685 21.0118C350.252 20.3139 352.82 19.8451 355.383 19.1473L361.914 18.4494H361.919C339.055 42.7934 323.383 73.0014 316.654 105.715C293.768 96.9177 272.539 84.2934 253.888 68.3813C255.732 66.7459 257.596 65.1161 259.487 63.715ZM245.487 76.0795C265.643 93.7409 288.793 107.653 313.851 117.148C305.788 152.752 301.72 189.142 301.72 225.648H279.788V217.481C279.736 214.278 277.153 211.7 273.955 211.648H180.152C185.064 160.112 208.235 112.028 245.486 76.0742L245.487 76.0795ZM162.419 223.32H268.116V341.85H191.819V305.684C191.829 304.137 191.22 302.642 190.126 301.548C189.027 300.449 187.537 299.84 185.985 299.85H162.397L162.419 223.32ZM133.017 311.517H180.153V341.85H132.997L133.017 311.517ZM74.4493 282.116H121.351V341.85H74.4293L74.4493 282.116ZM309.183 429.582L304.985 440.551L286.083 490.483H87.9634L19.3648 353.51H338.098L332.265 368.676L325.734 385.942L309.183 429.582ZM355.38 443.582H355.385C352.87 443.176 350.375 442.629 347.916 441.952C343.948 441.02 340.219 440.317 336.25 439.384C333.656 438.389 331.005 437.53 328.317 436.816C325.515 435.884 322.719 434.952 319.916 433.785L332.281 401.353L332.286 401.348C339.01 417.665 349.109 432.375 361.917 444.515C359.714 444.338 357.526 444.025 355.359 443.582L355.38 443.582ZM388.979 446.613C369.615 442.645 351.645 420.015 338.343 385.477L351.873 349.545L352.806 346.743L352.816 346.749C364.743 344.415 376.837 343.014 388.983 342.551L388.979 446.613ZM388.979 330.879L388.984 330.884C378.427 331.202 367.905 332.212 357.484 333.915L378.015 278.384L378.249 278.15L388.983 248.749L388.979 330.879ZM400.645 446.613L400.651 342.551C421.437 343.181 442.025 346.796 461.786 353.285C447.995 405.551 425.593 441.483 400.63 446.618L400.645 446.613ZM530.151 399.249C527.843 401.322 525.432 403.27 522.916 405.083C520.114 407.182 517.317 409.052 514.281 410.916C511.713 412.781 509.38 414.416 506.812 416.052C503.781 417.916 500.51 419.552 497.479 421.187C494.911 422.588 492.343 423.989 489.546 425.385C486.744 426.786 483.015 428.416 479.744 429.817H479.749C477.166 431.046 474.52 432.135 471.817 433.083C468.39 434.458 464.885 435.63 461.317 436.583C458.515 437.515 455.953 438.447 453.15 439.385C449.416 440.317 445.682 441.02 441.953 441.953C439.385 442.421 436.817 443.119 434.255 443.817L427.723 444.515H427.718C450.582 420.171 466.254 389.963 472.984 357.25C495.869 366.047 517.098 378.671 535.749 394.583C533.858 396.219 531.994 397.848 530.151 399.249ZM544.145 386.885H544.151C523.995 369.224 500.844 355.312 475.786 345.817C483.849 310.213 487.917 273.822 487.917 237.317H610.417C608.766 293.926 584.969 347.629 544.151 386.89L544.145 386.885Z"/>
</mask>
<path d="M548.559 63.9705C506.741 25.2518 451.804 3.81981 394.812 4.00114C380.64 4.02718 366.505 5.35528 352.577 7.96994C316.28 14.8502 282.203 30.4753 253.296 53.4859C224.389 76.4966 201.525 106.205 186.676 140.033C176.546 162.705 170.316 186.923 168.244 211.669H156.577C153.379 211.721 150.796 214.299 150.744 217.502V299.866H133.009V276.303C133.025 274.751 132.416 273.262 131.317 272.163C130.218 271.064 128.728 270.454 127.176 270.47H68.588C67.0358 270.454 65.5464 271.064 64.4473 272.163C63.3535 273.262 62.7442 274.751 62.7546 276.303V341.871L9.81196 341.866C7.77556 341.767 5.8641 342.861 4.9109 344.668C3.7859 346.345 3.69735 348.507 4.67652 350.267L79.1085 499.134L79.1137 499.139C80.1867 501.077 82.2596 502.248 84.4783 502.17H290.052C292.52 502.238 294.76 500.743 295.651 498.436L315.953 445.004C354.672 459.223 396.521 462.692 437.052 455.035C492.636 444.561 542.317 413.743 576.399 368.603C610.48 323.463 626.519 267.239 621.377 210.91C616.231 154.582 590.279 102.191 548.58 63.9763L548.559 63.9705ZM610.392 225.664H487.892C487.892 189.158 483.824 152.768 475.757 117.164C500.825 107.669 523.986 93.7625 544.147 76.0958C584.959 115.356 608.741 169.06 610.393 225.669L610.392 225.664ZM434.232 19.1571C436.8 19.8551 439.367 20.3238 441.93 21.0217C445.664 21.954 449.399 22.6571 453.362 23.5894C455.93 24.5217 458.498 25.4539 461.06 26.1571C464.794 27.3238 468.294 28.4905 471.794 29.8915C474.362 30.8238 476.93 31.9905 479.727 33.1571C482.992 34.5582 486.258 35.9593 489.758 37.5894L497.456 41.7873C500.487 43.4227 503.758 45.0529 506.789 46.9227C509.357 48.5582 511.69 50.1883 514.258 51.8238C517.06 53.9227 520.091 55.7926 522.893 57.8915H522.899C525.409 59.7041 527.826 61.6519 530.133 63.7249C531.997 65.1259 533.867 66.7561 535.732 68.3915C517.076 84.3035 495.852 96.9275 472.967 105.725C466.232 73.0115 450.565 42.8035 427.696 18.4595L434.232 19.1571ZM400.633 16.355C425.603 21.4905 447.997 57.423 461.769 109.688H461.764C442.009 116.178 421.42 119.792 400.633 120.423L400.633 16.355ZM400.633 132.09C422.368 131.631 443.915 127.933 464.565 121.126C472.138 155.465 476.133 190.495 476.487 225.657H400.654V216.558L408.821 194.156H464.821C468.024 194.104 470.602 191.526 470.654 188.323C470.664 186.771 470.055 185.282 468.961 184.182C467.862 183.089 466.373 182.479 464.821 182.49H404.623C403.134 182.469 401.696 183.063 400.654 184.125L400.633 132.09ZM364.232 282.116L344.164 336.715L342.299 341.85H279.769L279.764 282.121L364.232 282.116ZM279.763 270.45V237.319H301.695C301.695 248.517 302.163 259.72 302.861 270.455L279.763 270.45ZM314.763 270.45C313.83 259.715 313.362 248.518 313.127 237.314H380.559L368.424 270.45H314.763ZM313.153 225.652C313.497 190.491 317.487 155.459 325.054 121.122C345.7 127.929 367.248 131.627 388.986 132.085V214.221L384.789 225.654L313.153 225.652ZM400.653 237.319H476.487C476.143 272.48 472.153 307.512 464.586 341.85C443.908 335.173 422.378 331.48 400.654 330.886L400.653 237.319ZM388.987 16.3457V120.414C368.2 119.783 347.612 116.169 327.851 109.679C341.596 57.4139 363.996 21.4819 388.965 16.3459L388.987 16.3457ZM259.487 63.715C261.794 61.6421 264.205 59.6942 266.721 57.8817C269.523 55.7827 272.32 53.9129 275.356 51.8139C277.924 50.1785 280.258 48.5483 282.825 46.9129C285.857 45.0483 289.127 43.4129 292.159 41.7774C294.726 40.3763 297.294 38.9753 300.091 37.5795C302.893 36.1785 306.622 34.5483 309.893 33.1473C312.461 31.9806 315.258 30.8139 317.825 29.8817H317.82C321.247 28.5067 324.752 27.3347 328.32 26.3817C331.122 25.4494 333.685 24.5171 336.252 23.5795C340.221 22.6472 343.95 21.9441 347.685 21.0118C350.252 20.3139 352.82 19.8451 355.383 19.1473L361.914 18.4494H361.919C339.055 42.7934 323.383 73.0014 316.654 105.715C293.768 96.9177 272.539 84.2934 253.888 68.3813C255.732 66.7459 257.596 65.1161 259.487 63.715ZM245.487 76.0795C265.643 93.7409 288.793 107.653 313.851 117.148C305.788 152.752 301.72 189.142 301.72 225.648H279.788V217.481C279.736 214.278 277.153 211.7 273.955 211.648H180.152C185.064 160.112 208.235 112.028 245.486 76.0742L245.487 76.0795ZM162.419 223.32H268.116V341.85H191.819V305.684C191.829 304.137 191.22 302.642 190.126 301.548C189.027 300.449 187.537 299.84 185.985 299.85H162.397L162.419 223.32ZM133.017 311.517H180.153V341.85H132.997L133.017 311.517ZM74.4493 282.116H121.351V341.85H74.4293L74.4493 282.116ZM309.183 429.582L304.985 440.551L286.083 490.483H87.9634L19.3648 353.51H338.098L332.265 368.676L325.734 385.942L309.183 429.582ZM355.38 443.582H355.385C352.87 443.176 350.375 442.629 347.916 441.952C343.948 441.02 340.219 440.317 336.25 439.384C333.656 438.389 331.005 437.53 328.317 436.816C325.515 435.884 322.719 434.952 319.916 433.785L332.281 401.353L332.286 401.348C339.01 417.665 349.109 432.375 361.917 444.515C359.714 444.338 357.526 444.025 355.359 443.582L355.38 443.582ZM388.979 446.613C369.615 442.645 351.645 420.015 338.343 385.477L351.873 349.545L352.806 346.743L352.816 346.749C364.743 344.415 376.837 343.014 388.983 342.551L388.979 446.613ZM388.979 330.879L388.984 330.884C378.427 331.202 367.905 332.212 357.484 333.915L378.015 278.384L378.249 278.15L388.983 248.749L388.979 330.879ZM400.645 446.613L400.651 342.551C421.437 343.181 442.025 346.796 461.786 353.285C447.995 405.551 425.593 441.483 400.63 446.618L400.645 446.613ZM530.151 399.249C527.843 401.322 525.432 403.27 522.916 405.083C520.114 407.182 517.317 409.052 514.281 410.916C511.713 412.781 509.38 414.416 506.812 416.052C503.781 417.916 500.51 419.552 497.479 421.187C494.911 422.588 492.343 423.989 489.546 425.385C486.744 426.786 483.015 428.416 479.744 429.817H479.749C477.166 431.046 474.52 432.135 471.817 433.083C468.39 434.458 464.885 435.63 461.317 436.583C458.515 437.515 455.953 438.447 453.15 439.385C449.416 440.317 445.682 441.02 441.953 441.953C439.385 442.421 436.817 443.119 434.255 443.817L427.723 444.515H427.718C450.582 420.171 466.254 389.963 472.984 357.25C495.869 366.047 517.098 378.671 535.749 394.583C533.858 396.219 531.994 397.848 530.151 399.249ZM544.145 386.885H544.151C523.995 369.224 500.844 355.312 475.786 345.817C483.849 310.213 487.917 273.822 487.917 237.317H610.417C608.766 293.926 584.969 347.629 544.151 386.89L544.145 386.885Z" fill="white"/>
<path d="M530.145 401.249H530.151V397.249H530.145V401.249ZM548.559 63.9705L545.841 66.9056L546.555 67.5667L547.493 67.826L548.559 63.9705ZM394.812 4.00114L394.819 8.00114L394.825 8.00112L394.812 4.00114ZM352.577 7.96994L351.839 4.03861L351.832 4.03992L352.577 7.96994ZM186.676 140.033L190.328 141.664L190.333 141.652L190.339 141.64L186.676 140.033ZM168.244 211.669V215.669H171.923L172.23 212.002L168.244 211.669ZM156.577 211.669V207.669H156.545L156.512 207.669L156.577 211.669ZM150.744 217.502L146.745 217.437L146.744 217.469V217.502H150.744ZM150.744 299.866V303.866H154.744V299.866H150.744ZM133.009 299.866H129.009V303.866H133.009V299.866ZM133.009 276.303L129.009 276.263L129.009 276.283V276.303H133.009ZM131.317 272.163L134.145 269.334L134.145 269.334L131.317 272.163ZM127.176 270.47V274.47H127.196L127.216 274.47L127.176 270.47ZM68.588 270.47L68.5477 274.47L68.5678 274.47H68.588V270.47ZM64.4473 272.163L61.6191 269.334L61.6122 269.341L64.4473 272.163ZM62.7546 276.303H66.7546V276.29L66.7545 276.276L62.7546 276.303ZM62.7546 341.871L62.7542 345.871L66.7546 345.872V341.871H62.7546ZM9.81196 341.866L9.61781 345.861L9.71463 345.866L9.81157 345.866L9.81196 341.866ZM4.9109 344.668L8.23273 346.897L8.35042 346.721L8.44898 346.534L4.9109 344.668ZM4.67652 350.267L8.25424 348.478L8.21491 348.4L8.17216 348.323L4.67652 350.267ZM79.1085 499.134L75.5308 500.923L75.8211 501.503L76.2801 501.962L79.1085 499.134ZM79.1137 499.139L82.613 497.201L82.3403 496.709L81.9422 496.311L79.1137 499.139ZM84.4783 502.17V498.17H84.4079L84.3375 498.173L84.4783 502.17ZM290.052 502.17L290.161 498.172L290.106 498.17H290.052V502.17ZM295.651 498.436L299.382 499.876L299.386 499.866L299.39 499.857L295.651 498.436ZM315.953 445.004L317.332 441.249L313.619 439.885L312.214 443.583L315.953 445.004ZM437.052 455.035L436.311 451.104L436.309 451.105L437.052 455.035ZM621.377 210.91L625.361 210.546L625.361 210.546L621.377 210.91ZM548.58 63.9763L551.282 61.0274L550.573 60.3772L549.645 60.1208L548.58 63.9763ZM610.392 225.664L614.369 225.239L613.987 221.664H610.392V225.664ZM487.892 225.664H483.892V229.664H487.892V225.664ZM475.757 117.164L474.34 113.423L471.087 114.655L471.855 118.048L475.757 117.164ZM544.147 76.0958L546.92 73.2131L544.273 70.6668L541.511 73.0874L544.147 76.0958ZM610.393 225.669L606.415 226.094L614.391 225.552L610.393 225.669ZM434.232 19.1571L435.281 15.2972L434.974 15.2136L434.656 15.1797L434.232 19.1571ZM441.93 21.0217L440.879 24.8811L440.92 24.8923L440.961 24.9026L441.93 21.0217ZM453.362 23.5894L454.727 19.8296L454.507 19.7494L454.278 19.6957L453.362 23.5894ZM461.06 26.1571L462.253 22.3391L462.186 22.3183L462.119 22.2998L461.06 26.1571ZM471.794 29.8915L470.308 33.6051L470.368 33.6292L470.429 33.6514L471.794 29.8915ZM479.727 33.1571L481.304 29.4812L481.285 29.4732L481.267 29.4655L479.727 33.1571ZM489.758 37.5894L491.673 34.0776L491.562 34.0169L491.447 33.9634L489.758 37.5894ZM497.456 41.7873L495.541 45.299L495.548 45.3033L495.556 45.3076L497.456 41.7873ZM506.789 46.9227L508.938 43.549L508.914 43.5335L508.889 43.5184L506.789 46.9227ZM514.258 51.8238L516.656 48.6223L516.535 48.5315L516.407 48.45L514.258 51.8238ZM522.893 57.8915L520.495 61.093L521.561 61.8915H522.893V57.8915ZM522.899 57.8915L525.24 54.6485L524.192 53.8915H522.899V57.8915ZM530.133 63.7249L527.46 66.7004L527.59 66.8175L527.73 66.9227L530.133 63.7249ZM535.732 68.3915L538.328 71.4349L541.846 68.4339L538.37 65.3844L535.732 68.3915ZM472.967 105.725L469.049 106.531L470 111.151L474.402 109.459L472.967 105.725ZM427.696 18.4595L428.12 14.4821L417.396 13.3375L424.781 21.1983L427.696 18.4595ZM400.633 16.355L401.439 12.437L396.633 11.4486V16.355L400.633 16.355ZM461.769 109.688V113.688H466.96L465.637 108.669L461.769 109.688ZM461.764 109.688V105.688H461.124L460.516 105.888L461.764 109.688ZM400.633 120.423L396.633 120.423L396.633 124.546L400.755 124.421L400.633 120.423ZM400.633 132.09L400.549 128.091L396.632 128.173L396.633 132.091L400.633 132.09ZM464.565 121.126L468.471 120.265L467.518 115.941L463.313 117.327L464.565 121.126ZM476.487 225.657V229.657H480.528L480.487 225.616L476.487 225.657ZM400.654 225.657H396.654V229.657H400.654V225.657ZM400.654 216.558L396.896 215.188L396.654 215.851V216.558H400.654ZM408.821 194.156V190.156H406.021L405.062 192.786L408.821 194.156ZM464.821 194.156V198.156H464.853L464.886 198.156L464.821 194.156ZM470.654 188.323L474.653 188.388L474.654 188.369L474.654 188.35L470.654 188.323ZM468.961 184.182L471.797 181.361L471.79 181.354L471.783 181.347L468.961 184.182ZM464.821 182.49V186.49H464.834L464.847 186.49L464.821 182.49ZM404.623 182.49L404.567 186.489L404.595 186.49H404.623V182.49ZM400.654 184.125L396.654 184.127L396.658 193.915L403.511 186.926L400.654 184.125ZM364.232 282.116L367.986 283.496L369.964 278.116L364.232 278.116L364.232 282.116ZM344.164 336.715L340.41 335.335L340.407 335.342L340.404 335.35L344.164 336.715ZM342.299 341.85V345.85H345.103L346.059 343.216L342.299 341.85ZM279.769 341.85L275.769 341.851L275.769 345.85H279.769V341.85ZM279.764 282.121L279.763 278.121L275.763 278.121L275.764 282.122L279.764 282.121ZM279.763 270.45H275.763V274.449L279.762 274.45L279.763 270.45ZM279.763 237.319V233.319H275.763V237.319H279.763ZM301.695 237.319H305.695V233.319H301.695V237.319ZM302.861 270.455L302.86 274.455L307.13 274.456L306.853 270.195L302.861 270.455ZM314.763 270.45L310.778 270.796L311.095 274.45H314.763V270.45ZM313.127 237.314V233.314H309.043L309.128 237.397L313.127 237.314ZM380.559 237.314L384.315 238.689L386.284 233.314H380.559V237.314ZM368.424 270.45V274.45H371.219L372.18 271.825L368.424 270.45ZM313.153 225.652L309.154 225.613L309.114 229.652L313.153 229.652L313.153 225.652ZM325.054 121.122L326.307 117.323L322.101 115.936L321.148 120.261L325.054 121.122ZM388.986 132.085H392.986V128.169L389.071 128.086L388.986 132.085ZM388.986 214.221L392.741 215.6L392.986 214.932V214.221H388.986ZM384.789 225.654L384.788 229.654L387.581 229.654L388.543 227.032L384.789 225.654ZM400.653 237.319V233.319H396.653V237.319L400.653 237.319ZM476.487 237.319L480.486 237.358L480.526 233.319H476.487V237.319ZM464.586 341.85L463.356 345.656L467.545 347.009L468.492 342.711L464.586 341.85ZM400.654 330.886H396.654L396.654 334.778L400.544 334.885L400.654 330.886ZM388.987 16.3457H392.987V12.2958L388.937 12.346L388.987 16.3457ZM388.987 120.414L388.865 124.412L392.987 124.537V120.414H388.987ZM327.851 109.679L323.982 108.662L323.024 112.304L326.603 113.48L327.851 109.679ZM388.965 16.3459L388.916 12.3462L388.534 12.351L388.159 12.428L388.965 16.3459ZM259.487 63.715L261.868 66.9288L262.02 66.8165L262.16 66.6905L259.487 63.715ZM266.721 57.8817L269.059 61.127L269.089 61.1054L269.119 61.0831L266.721 57.8817ZM275.356 51.8139L273.208 48.4402L273.144 48.4806L273.082 48.5235L275.356 51.8139ZM282.825 46.9129L280.73 43.5058L280.703 43.5223L280.676 43.5391L282.825 46.9129ZM292.159 41.7774L294.058 45.2977L294.066 45.2932L294.075 45.2887L292.159 41.7774ZM300.091 37.5795L301.877 41.1586L301.88 41.1572L300.091 37.5795ZM309.893 33.1473L311.468 36.8242L311.508 36.807L311.548 36.789L309.893 33.1473ZM317.825 29.8817L319.19 33.6415L317.825 25.8817V29.8817ZM317.82 29.8817L316.331 26.1693L317.82 33.8817V29.8817ZM328.32 26.3817L329.352 30.2462L329.469 30.2151L329.583 30.1771L328.32 26.3817ZM336.252 23.5795L335.338 19.6855L335.105 19.7402L334.88 19.8222L336.252 23.5795ZM347.685 21.0118L348.653 24.8927L348.694 24.8826L348.734 24.8718L347.685 21.0118ZM355.383 19.1473L354.957 15.1699L354.64 15.2039L354.331 15.2878L355.383 19.1473ZM361.914 18.4494V14.4494H361.701L361.489 14.472L361.914 18.4494ZM361.919 18.4494L364.835 21.1878L371.163 14.4494H361.919V18.4494ZM316.654 105.715L315.218 109.448L319.621 111.141L320.572 106.521L316.654 105.715ZM253.888 68.3813L251.234 65.389L247.794 68.4401L251.292 71.4244L253.888 68.3813ZM245.487 76.0795L241.547 76.7712L241.791 78.1593L242.851 79.088L245.487 76.0795ZM313.851 117.148L317.752 118.031L318.52 114.639L315.268 113.407L313.851 117.148ZM301.72 225.648V229.648H305.72V225.648H301.72ZM279.788 225.648H275.788V229.648H279.788V225.648ZM279.788 217.481H283.788V217.448L283.788 217.416L279.788 217.481ZM273.955 211.648L274.02 207.648L273.988 207.648H273.955V211.648ZM180.152 211.648L176.17 211.268L175.753 215.648H180.152V211.648ZM245.486 76.0742L249.425 75.3825L248.124 67.9688L242.708 73.1961L245.486 76.0742ZM162.419 223.32V219.32H158.42L158.419 223.318L162.419 223.32ZM268.116 223.32H272.116V219.32H268.116V223.32ZM268.116 341.85V345.85H272.116V341.85H268.116ZM191.819 341.85H187.819V345.85H191.819V341.85ZM191.819 305.684L187.819 305.657L187.819 305.67V305.684H191.819ZM190.126 301.548L192.955 298.72L192.954 298.72L190.126 301.548ZM185.985 299.85V303.85H185.999L186.012 303.85L185.985 299.85ZM162.397 299.85L158.397 299.849L158.396 303.85H162.397V299.85ZM133.017 311.517V307.517H129.02L129.017 311.514L133.017 311.517ZM180.153 311.517H184.153V307.517H180.153V311.517ZM180.153 341.85V345.85H184.153V341.85H180.153ZM132.997 341.85L128.997 341.848L128.995 345.85H132.997V341.85ZM74.4493 282.116V278.116H70.4506L70.4493 282.114L74.4493 282.116ZM121.351 282.116H125.351V278.116H121.351V282.116ZM121.351 341.85V345.85H125.351V341.85H121.351ZM74.4293 341.85L70.4293 341.849L70.428 345.85H74.4293V341.85ZM309.183 429.582L312.918 431.012L312.923 431.001L309.183 429.582ZM304.985 440.551L301.249 439.121L301.246 439.128L301.244 439.135L304.985 440.551ZM286.083 490.483V494.483H288.846L289.824 491.899L286.083 490.483ZM87.9634 490.483L84.3869 492.274L85.4931 494.483H87.9634V490.483ZM19.3648 353.51V349.51H12.8879L15.7882 355.301L19.3648 353.51ZM338.098 353.51L341.831 354.946L343.922 349.51H338.098V353.51ZM332.265 368.676L328.531 367.24L328.527 367.251L328.523 367.261L332.265 368.676ZM325.734 385.942L329.474 387.36L329.475 387.357L325.734 385.942ZM355.38 443.582V439.582H355.36L355.34 439.582L355.38 443.582ZM355.385 443.582V447.582L356.023 439.633L355.385 443.582ZM347.916 441.952L348.979 438.096L348.905 438.075L348.831 438.058L347.916 441.952ZM336.25 439.384L334.817 443.119L335.071 443.216L335.335 443.278L336.25 439.384ZM328.317 436.816L327.055 440.612L327.172 440.651L327.291 440.683L328.317 436.816ZM319.916 433.785L316.179 432.36L314.796 435.986L318.379 437.478L319.916 433.785ZM332.281 401.353L329.464 398.514L328.851 399.122L328.543 399.928L332.281 401.353ZM332.286 401.348L335.984 399.824L333.709 394.302L329.469 398.509L332.286 401.348ZM361.917 444.515L361.596 448.502L372.896 449.41L364.669 441.612L361.917 444.515ZM355.359 443.582L355.32 439.583L354.559 447.501L355.359 443.582ZM388.979 446.613L388.176 450.532L392.978 451.516L392.979 446.614L388.979 446.613ZM338.343 385.477L334.599 384.068L334.062 385.493L334.61 386.915L338.343 385.477ZM351.873 349.545L355.617 350.955L355.644 350.882L355.669 350.808L351.873 349.545ZM352.806 346.743L354.594 343.166L350.467 341.102L349.01 345.481L352.806 346.743ZM352.816 346.749L351.027 350.326L352.246 350.936L353.584 350.674L352.816 346.749ZM388.983 342.551L392.983 342.551L392.983 338.395L388.83 338.554L388.983 342.551ZM388.979 330.879L384.979 330.879L384.979 332.535L386.15 333.707L388.979 330.879ZM388.984 330.884L389.104 334.882L398.36 334.604L391.812 328.056L388.984 330.884ZM357.484 333.915L353.732 332.528L351.35 338.971L358.129 337.863L357.484 333.915ZM378.015 278.384L375.186 275.556L374.567 276.175L374.263 276.997L378.015 278.384ZM378.249 278.15L381.077 280.979L381.703 280.353L382.006 279.522L378.249 278.15ZM388.983 248.749L392.983 248.749L385.226 247.377L388.983 248.749ZM400.645 446.613L401.935 450.4L404.645 449.477L404.645 446.614L400.645 446.613ZM400.651 342.551L400.772 338.553L396.651 338.428L396.651 342.551L400.651 342.551ZM461.786 353.285L465.654 354.306L466.616 350.661L463.035 349.485L461.786 353.285ZM400.63 446.618L399.341 442.832L401.437 450.536L400.63 446.618ZM530.151 399.249L527.73 396.065L527.6 396.164L527.477 396.274L530.151 399.249ZM522.916 405.083L520.578 401.837L520.548 401.859L520.518 401.881L522.916 405.083ZM514.281 410.916L512.188 407.507L512.056 407.588L511.93 407.679L514.281 410.916ZM506.812 416.052L508.908 419.459L508.934 419.442L508.961 419.425L506.812 416.052ZM497.479 421.187L495.579 417.667L495.571 417.671L495.563 417.676L497.479 421.187ZM489.546 425.385L487.76 421.806L487.757 421.807L489.546 425.385ZM479.744 429.817L478.169 426.14L479.744 433.817V429.817ZM479.749 429.817L481.468 433.429L479.749 425.817V429.817ZM471.817 433.083L470.493 429.308L470.41 429.337L470.328 429.37L471.817 433.083ZM461.317 436.583L460.285 432.718L460.168 432.749L460.054 432.787L461.317 436.583ZM453.15 439.385L454.119 443.266L454.271 443.228L454.42 443.178L453.15 439.385ZM441.953 441.953L442.671 445.888L442.798 445.864L442.923 445.833L441.953 441.953ZM434.255 443.817L434.68 447.794L434.997 447.761L435.306 447.677L434.255 443.817ZM427.723 444.515V448.515H427.937L428.149 448.492L427.723 444.515ZM427.718 444.515L424.803 441.777L418.474 448.515H427.718V444.515ZM472.984 357.25L474.419 353.516L470.016 351.824L469.066 356.444L472.984 357.25ZM535.749 394.583L538.366 397.608L541.887 394.562L538.345 391.54L535.749 394.583ZM544.145 386.885V382.885H533.484L541.514 389.898L544.145 386.885ZM544.151 386.885V390.885H554.785L546.787 383.876L544.151 386.885ZM475.786 345.817L471.885 344.933L471.117 348.325L474.369 349.557L475.786 345.817ZM487.917 237.317V233.317H483.917V237.317H487.917ZM610.417 237.317L614.415 237.434L614.535 233.317H610.417V237.317ZM544.151 386.89L541.52 389.903L544.282 392.315L546.924 389.773L544.151 386.89ZM551.276 61.0354C508.716 21.6293 452.804 -0.183393 394.799 0.00116158L394.825 8.00112C450.804 7.82301 504.766 28.8743 545.841 66.9056L551.276 61.0354ZM394.805 0.00114799C380.388 0.0276399 366.008 1.37871 351.839 4.03862L353.315 11.9013C367.002 9.33184 380.892 8.02673 394.819 8.00113L394.805 0.00114799ZM351.832 4.03992C314.896 11.0413 280.22 26.9412 250.805 50.3564L255.787 56.6155C284.186 34.0093 317.664 18.6592 353.322 11.9L351.832 4.03992ZM250.805 50.3564C221.39 73.7719 198.124 104.002 183.013 138.425L190.339 141.64C204.927 108.407 227.389 79.2214 255.787 56.6155L250.805 50.3564ZM183.024 138.401C172.71 161.484 166.367 186.141 164.258 211.335L172.23 212.002C174.264 187.705 180.381 163.925 190.328 141.664L183.024 138.401ZM168.244 207.669H156.577V215.669H168.244V207.669ZM156.512 207.669C151.158 207.756 146.832 212.073 146.745 217.437L154.743 217.567C154.76 216.524 155.6 215.685 156.642 215.668L156.512 207.669ZM146.744 217.502V299.866H154.744V217.502H146.744ZM150.744 295.866H133.009V303.866H150.744V295.866ZM137.009 299.866V276.303H129.009V299.866H137.009ZM137.009 276.344C137.036 273.714 136.002 271.191 134.145 269.334L128.488 274.991C128.829 275.332 129.014 275.788 129.009 276.263L137.009 276.344ZM134.145 269.334C132.288 267.477 129.765 266.444 127.136 266.47L127.216 274.47C127.691 274.465 128.147 274.65 128.488 274.991L134.145 269.334ZM127.176 266.47H68.588V274.47H127.176V266.47ZM68.6282 266.47C65.9985 266.444 63.4761 267.477 61.6191 269.334L67.2755 274.991C67.6167 274.65 68.0732 274.465 68.5477 274.47L68.6282 266.47ZM61.6122 269.341C59.7657 271.196 58.7372 273.711 58.7547 276.33L66.7545 276.276C66.7513 275.791 66.9414 275.327 67.2824 274.984L61.6122 269.341ZM58.7546 276.303V341.871H66.7546V276.303H58.7546ZM62.755 337.871L9.81235 337.866L9.81157 345.866L62.7542 345.871L62.755 337.871ZM10.0061 337.871C6.41121 337.696 3.04788 339.626 1.37281 342.802L8.44898 346.534C8.68031 346.096 9.13991 345.838 9.61781 345.861L10.0061 337.871ZM1.58907 342.44C-0.373152 345.365 -0.528556 349.138 1.18088 352.211L8.17216 348.323C7.92325 347.875 7.94495 347.326 8.23273 346.897L1.58907 342.44ZM1.0988 352.056L75.5308 500.923L82.6863 497.345L8.25424 348.478L1.0988 352.056ZM76.2801 501.962L76.2853 501.967L81.9422 496.311L81.937 496.305L76.2801 501.962ZM75.6145 501.077C77.4183 504.334 80.8996 506.299 84.619 506.168L84.3375 498.173C83.6196 498.198 82.9551 497.819 82.613 497.201L75.6145 501.077ZM84.4783 506.17H290.052V498.17H84.4783V506.17ZM289.942 506.169C294.109 506.283 297.884 503.759 299.382 499.876L291.919 496.995C291.636 497.728 290.932 498.193 290.161 498.172L289.942 506.169ZM299.39 499.857L319.692 446.425L312.214 443.583L291.911 497.015L299.39 499.857ZM314.574 448.759C353.971 463.226 396.553 466.757 437.794 458.966L436.309 451.105C396.489 458.627 355.373 455.219 317.332 441.249L314.574 448.759ZM437.793 458.966C494.355 448.308 544.91 416.947 579.591 371.013L573.206 366.193C539.724 410.539 490.917 440.815 436.311 451.104L437.793 458.966ZM579.591 371.013C614.272 325.079 630.592 267.866 625.361 210.546L617.394 211.273C622.445 266.612 606.688 321.847 573.206 366.193L579.591 371.013ZM625.361 210.546C620.124 153.227 593.715 99.9146 551.282 61.0274L545.877 66.9253C586.842 104.467 612.339 155.936 617.394 211.274L625.361 210.546ZM549.645 60.1208L549.624 60.115L547.493 67.826L547.514 67.8318L549.645 60.1208ZM610.392 221.664H487.892V229.664H610.392V221.664ZM491.892 225.664C491.892 188.861 487.791 152.174 479.658 116.28L471.855 118.048C479.857 153.361 483.892 189.456 483.892 225.664H491.892ZM477.173 120.904C502.688 111.24 526.262 97.086 546.783 79.1042L541.511 73.0874C521.709 90.4389 498.961 104.098 474.34 113.423L477.173 120.904ZM541.374 78.9785C581.431 117.512 604.773 170.223 606.394 225.786L614.391 225.552C612.708 167.897 588.487 113.199 546.92 73.2131L541.374 78.9785ZM614.37 225.244L614.369 225.239L606.415 226.089L606.415 226.094L614.37 225.244ZM433.183 23.0171C434.561 23.3917 435.927 23.7013 437.196 23.9899C438.492 24.2845 439.693 24.5581 440.879 24.8811L442.981 17.1622C441.605 16.7874 440.24 16.4777 438.969 16.1889C437.673 15.8942 436.471 15.6205 435.281 15.2972L433.183 23.0171ZM440.961 24.9026C444.599 25.8109 448.843 26.6356 452.446 27.4831L454.278 19.6957C449.954 18.6787 446.729 18.0971 442.899 17.1408L440.961 24.9026ZM451.997 27.3493C454.536 28.2712 457.257 29.2613 460.001 30.0145L462.119 22.2998C459.738 21.6465 457.323 20.7722 454.727 19.8296L451.997 27.3493ZM459.867 29.9752C463.561 31.1291 466.948 32.2602 470.308 33.6051L473.281 26.178C469.641 24.7208 466.028 23.5185 462.253 22.3391L459.867 29.9752ZM470.429 33.6514C472.881 34.5417 475.231 35.6158 478.187 36.8488L481.267 29.4655C478.629 28.3651 475.843 27.106 473.159 26.1317L470.429 33.6514ZM478.15 36.8331C481.421 38.2367 484.633 39.6149 488.069 41.2154L491.447 33.9634C487.883 32.3037 484.564 30.8797 481.304 29.4812L478.15 36.8331ZM487.843 41.1012L495.541 45.299L499.371 38.2755L491.673 34.0776L487.843 41.1012ZM495.556 45.3076C498.744 47.0275 501.789 48.5382 504.689 50.3271L508.889 43.5184C505.727 41.5676 502.23 39.818 499.355 38.267L495.556 45.3076ZM504.64 50.2965C505.884 51.0886 507.075 51.8824 508.306 52.702C509.526 53.5152 510.785 54.3542 512.109 55.1976L516.407 48.45C515.163 47.6579 513.972 46.8641 512.741 46.0445C511.521 45.2313 510.262 44.3923 508.938 43.549L504.64 50.2965ZM511.86 55.0253C513.346 56.1384 514.88 57.1814 516.326 58.1648C517.797 59.1658 519.179 60.1073 520.495 61.093L525.291 54.6901C523.805 53.5769 522.271 52.5339 520.826 51.5505C519.354 50.5495 517.972 49.6081 516.656 48.6223L511.86 55.0253ZM522.893 61.8915H522.899V53.8915H522.893V61.8915ZM520.557 61.1346C522.953 62.8642 525.259 64.7228 527.46 66.7004L532.806 60.7493C530.393 58.5811 527.865 56.5439 525.24 54.6485L520.557 61.1346ZM527.73 66.9227C529.455 68.2188 531.215 69.75 533.094 71.3987L538.37 65.3844C536.52 63.7621 534.54 62.0331 532.536 60.5271L527.73 66.9227ZM533.136 65.3482C514.825 80.966 493.993 93.3566 471.531 101.991L474.402 109.459C497.71 100.499 519.327 87.6411 538.328 71.4349L533.136 65.3482ZM476.884 104.918C470.001 71.4811 453.987 40.6041 430.611 15.7208L424.781 21.1983C447.143 45.003 462.463 74.542 469.049 106.531L476.884 104.918ZM427.271 22.4369L433.807 23.1345L434.656 15.1797L428.12 14.4821L427.271 22.4369ZM399.827 20.273C410.763 22.522 421.831 31.7189 432.041 47.5189C442.181 63.2117 451.083 84.8323 457.901 110.708L465.637 108.669C458.683 82.279 449.502 59.8007 438.76 43.177C428.087 26.6606 415.473 15.3234 401.439 12.437L399.827 20.273ZM461.769 105.688H461.764V113.688H461.769V105.688ZM460.516 105.888C441.126 112.258 420.916 115.806 400.512 116.425L400.755 124.421C421.924 123.779 442.893 120.098 463.012 113.489L460.516 105.888ZM404.633 120.423L404.633 16.355L396.633 16.355L396.633 120.423L404.633 120.423ZM400.718 136.089C422.85 135.622 444.79 131.856 465.818 124.925L463.313 117.327C443.039 124.01 421.886 127.641 400.549 128.091L400.718 136.089ZM460.659 121.988C468.173 156.056 472.136 190.812 472.487 225.697L480.487 225.616C480.13 190.179 476.104 154.873 468.471 120.265L460.659 121.988ZM476.487 221.657H400.654V229.657H476.487V221.657ZM404.654 225.657V216.558H396.654V225.657H404.654ZM404.412 217.928L412.579 195.527L405.062 192.786L396.896 215.188L404.412 217.928ZM408.821 198.156H464.821V190.156H408.821V198.156ZM464.886 198.156C470.247 198.069 474.566 193.749 474.653 188.388L466.654 188.258C466.637 189.303 465.8 190.14 464.755 190.157L464.886 198.156ZM474.654 188.35C474.671 185.731 473.643 183.216 471.797 181.361L466.126 187.004C466.467 187.347 466.657 187.811 466.654 188.296L474.654 188.35ZM471.783 181.347C469.928 179.501 467.412 178.472 464.794 178.49L464.847 186.49C465.333 186.486 465.797 186.677 466.139 187.018L471.783 181.347ZM464.821 178.49H404.623V186.49H464.821V178.49ZM404.679 178.49C402.093 178.454 399.604 179.483 397.798 181.325L403.511 186.926C403.788 186.642 404.174 186.484 404.567 186.489L404.679 178.49ZM404.654 184.124L404.633 132.088L396.633 132.091L396.654 184.127L404.654 184.124ZM360.478 280.736L340.41 335.335L347.918 338.095L367.986 283.496L360.478 280.736ZM340.404 335.35L338.54 340.485L346.059 343.216L347.924 338.08L340.404 335.35ZM342.299 337.85H279.769V345.85H342.299V337.85ZM283.769 341.85L283.764 282.121L275.764 282.122L275.769 341.851L283.769 341.85ZM279.764 286.121L364.232 286.116L364.232 278.116L279.763 278.121L279.764 286.121ZM283.763 270.45V237.319H275.763V270.45H283.763ZM279.763 241.319H301.695V233.319H279.763V241.319ZM297.695 237.319C297.695 248.625 298.168 259.919 298.87 270.715L306.853 270.195C306.159 259.522 305.695 248.408 305.695 237.319H297.695ZM302.862 266.455L279.764 266.45L279.762 274.45L302.86 274.455L302.862 266.455ZM318.748 270.104C317.826 259.487 317.36 248.384 317.126 237.23L309.128 237.397C309.363 248.652 309.835 259.944 310.778 270.796L318.748 270.104ZM313.127 241.314H380.559V233.314H313.127V241.314ZM376.803 235.938L364.668 269.074L372.18 271.825L384.315 238.689L376.803 235.938ZM368.424 266.45H314.763V274.45H368.424V266.45ZM317.153 225.691C317.494 190.807 321.452 156.05 328.961 121.983L321.148 120.261C313.521 154.868 309.5 190.175 309.154 225.613L317.153 225.691ZM323.802 124.92C344.824 131.852 366.766 135.618 388.902 136.084L389.071 128.086C367.73 127.636 346.575 124.006 326.307 117.323L323.802 124.92ZM384.986 132.085V214.221H392.986V132.085H384.986ZM385.232 212.843L381.034 224.275L388.543 227.032L392.741 215.6L385.232 212.843ZM384.789 221.654L313.153 221.652L313.153 229.652L384.788 229.654L384.789 221.654ZM400.653 241.319H476.487V233.319H400.653V241.319ZM472.487 237.28C472.146 272.165 468.188 306.921 460.679 340.989L468.492 342.711C476.119 308.103 480.14 272.796 480.486 237.358L472.487 237.28ZM465.815 338.043C444.775 331.249 422.867 327.492 400.763 326.888L400.544 334.885C421.888 335.468 443.041 339.096 463.356 345.656L465.815 338.043ZM404.654 330.886L404.653 237.319L396.653 237.319L396.654 330.886L404.654 330.886ZM384.987 16.3457V120.414H392.987V16.3457H384.987ZM389.108 116.416C368.704 115.797 348.496 112.249 329.099 105.879L326.603 113.48C346.728 120.089 367.696 123.77 388.865 124.412L389.108 116.416ZM331.719 110.697C338.524 84.8222 347.42 63.2021 357.559 47.5098C367.766 31.7102 378.836 22.5132 389.771 20.2639L388.159 12.428C374.125 15.3146 361.51 26.6517 350.839 43.1684C340.099 59.7925 330.923 82.2711 323.982 108.662L331.719 110.697ZM389.015 20.3456L389.036 20.3454L388.937 12.346L388.916 12.3462L389.015 20.3456ZM262.16 66.6905C264.363 64.7111 266.663 62.8536 269.059 61.127L264.383 54.6363C261.748 56.5348 259.225 58.573 256.813 60.7395L262.16 66.6905ZM269.119 61.0831C271.84 59.0447 274.529 57.2487 277.631 55.1044L273.082 48.5235C270.111 50.577 267.206 52.5208 264.323 54.6802L269.119 61.0831ZM277.505 55.1877C278.829 54.3443 280.088 53.5053 281.309 52.6922C282.539 51.8725 283.731 51.0787 284.974 50.2867L280.676 43.5391C279.352 44.3825 278.093 45.2215 276.873 46.0346C275.643 46.8543 274.451 47.6481 273.208 48.4402L277.505 55.1877ZM284.921 50.3199C287.824 48.5344 290.876 47.0143 294.058 45.2977L290.259 38.2571C287.379 39.8114 283.889 41.5623 280.73 43.5058L284.921 50.3199ZM294.075 45.2887C296.65 43.8835 299.156 42.5168 301.877 41.1586L298.305 34.0005C295.433 35.4338 292.803 36.8691 290.243 38.2661L294.075 45.2887ZM301.88 41.1572C304.563 39.8155 308.192 38.2275 311.468 36.8242L308.318 29.4704C305.052 30.8692 301.223 32.5415 298.302 34.0018L301.88 41.1572ZM311.548 36.789C314.043 35.6552 316.741 34.5307 319.19 33.6415L316.46 26.1218C313.774 27.0972 310.879 28.306 308.238 29.5055L311.548 36.789ZM317.825 25.8817H317.82V33.8817H317.825V25.8817ZM319.31 33.594C322.591 32.2776 325.944 31.1568 329.352 30.2462L327.288 22.5172C323.561 23.5127 319.903 24.7359 316.331 26.1693L319.31 33.594ZM329.583 30.1771C332.446 29.2244 335.058 28.2739 337.624 27.3369L334.88 19.8222C332.311 20.7604 329.798 21.6743 327.057 22.5862L329.583 30.1771ZM337.167 27.4735C340.786 26.6234 345.007 25.8031 348.653 24.8927L346.716 17.1309C342.894 18.0851 339.656 18.6711 335.338 19.6855L337.167 27.4735ZM348.734 24.8718C349.923 24.5484 351.126 24.2747 352.422 23.98C353.693 23.6913 355.057 23.3815 356.434 23.0067L354.331 15.2878C353.145 15.6109 351.945 15.8844 350.649 16.179C349.379 16.4676 348.014 16.7773 346.635 17.1518L348.734 24.8718ZM355.808 23.1246L362.339 22.4267L361.489 14.472L354.957 15.1699L355.808 23.1246ZM361.914 22.4494H361.919V14.4494H361.914V22.4494ZM359.003 15.7109C335.633 40.5938 319.614 71.4707 312.736 104.909L320.572 106.521C327.152 74.532 342.477 44.9929 364.835 21.1878L359.003 15.7109ZM318.089 101.981C295.626 93.3467 274.79 80.9557 256.484 65.3383L251.292 71.4244C270.288 87.631 291.91 100.489 315.218 109.448L318.089 101.981ZM256.543 71.3737C258.392 69.7334 260.136 68.2125 261.868 66.9288L257.105 60.5012C255.056 62.0197 253.072 63.7584 251.234 65.389L256.543 71.3737ZM242.851 79.088C263.365 97.0637 286.929 111.224 312.433 120.888L315.268 113.407C290.658 104.082 267.92 90.418 248.123 73.0711L242.851 79.088ZM309.949 116.264C301.821 152.158 297.72 188.845 297.72 225.648H305.72C305.72 189.439 309.755 153.345 317.752 118.031L309.949 116.264ZM301.72 221.648H279.788V229.648H301.72V221.648ZM283.788 225.648V217.481H275.788V225.648H283.788ZM283.788 217.416C283.701 212.052 279.374 207.735 274.02 207.648L273.89 215.647C274.932 215.664 275.772 216.503 275.789 217.546L283.788 217.416ZM273.955 207.648H180.152V215.648H273.955V207.648ZM184.134 212.027C188.955 161.441 211.699 114.243 248.264 78.9523L242.708 73.1961C204.771 109.812 181.172 158.782 176.17 211.268L184.134 212.027ZM241.546 76.7659L241.547 76.7712L249.426 75.3878L249.425 75.3825L241.546 76.7659ZM162.419 227.32H268.116V219.32H162.419V227.32ZM264.116 223.32V341.85H272.116V223.32H264.116ZM268.116 337.85H191.819V345.85H268.116V337.85ZM195.819 341.85V305.684H187.819V341.85H195.819ZM195.819 305.71C195.836 303.1 194.81 300.575 192.955 298.72L187.297 304.376C187.63 304.709 187.822 305.173 187.819 305.657L195.819 305.71ZM192.954 298.72C191.097 296.862 188.578 295.833 185.958 295.85L186.012 303.85C186.497 303.847 186.957 304.036 187.298 304.377L192.954 298.72ZM185.985 295.85H162.397V303.85H185.985V295.85ZM166.397 299.851L166.419 223.321L158.419 223.318L158.397 299.849L166.397 299.851ZM133.017 315.517H180.153V307.517H133.017V315.517ZM176.153 311.517V341.85H184.153V311.517H176.153ZM180.153 337.85H132.997V345.85H180.153V337.85ZM136.997 341.853L137.017 311.52L129.017 311.514L128.997 341.848L136.997 341.853ZM74.4493 286.116H121.351V278.116H74.4493V286.116ZM117.351 282.116V341.85H125.351V282.116H117.351ZM121.351 337.85H74.4293V345.85H121.351V337.85ZM78.4293 341.852L78.4493 282.117L70.4493 282.114L70.4293 341.849L78.4293 341.852ZM305.447 428.153L301.249 439.121L308.721 441.981L312.918 431.012L305.447 428.153ZM301.244 439.135L282.342 489.067L289.824 491.899L308.726 441.967L301.244 439.135ZM286.083 486.483H87.9634V494.483H286.083V486.483ZM91.54 488.692L22.9413 351.719L15.7882 355.301L84.3869 492.274L91.54 488.692ZM19.3648 357.51H338.098V349.51H19.3648V357.51ZM334.365 352.074L328.531 367.24L335.998 370.112L341.831 354.946L334.365 352.074ZM328.523 367.261L321.992 384.526L329.475 387.357L336.006 370.092L328.523 367.261ZM321.993 384.523L305.443 428.164L312.923 431.001L329.474 387.36L321.993 384.523ZM355.38 447.582H355.385V439.582H355.38V447.582ZM356.023 439.633C353.654 439.251 351.301 438.735 348.979 438.096L346.854 445.808C349.449 446.523 352.085 447.101 354.747 447.531L356.023 439.633ZM348.831 438.058C346.799 437.58 344.833 437.163 342.914 436.755C340.984 436.345 339.101 435.945 337.164 435.49L335.335 443.278C337.368 443.756 339.333 444.173 341.252 444.581C343.182 444.991 345.065 445.391 347.002 445.846L348.831 438.058ZM337.682 435.65C334.957 434.604 332.17 433.701 329.344 432.95L327.291 440.683C329.839 441.359 332.355 442.175 334.817 443.119L337.682 435.65ZM329.58 433.021C326.76 432.083 324.1 431.194 321.454 430.093L318.379 437.478C321.337 438.71 324.271 439.686 327.055 440.612L329.58 433.021ZM323.654 435.21L336.018 402.778L328.543 399.928L316.179 432.36L323.654 435.21ZM335.098 404.193L335.103 404.188L329.469 398.509L329.464 398.514L335.098 404.193ZM328.588 402.872C335.527 419.711 345.948 434.89 359.165 447.418L364.669 441.612C352.269 429.859 342.493 415.62 335.984 399.824L328.588 402.872ZM362.237 440.528C360.198 440.364 358.171 440.074 356.16 439.663L354.559 447.501C356.881 447.976 359.229 448.312 361.596 448.502L362.237 440.528ZM355.399 447.582L355.42 447.582L355.34 439.582L355.32 439.583L355.399 447.582ZM389.782 442.695C381.33 440.963 372.733 435.048 364.482 424.974C356.257 414.931 348.627 401.051 342.075 384.04L334.61 386.915C341.36 404.441 349.367 419.144 358.293 430.043C367.194 440.911 377.263 448.295 388.176 450.532L389.782 442.695ZM342.086 386.887L355.617 350.955L348.13 348.136L334.599 384.068L342.086 386.887ZM355.669 350.808L356.601 348.006L349.01 345.481L348.078 348.283L355.669 350.808ZM351.017 350.321L351.027 350.326L354.605 343.171L354.594 343.166L351.017 350.321ZM353.584 350.674C365.307 348.381 377.196 347.003 389.135 346.548L388.83 338.554C376.479 339.025 364.179 340.45 352.048 342.823L353.584 350.674ZM384.983 342.55L384.979 446.613L392.979 446.614L392.983 342.551L384.983 342.55ZM386.15 333.707L386.155 333.712L391.812 328.056L391.807 328.05L386.15 333.707ZM388.864 326.886C378.131 327.209 367.434 328.236 356.839 329.968L358.129 337.863C368.376 336.188 378.722 335.195 389.104 334.882L388.864 326.886ZM361.236 335.302L381.766 279.772L374.263 276.997L353.732 332.528L361.236 335.302ZM380.843 281.213L381.077 280.979L375.421 275.321L375.186 275.556L380.843 281.213ZM382.006 279.522L392.741 250.121L385.226 247.377L374.492 276.778L382.006 279.522ZM384.983 248.749L384.979 330.879L392.979 330.879L392.983 248.749L384.983 248.749ZM404.645 446.614L404.651 342.551L396.651 342.551L396.645 446.613L404.645 446.614ZM400.529 346.549C420.933 347.167 441.141 350.715 460.538 357.085L463.035 349.485C442.909 342.876 421.942 339.194 400.772 338.553L400.529 346.549ZM457.919 352.265C451.091 378.14 442.182 399.761 432.038 415.454C421.825 431.254 410.756 440.451 399.824 442.701L401.437 450.536C415.467 447.65 428.081 436.313 438.757 419.797C449.502 403.173 458.69 380.696 465.654 354.306L457.919 352.265ZM401.92 450.405L401.935 450.4L399.355 442.827L399.341 442.832L401.92 450.405ZM527.477 396.274C525.274 398.253 522.974 400.111 520.578 401.837L525.254 408.328C527.889 406.43 530.412 404.391 532.824 402.225L527.477 396.274ZM520.518 401.881C517.83 403.895 515.138 405.696 512.188 407.507L516.374 414.325C519.497 412.407 522.398 410.469 525.314 408.284L520.518 401.881ZM511.93 407.679C509.395 409.52 507.135 411.104 504.663 412.678L508.961 419.425C511.625 417.729 514.031 416.041 516.631 414.153L511.93 407.679ZM504.716 412.645C501.813 414.43 498.761 415.95 495.579 417.667L499.378 424.707C502.259 423.153 505.748 421.402 508.908 419.459L504.716 412.645ZM495.563 417.676C492.987 419.081 490.482 420.448 487.76 421.806L491.332 428.964C494.205 427.531 496.834 426.095 499.394 424.698L495.563 417.676ZM487.757 421.807C485.074 423.149 481.445 424.737 478.169 426.14L481.319 433.494C484.585 432.095 488.414 430.423 491.335 428.963L487.757 421.807ZM479.744 433.817H479.749V425.817H479.744V433.817ZM478.031 426.205C475.577 427.373 473.063 428.407 470.493 429.308L473.141 436.857C475.977 435.863 478.755 434.72 481.468 433.429L478.031 426.205ZM470.328 429.37C467.046 430.687 463.694 431.808 460.285 432.718L462.349 440.447C466.076 439.452 469.734 438.229 473.306 436.795L470.328 429.37ZM460.054 432.787C458.624 433.263 457.258 433.738 455.919 434.204C454.573 434.673 453.255 435.132 451.881 435.592L454.42 443.178C455.848 442.7 457.212 442.225 458.549 441.76C459.892 441.292 461.208 440.835 462.58 440.378L460.054 432.787ZM452.182 435.504C450.38 435.954 448.57 436.35 446.694 436.761C444.836 437.168 442.913 437.589 440.982 438.072L442.923 445.833C444.721 445.384 446.53 444.987 448.405 444.576C450.262 444.169 452.186 443.748 454.119 443.266L452.182 435.504ZM441.234 438.018C438.47 438.522 435.738 439.267 433.204 439.958L435.306 447.677C437.896 446.971 440.299 446.321 442.671 445.888L441.234 438.018ZM433.83 439.84L427.298 440.538L428.149 448.492L434.68 447.794L433.83 439.84ZM427.723 440.515H427.718V448.515H427.723V440.515ZM430.634 447.254C454.004 422.371 470.023 391.494 476.902 358.056L469.066 356.444C462.485 388.432 447.16 417.972 424.803 441.777L430.634 447.254ZM471.548 360.983C494.011 369.618 514.847 382.009 533.153 397.626L538.345 391.54C519.349 375.333 497.727 362.476 474.419 353.516L471.548 360.983ZM533.132 391.558C531.203 393.226 529.45 394.758 527.73 396.065L532.571 402.434C534.539 400.939 536.513 399.211 538.366 397.608L533.132 391.558ZM544.145 390.885H544.151V382.885H544.145V390.885ZM546.787 383.876C526.272 365.901 502.709 351.741 477.204 342.076L474.369 349.557C498.979 358.883 521.717 372.546 541.514 389.893L546.787 383.876ZM479.688 346.7C487.816 310.806 491.917 274.119 491.917 237.317H483.917C483.917 273.525 479.882 309.619 471.885 344.933L479.688 346.7ZM487.917 241.317H610.417V233.317H487.917V241.317ZM606.419 237.2C604.798 292.762 581.441 345.472 541.378 384.007L546.924 389.773C588.496 349.786 612.734 295.09 614.415 237.434L606.419 237.2ZM546.783 383.877L546.776 383.872L541.514 389.898L541.52 389.903L546.783 383.877Z" fill="white" mask="url(#path-1-outside-1_64_1023)"/>
<path d="M335.67 474.704C332.278 473.288 328.431 474.433 326.334 477.292L326.115 477.25L325.488 478.742L308.993 517.976H90.5213C86.198 517.976 82.688 521.486 82.688 525.809C82.688 530.139 86.1991 533.643 90.5213 533.643L314.201 533.643L314.206 533.643C317.359 533.636 320.212 531.745 321.431 528.823C321.432 528.821 321.432 528.819 321.433 528.817L339.936 484.793L339.689 484.689L339.96 484.739C341.477 480.782 339.575 476.341 335.673 474.705L335.67 474.704Z" fill="white" stroke="white" stroke-width="4"/>
<path d="M255.398 241.391L255.398 241.391C253.929 239.922 251.936 239.097 249.859 239.097H185.927C181.597 239.097 178.093 242.608 178.093 246.931C178.093 251.259 181.598 254.764 185.927 254.764H249.859C251.936 254.764 253.929 253.939 255.398 252.47L255.398 252.47C256.867 251.001 257.692 249.008 257.692 246.931C257.692 244.853 256.867 242.86 255.398 241.391Z" fill="white" stroke="white" stroke-width="4"/>
<path d="M112.481 532.651H112.479C106.511 532.651 100.783 535.023 96.5593 539.247L96.5593 539.247C92.3404 543.466 89.9683 549.193 89.9683 555.161C89.9683 561.129 92.3405 566.856 96.5583 571.079L96.5602 571.081C100.784 575.299 106.511 577.671 112.479 577.671C118.447 577.671 124.174 575.299 128.397 571.081L128.399 571.08C132.617 566.856 134.989 561.129 134.989 555.161V555.159C134.984 549.191 132.606 543.47 128.388 539.252C124.17 535.034 118.449 532.656 112.481 532.651ZM112.479 562.005C109.711 562.005 107.216 560.337 106.155 557.782C105.099 555.221 105.684 552.279 107.638 550.32C109.596 548.367 112.539 547.782 115.1 548.838C117.655 549.898 119.323 552.393 119.323 555.161C119.323 556.973 118.602 558.715 117.32 560.002C116.032 561.285 114.29 562.005 112.479 562.005Z" fill="white" stroke="white" stroke-width="4"/>
<path d="M264.155 560.002C264.155 560.002 264.155 560.002 264.155 560.002C262.873 561.284 261.132 562.005 259.319 562.005C256.55 562.005 254.055 560.337 252.995 557.782L262.699 546.989C266.006 548.359 268.163 551.583 268.163 555.161C268.163 557.505 267.23 559.755 265.569 561.417L264.155 560.002ZM264.155 560.002C265.442 558.715 266.163 556.974 266.163 555.161C266.163 552.394 264.495 549.899 261.935 548.838L264.155 560.002ZM259.321 532.651H259.319C253.345 532.651 247.623 535.023 243.399 539.247L243.399 539.247C239.18 543.466 236.808 549.193 236.808 555.161C236.808 561.129 239.18 566.856 243.398 571.079L243.4 571.081C247.623 575.299 253.345 577.671 259.319 577.671C265.286 577.671 271.014 575.299 275.233 571.08C279.457 566.857 281.829 561.129 281.829 555.161L281.829 555.157C281.818 549.192 279.446 543.471 275.228 539.252C271.01 535.034 265.289 532.656 259.321 532.651ZM254.477 550.321C256.436 548.366 259.379 547.782 261.935 548.838L252.994 557.78C251.934 555.221 252.519 552.28 254.477 550.321Z" fill="white" stroke="white" stroke-width="4"/>
</svg>
