<svg width="129" height="125" viewBox="0 0 129 125" fill="none" xmlns="http://www.w3.org/2000/svg">
<path d="M62.4906 66.4747H23.9575C22.8981 66.4747 21.9717 67.402 21.9717 68.4605V106.994C21.9717 108.053 22.899 108.979 23.9575 108.979H62.4906C63.55 108.979 64.4764 108.052 64.4764 106.994V68.4605C64.4764 67.4011 63.6821 66.4747 62.4906 66.4747ZM60.5038 105.008H25.9432V70.4472H60.5038V105.008Z" fill="white"/>
<path d="M128.559 55.8792L117.039 34.9575V23.0406C117.039 21.9811 116.112 21.0547 115.054 21.0547L76.7854 21.0538V17.2142H86.1874C87.2469 17.2142 88.1733 16.2869 88.1733 15.2284V1.98678C88.1733 0.927337 87.2459 0.000923434 86.1874 0.000923434L43.2847 0C42.2253 0 41.2989 0.927359 41.2989 1.98586V15.2274C41.2989 16.2869 42.2262 17.2133 43.2847 17.2133H52.6867V21.0529L14.551 21.0538C13.4915 21.0538 12.5651 21.9812 12.5651 23.0397V34.8247L0.911317 55.8795C0.51414 56.5417 0.646226 57.3361 1.0434 57.9983C1.17548 58.1304 4.48598 62.6334 10.4454 63.5598C11.1077 63.6919 11.7699 63.6919 12.4313 63.6919V123.014C12.4313 124.074 13.3586 125 14.4171 125H114.788C115.848 125 116.774 124.073 116.774 123.014L116.775 63.5595C117.437 63.5595 118.1 63.5595 118.761 63.4274C124.853 62.633 128.03 58.1312 128.163 57.8659C128.825 57.3357 128.825 56.5414 128.561 55.8791L128.559 55.8792ZM45.2699 4.10465H84.2001V13.3735H45.2699V4.10465ZM56.6576 17.3462H72.8124V21.1858L56.6576 21.1867V17.3462ZM112.934 25.0263V33.1037H16.5356V25.0263H112.934ZM62.7488 56.0116C59.8356 58.6597 57.0553 59.9843 54.2741 59.7193C50.9637 59.4542 48.4476 57.2031 47.5212 56.1438L49.1099 37.2088H62.7487L62.7488 56.0116ZM45.1374 37.2086L43.5487 55.7463C34.2799 62.4993 28.1883 58.2625 26.3344 56.4086L32.558 37.2085L45.1374 37.2086ZM66.7205 37.2086H80.3593L81.949 56.1445C81.0216 57.204 78.5064 59.4549 75.196 59.72C72.4148 59.8521 69.6345 58.6605 66.7214 56.0123L66.7205 37.2086ZM85.9215 55.7473L84.3328 37.2095H96.9121L103.135 56.2767C101.281 58.1305 95.1902 62.5002 85.9213 55.7474L85.9215 55.7473ZM11.1066 59.5869C8.19343 59.1897 6.20743 57.601 5.1481 56.5415L15.8735 37.2084H28.4528L22.3622 55.6141C18.3894 58.6604 14.5501 59.9839 11.1066 59.5869ZM99.2955 120.895H72.5475V70.7098H99.1631L99.164 120.895H99.2955ZM103.268 120.895V68.7235C103.268 67.6641 102.341 66.7377 101.282 66.7377H70.5619C69.5025 66.7377 68.576 67.665 68.576 68.7235V120.895H16.5366V63.0297C18.9196 62.3674 21.4358 61.1759 23.9517 59.4542C25.4083 60.7787 28.1894 62.7646 32.029 63.2938C36.2668 63.823 40.7687 62.6315 45.2706 59.4542C46.8593 61.0429 49.9056 63.4269 54.0103 63.692H54.9377C58.2481 63.692 61.5585 62.2354 64.8689 59.4542C68.0471 62.2354 71.3575 63.692 74.8 63.692H75.7274C79.8321 63.4269 82.8774 61.0439 84.4671 59.4542C88.969 62.4995 93.4709 63.8239 97.7087 63.2938C101.548 62.7645 104.329 60.7776 105.786 59.4542C108.302 61.1759 110.685 62.3673 113.201 63.0297V120.895H103.268ZM118.364 59.5869C114.921 59.984 111.081 58.6595 107.108 55.6141L101.016 37.2084H113.595L124.322 56.5415C123.262 57.601 121.277 59.1896 118.363 59.5869H118.364Z" fill="white"/>
<path d="M81.4095 95.4691C81.4095 97.151 80.0462 98.5144 78.3642 98.5144C76.6822 98.5144 75.3188 97.1511 75.3188 95.4691C75.3188 93.7871 76.6822 92.4228 78.3642 92.4228C80.0462 92.4228 81.4095 93.787 81.4095 95.4691Z" fill="white"/>
<path d="M53.1941 79.4507C53.5913 79.8479 54.1215 79.9799 54.6507 79.9799C55.18 79.9799 55.7102 79.8479 56.1073 79.4507C56.9017 78.6563 56.9017 77.4648 56.1073 76.6695L53.062 73.6241C52.2677 72.8298 51.0762 72.8298 50.2808 73.6241C49.4865 74.4185 49.4865 75.61 50.2808 76.4054L53.1941 79.4507Z" fill="white"/>
<path d="M52.569 88.5879C52.9662 88.9851 53.4964 89.1172 54.0256 89.1172C54.5549 89.1172 55.0851 88.9851 55.4823 88.5879C56.2766 87.7936 56.2766 86.6021 55.4823 85.8067L44.7568 75.0813C43.9625 74.2869 42.771 74.2869 41.9756 75.0813C41.1813 75.8756 41.1813 77.0672 41.9756 77.8625L52.569 88.5879Z" fill="white"/>
</svg>
