<svg width="654" height="654" viewBox="0 0 654 654" fill="none" xmlns="http://www.w3.org/2000/svg">
<path d="M198.269 455.067C219.8 477.051 243.305 497.02 268.483 514.717C273.68 518.254 279.951 519.863 286.212 519.259C292.467 518.66 298.321 515.889 302.748 511.431L331.055 483.124C336.122 478.056 343.002 475.207 350.175 475.207C357.347 475.207 364.221 478.056 369.295 483.124L438.284 552.113C443.352 557.186 446.201 564.061 446.201 571.233C446.201 578.405 443.352 585.285 438.284 590.359L383.263 645.38C378.7 650.036 372.57 652.833 366.06 653.234C339.123 654.573 262.336 644.245 135.713 517.621C9.08791 390.996 -1.23343 314.208 0.0999015 287.274C0.500941 280.764 3.29777 274.634 7.95924 270.072L62.9806 215.05L62.9754 215.055C68.0483 209.982 74.9284 207.134 82.1007 207.134C89.2726 207.134 96.1474 209.982 101.221 215.055L170.205 284.039C175.278 289.112 178.127 295.987 178.127 303.159C178.127 310.332 175.278 317.211 170.205 322.285L141.902 350.587C137.444 355.02 134.673 360.869 134.074 367.129C133.47 373.384 135.079 379.655 138.616 384.853C156.313 410.03 176.282 433.535 198.266 455.066L198.269 455.067Z" fill="#45D3A1"/>
<path d="M372.123 235.08C372.102 220.241 366.201 206.023 355.711 195.533C345.216 185.044 330.997 179.143 316.159 179.127C297.743 179.148 280.085 186.476 267.065 199.501C254.045 212.527 246.721 230.184 246.705 248.6V252.043C246.705 258.485 251.929 263.709 258.372 263.709C264.815 263.709 270.039 258.485 270.039 252.043V248.6C270.049 236.371 274.914 224.647 283.56 215.996C292.206 207.345 303.929 202.475 316.159 202.46C324.778 202.569 333.008 206.043 339.107 212.137C345.2 218.231 348.674 226.46 348.789 235.08C348.789 263.71 323.382 282.121 296.492 301.616C276.898 313.449 260.284 329.626 247.94 348.908C246.127 352.522 246.314 356.819 248.445 360.262C250.57 363.705 254.33 365.798 258.372 365.793H360.454C366.897 365.793 372.121 360.569 372.121 354.126C372.121 347.684 366.897 342.46 360.454 342.46H282.252C291.111 334.585 300.44 327.257 310.189 320.517C339.22 299.47 372.121 275.616 372.121 235.08L372.123 235.08Z" fill="#45D3A1"/>
<path d="M503.376 301.627H494.626V190.793C494.626 185.653 491.261 181.116 486.339 179.627C481.423 178.137 476.105 180.043 473.251 184.319L391.584 306.819C389.204 310.403 388.985 315.002 391.017 318.793C393.043 322.585 396.996 324.955 401.293 324.96H471.293V354.127C471.293 360.569 476.517 365.793 482.959 365.793C489.402 365.793 494.626 360.569 494.626 354.127V324.96H503.376C509.819 324.96 515.043 319.736 515.043 313.293C515.043 306.851 509.819 301.627 503.376 301.627ZM471.293 301.627H423.1L471.293 229.324V301.627Z" fill="#45D3A1"/>
<path d="M357.549 73.9427C351.107 73.9427 345.883 68.7187 345.883 62.276V11.6667C345.883 5.224 351.107 0 357.549 0C360.643 0 363.612 1.22917 365.799 3.41667C367.987 5.60416 369.216 8.57293 369.216 11.6667V62.276C369.216 65.3697 367.987 68.3385 365.799 70.526C363.612 72.7135 360.643 73.9427 357.549 73.9427Z" fill="#45D3A1"/>
<path d="M230.696 99.4L205.384 55.5667C203.821 52.8896 203.389 49.6969 204.186 46.7021C204.978 43.7021 206.936 41.15 209.618 39.598C212.306 38.0459 215.499 37.6292 218.493 38.4366C221.483 39.2439 224.035 41.2074 225.571 43.9002L250.883 87.7335H250.889C252.451 90.4106 252.878 93.6032 252.086 96.598C251.29 99.598 249.336 102.155 246.649 103.707C243.967 105.254 240.774 105.676 237.779 104.869C234.784 104.062 232.238 102.093 230.696 99.4Z" fill="#45D3A1"/>
<path d="M489.496 547.667L464.199 503.833V503.838C462.636 501.156 462.204 497.969 463.001 494.969C463.798 491.974 465.751 489.417 468.438 487.865C471.12 486.312 474.313 485.896 477.308 486.703C480.297 487.51 482.849 489.479 484.386 492.172L509.683 536.005V536C511.246 538.682 511.678 541.87 510.886 544.865C510.09 547.865 508.131 550.422 505.449 551.974C502.762 553.521 499.574 553.943 496.579 553.135C493.584 552.328 491.038 550.359 489.496 547.667Z" fill="#45D3A1"/>
<path d="M101.376 147.893V147.888L101.381 147.893C102.928 145.211 105.475 143.258 108.464 142.456C111.449 141.654 114.636 142.07 117.313 143.617L161.157 168.924C163.84 170.471 165.793 173.018 166.595 176.007C167.397 178.997 166.98 182.184 165.433 184.861L165.428 184.867C162.209 190.445 155.074 192.356 149.491 189.137L105.647 163.831C100.069 160.612 98.1571 153.477 101.376 147.893Z" fill="#45D3A1"/>
<path d="M549.656 406.707V406.701H549.661C551.208 404.024 553.755 402.066 556.744 401.264C559.734 400.467 562.916 400.884 565.599 402.431L609.421 427.733C612.098 429.28 614.057 431.832 614.853 434.817C615.656 437.806 615.239 440.994 613.692 443.671L613.687 443.676C610.468 449.254 603.327 451.166 597.749 447.942L553.927 422.639C551.25 421.092 549.291 418.545 548.489 415.556C547.693 412.571 548.109 409.384 549.656 406.707Z" fill="#45D3A1"/>
<path d="M641.643 307.453H591.033C584.591 307.453 579.367 302.229 579.367 295.787C579.367 289.344 584.591 284.12 591.033 284.12H641.643C644.736 284.12 647.7 285.349 649.887 287.537C652.08 289.724 653.309 292.693 653.309 295.787C653.309 298.88 652.08 301.849 649.887 304.037C647.7 306.224 644.736 307.453 641.643 307.453Z" fill="#45D3A1"/>
<path d="M553.923 168.933L597.751 143.631C600.428 142.084 603.615 141.667 606.605 142.469C609.594 143.271 612.141 145.224 613.688 147.907C615.235 150.589 615.657 153.771 614.855 156.761C614.053 159.75 612.099 162.297 609.417 163.844L565.595 189.141C560.011 192.36 552.876 190.449 549.652 184.871V184.865C546.433 179.287 548.344 172.152 553.923 168.933Z" fill="#45D3A1"/>
<path d="M468.469 103.667C462.891 100.443 460.985 93.3073 464.204 87.7293L489.501 43.896C491.043 41.2085 493.589 39.2397 496.584 38.4324C499.579 37.6251 502.767 38.0418 505.454 39.5938C508.136 41.146 510.095 43.7032 510.891 46.698C511.683 49.698 511.251 52.8854 509.688 55.5625L484.391 99.3959C482.849 102.073 480.302 104.031 477.313 104.833C474.328 105.63 471.146 105.214 468.469 103.667Z" fill="#45D3A1"/>
</svg>
