<svg width="43" height="40" viewBox="0 0 43 40" fill="none" xmlns="http://www.w3.org/2000/svg">
<path d="M31.106 5.15722V10.4624L30.0436 9.39992C29.8373 9.19369 29.5009 9.19369 29.287 9.39992C29.0807 9.60614 29.0807 9.94257 29.287 10.1565L31.2588 12.1287C31.3657 12.2357 31.4956 12.2814 31.6332 12.2814C31.7708 12.2814 31.9084 12.2279 32.0076 12.1287L33.9798 10.1565C34.186 9.95031 34.186 9.61388 33.9798 9.39992C33.7736 9.19369 33.4371 9.19369 33.2232 9.39992L32.1607 10.4624V5.15722C32.1607 2.67307 30.1429 0.654785 27.6583 0.654785H21.4207C21.1303 0.654785 20.8857 0.891623 20.8857 1.1897C20.8857 1.48777 21.1226 1.7246 21.4207 1.7246H27.6583C29.5696 1.72496 31.106 3.26145 31.106 5.15722Z" fill="black"/>
<path d="M18.4708 36.3759H12.2257C10.3299 36.3759 8.78571 34.8317 8.78571 32.9359V27.6308L9.85625 28.7013C10.0625 28.9075 10.3989 28.9075 10.6129 28.7013C10.8191 28.4951 10.8191 28.1587 10.6129 27.9447L8.6407 25.9725C8.43448 25.7663 8.09806 25.7663 7.89148 25.9725L5.91932 27.9447C5.71309 28.1509 5.71309 28.4874 5.91932 28.7013C6.0263 28.8083 6.15615 28.854 6.29375 28.854C6.43134 28.854 6.56895 28.8006 6.66818 28.7013L7.73061 27.6389V32.944C7.73061 35.4282 9.74845 37.4464 12.233 37.4464H18.4707C18.761 37.4464 19.0056 37.2096 19.0056 36.9115C19.006 36.6128 18.7614 36.3759 18.4708 36.3759Z" fill="black"/>
<path d="M16.0654 3.2723H12.9832V1.96341C12.9832 1.30885 12.4525 0.77874 11.7979 0.77874C11.7301 0.77874 11.668 0.801338 11.6116 0.829391C11.4648 0.349903 11.0245 0 10.4996 0H7.46266C6.93771 0 6.49746 0.349876 6.35635 0.829391C6.29996 0.795624 6.23785 0.773026 6.17002 0.773026C5.51512 0.773026 4.98474 1.30343 4.98474 1.9577V3.26658H1.90805C0.858156 3.26658 0 4.11852 0 5.16794V10.0426C0 10.2569 0.174898 10.4374 0.395015 10.4374H0.541844V14.9173C0.541844 15.9666 1.39993 16.8243 2.44989 16.8243H15.5288C16.5787 16.8243 17.4311 15.9667 17.4311 14.9173V10.4374H17.578C17.7924 10.4374 17.973 10.2626 17.973 10.0426V5.17366C17.9675 4.1243 17.1151 3.2723 16.0652 3.2723L16.0654 3.2723ZM7.46252 0.795364H10.4994C10.7084 0.795364 10.8775 0.96472 10.8775 1.17329V1.17901C10.8775 1.38784 10.7081 1.55694 10.4994 1.55694H7.46252C7.25358 1.55694 7.08439 1.38758 7.08439 1.1733C7.08413 0.964722 7.25358 0.795364 7.46252 0.795364ZM5.76889 1.96341C5.76889 1.74341 5.9495 1.5686 6.16391 1.5686C6.23173 1.5686 6.29384 1.546 6.35024 1.51223C6.49707 1.98627 6.9373 2.33591 7.45655 2.33591H10.4935C11.0184 2.33591 11.4587 1.98603 11.5998 1.51223C11.6562 1.546 11.7183 1.5686 11.7861 1.5686C12.0062 1.5686 12.1811 1.74912 12.1811 1.96341V3.2723H5.76886L5.76889 1.96341ZM0.784415 5.17359C0.784415 4.55851 1.28676 4.05641 1.90789 4.05641H16.0652C16.6806 4.05641 17.183 4.5585 17.183 5.17359V9.65887H13.9202V9.32042C13.9202 8.84093 13.5252 8.44588 13.0395 8.44588H12.1419C11.6564 8.44588 11.2612 8.83524 11.2612 9.32042V9.65887H6.45733V9.32042C6.45733 8.84093 6.06232 8.44588 5.57662 8.44588H4.67955C4.19409 8.44588 3.79884 8.83524 3.79884 9.32042V9.65887H0.784481L0.784415 5.17359ZM12.0458 9.31469C12.0458 9.26949 12.0853 9.23001 12.1362 9.23001H13.0338C13.0845 9.23001 13.1242 9.2695 13.1242 9.31469V10.8945C13.1242 10.9397 13.0847 10.9791 13.0338 10.9791H12.1362C12.0855 10.9791 12.0458 10.9397 12.0458 10.8945V9.31469ZM4.58854 9.31469C4.58854 9.26949 4.62804 9.23001 4.67897 9.23001H5.57658C5.62726 9.23001 5.66702 9.2695 5.66702 9.31469V10.8945C5.66702 10.9451 5.62752 10.9791 5.57658 10.9791H4.67897C4.6283 10.9791 4.58854 10.9397 4.58854 10.8945V9.31469ZM16.6402 14.9174C16.6402 15.5325 16.1379 16.0403 15.5225 16.0403L2.44358 16.0401C1.82273 16.0401 1.32011 15.538 1.32011 14.9172V10.4373H3.79831V10.8888C3.79831 11.3683 4.19332 11.7633 4.67901 11.7633H5.57662C6.06208 11.7633 6.45733 11.3739 6.45733 10.8888V10.4373H11.2612V10.8888C11.2612 11.3683 11.6562 11.7633 12.1419 11.7633H13.0395C13.525 11.7633 13.9202 11.3739 13.9202 10.8888V10.4373H16.6466L16.646 14.9174L16.6402 14.9174Z" fill="black"/>
<path d="M40.7441 25.0874H37.3607V23.6471C37.3607 22.9268 36.7781 22.3435 36.0595 22.3435C35.9851 22.3435 35.9169 22.3684 35.855 22.3992C35.6938 21.8716 35.2105 21.4866 34.6342 21.4866H31.3005C30.7242 21.4866 30.241 21.8716 30.086 22.3992C30.0241 22.3621 29.956 22.3372 29.8815 22.3372C29.1626 22.3372 28.5804 22.9209 28.5804 23.6408V25.0811H25.2029C24.0504 25.0811 23.1084 26.0186 23.1084 27.1734V32.5375C23.1084 32.7733 23.3004 32.9719 23.542 32.9719H23.7032V37.9015C23.7032 39.0563 24.6452 40.0001 25.7978 40.0001H40.1551C41.3076 40.0001 42.2433 39.0563 42.2433 37.9015V32.9719H42.4045C42.6399 32.9719 42.8381 32.7796 42.8381 32.5375V27.1797C42.8321 26.025 41.8964 25.0874 40.7439 25.0874L40.7441 25.0874ZM31.3003 22.3618H34.6341C34.8634 22.3618 35.0492 22.5482 35.0492 22.7777V22.784C35.0492 23.0138 34.8632 23.1998 34.6341 23.1998H31.3003C31.071 23.1998 30.8853 23.0135 30.8853 22.7777C30.885 22.5482 31.071 22.3618 31.3003 22.3618ZM29.4412 23.6471C29.4412 23.405 29.6394 23.2127 29.8748 23.2127C29.9492 23.2127 30.0174 23.1878 30.0793 23.1506C30.2405 23.6723 30.7238 24.057 31.2938 24.057H34.6275C35.2038 24.057 35.6871 23.672 35.842 23.1506C35.9039 23.1878 35.9721 23.2127 36.0465 23.2127C36.2882 23.2127 36.4802 23.4113 36.4802 23.6471V25.0874H29.4411L29.4412 23.6471ZM23.9695 27.1796C23.9695 26.5028 24.5209 25.9502 25.2028 25.9502H40.7439C41.4195 25.9502 41.9709 26.5027 41.9709 27.1796V32.1152H38.3892V31.7428C38.3892 31.2151 37.9556 30.7804 37.4224 30.7804H36.4371C35.9042 30.7804 35.4703 31.2089 35.4703 31.7428V32.1152H30.1969V31.7428C30.1969 31.2151 29.7633 30.7804 29.2301 30.7804H28.2453C27.7124 30.7804 27.2786 31.2089 27.2786 31.7428V32.1152H23.9696L23.9695 27.1796ZM36.3316 31.7365C36.3316 31.6867 36.3749 31.6433 36.4308 31.6433H37.4162C37.4718 31.6433 37.5155 31.6867 37.5155 31.7365V33.4749C37.5155 33.5246 37.4721 33.568 37.4162 33.568H36.4308C36.3752 33.568 36.3316 33.5246 36.3316 33.4749V31.7365ZM28.1454 31.7365C28.1454 31.6867 28.1888 31.6433 28.2447 31.6433H29.2301C29.2857 31.6433 29.3293 31.6867 29.3293 31.7365V33.4749C29.3293 33.5306 29.286 33.568 29.2301 33.568H28.2447C28.1891 33.568 28.1454 33.5246 28.1454 33.4749V31.7365ZM41.3751 37.9017C41.3751 38.5786 40.8237 39.1374 40.1481 39.1374L25.7908 39.1371C25.1093 39.1371 24.5575 38.5846 24.5575 37.9014V32.9718H27.278V33.4686C27.278 33.9962 27.7116 34.4309 28.2448 34.4309H29.2301C29.763 34.4309 30.1969 34.0025 30.1969 33.4686V32.9718H35.4703V33.4686C35.4703 33.9962 35.9039 34.4309 36.4371 34.4309H37.4224C37.9553 34.4309 38.3892 34.0025 38.3892 33.4686V32.9718H41.3821L41.3815 37.9017L41.3751 37.9017Z" fill="black"/>
</svg>
