<svg width="96" height="96" viewBox="0 0 96 96" fill="none" xmlns="http://www.w3.org/2000/svg">
<path d="M79.81 11.3887H43.669C42.8374 11.3887 42.1631 12.063 42.1631 12.8945C42.1631 13.7261 42.8374 14.4004 43.669 14.4004H79.81C80.6416 14.4004 81.3158 13.7261 81.3158 12.8945C81.3158 12.063 80.6416 11.3887 79.81 11.3887Z" fill="black"/>
<path d="M42.9167 7.15309C42.9167 6.3215 42.2424 5.64722 41.4108 5.64722H38.0225C37.1909 5.64722 36.5166 6.3215 36.5166 7.15309C36.5166 7.98468 37.1909 8.65897 38.0225 8.65897H41.4108C42.2424 8.65897 42.9167 7.98468 42.9167 7.15309Z" fill="black"/>
<path d="M47.2193 8.65897H53.0276C53.8592 8.65897 54.5335 7.98468 54.5335 7.15309C54.5335 6.3215 53.8592 5.64722 53.0276 5.64722H47.2193C46.3877 5.64722 45.7134 6.3215 45.7134 7.15309C45.7134 7.98468 46.3877 8.65897 47.2193 8.65897Z" fill="black"/>
<path d="M58.8355 8.65897H64.6438C65.4754 8.65897 66.1497 7.98468 66.1497 7.15309C66.1497 6.3215 65.4754 5.64722 64.6438 5.64722H58.8355C58.0039 5.64722 57.3296 6.3215 57.3296 7.15309C57.3296 7.98468 58.0039 8.65897 58.8355 8.65897Z" fill="black"/>
<path d="M70.4527 8.65897H76.261C77.0926 8.65897 77.7669 7.98468 77.7669 7.15309C77.7669 6.3215 77.0926 5.64722 76.261 5.64722H70.4527C69.6211 5.64722 68.9468 6.3215 68.9468 7.15309C68.9468 7.98468 69.6211 8.65897 70.4527 8.65897Z" fill="black"/>
<path d="M85.4581 5.64722H82.0698C81.2383 5.64722 80.564 6.3215 80.564 7.15309C80.564 7.98468 81.2383 8.65897 82.0698 8.65897H85.4581C86.2897 8.65897 86.964 7.98468 86.964 7.15309C86.964 6.3215 86.2897 5.64722 85.4581 5.64722Z" fill="black"/>
<path d="M74.1633 22.9646H49.3155C45.9945 22.9646 43.292 25.6671 43.292 28.9881V39.9058C43.292 43.2268 45.9945 45.9293 49.3155 45.9293H74.1633C77.4843 45.9293 80.1868 43.2268 80.1868 39.9058V28.9881C80.1868 25.6671 77.4843 22.9646 74.1633 22.9646ZM77.175 39.9058C77.175 41.5663 75.8238 42.9175 74.1633 42.9175H49.3155C47.655 42.9175 46.3037 41.5663 46.3037 39.9058V28.9881C46.3037 27.3276 47.655 25.9764 49.3155 25.9764H74.1633C75.8238 25.9764 77.175 27.3276 77.175 28.9881V39.9058Z" fill="black"/>
<path d="M75.6691 78.6821H72.2808C71.4492 78.6821 70.7749 79.3564 70.7749 80.188C70.7749 81.0196 71.4492 81.6939 72.2808 81.6939H75.6691C76.5007 81.6939 77.175 81.0196 77.175 80.188C77.175 79.3564 76.5007 78.6821 75.6691 78.6821Z" fill="black"/>
<path d="M85.4581 78.6821H82.0698C81.2383 78.6821 80.564 79.3564 80.564 80.188C80.564 81.0196 81.2383 81.6939 82.0698 81.6939H85.4581C86.2897 81.6939 86.964 81.0196 86.964 80.188C86.964 79.3564 86.2897 78.6821 85.4581 78.6821Z" fill="black"/>
<path d="M28.5535 59.9695C24.9845 61.3873 23.2339 65.4438 24.6509 69.0128C24.8855 69.6037 25.4523 69.9634 26.0506 69.9634C26.2354 69.9634 26.4237 69.9291 26.6059 69.8565C27.379 69.5493 27.7568 68.674 27.4496 67.9009C26.6449 65.8753 27.6385 63.5723 29.664 62.7682C31.6896 61.9642 33.9919 62.9571 34.7967 64.9833C35.1039 65.7564 35.9792 66.1336 36.7523 65.827C37.5254 65.5198 37.9032 64.6445 37.5959 63.8714C36.1795 60.3024 32.1216 58.5532 28.5533 59.9696L28.5535 59.9695Z" fill="black"/>
<path d="M50.4581 78.7458C48.0998 77.5458 45.2037 78.4876 44.0029 80.8466C43.6258 81.5875 43.9209 82.4943 44.6618 82.8715C45.4033 83.2487 46.3095 82.9536 46.6867 82.2127C47.1337 81.3341 48.2127 80.9825 49.0914 81.4302C49.9701 81.8773 50.321 82.9563 49.874 83.835C49.4968 84.5758 49.7919 85.4827 50.5328 85.8599C50.7519 85.9715 50.9845 86.0239 51.2144 86.0239C51.763 86.0239 52.2921 85.7234 52.5576 85.2011C53.759 82.8421 52.8171 79.9467 50.4582 78.7459L50.4581 78.7458Z" fill="black"/>
<path d="M23.6224 80.6061C20.5199 80.8737 18.214 83.6151 18.4816 86.7177C18.5495 87.5023 19.2069 88.0945 19.9801 88.0945C20.0238 88.0945 20.0668 88.0925 20.1111 88.0892C20.9394 88.0179 21.5532 87.2878 21.4819 86.4596C21.3568 85.0122 22.4331 83.7328 23.8811 83.6079C25.3292 83.4842 26.6079 84.5591 26.7328 86.0071C26.8041 86.8354 27.5349 87.4444 28.3624 87.3779C29.1906 87.3066 29.8044 86.5765 29.7332 85.7483C29.4663 82.6445 26.7269 80.3366 23.6224 80.6061Z" fill="black"/>
<path d="M95.9992 62.0348V25.3551C95.9992 21.2638 94.5155 17.3148 91.8212 14.2352L91.6154 13.9999C91.2329 13.563 91.1361 12.9371 91.3694 12.4047L94.72 4.74621C95.1798 3.69478 95.0797 2.49411 94.4518 1.53345C93.8225 0.573454 92.763 0 91.6156 0H31.7041C30.5935 0 29.5522 0.545213 28.9195 1.45815C28.2869 2.37109 28.1417 3.53746 28.5316 4.57815L31.5165 12.5371C31.6981 13.0205 31.6207 13.5563 31.3115 13.969L31.1179 14.2265C28.7737 17.3525 27.4823 21.2261 27.4823 25.134V52.3465C19.9409 54.8547 14.4767 62.0049 14.4941 70.3464C14.4967 71.691 14.6406 73.0241 14.923 74.3269C11.6632 75.4725 9.29615 78.3188 8.76901 81.7467C3.84936 82.2583 0 86.429 0 91.4824C0 93.9732 2.02682 96 4.51763 96H68.7058C71.1966 96 73.2234 93.9732 73.2234 91.4824C73.2234 90.0027 72.8913 88.5997 72.301 87.3413H91.6158C92.7634 87.3413 93.8235 86.7679 94.4515 85.8072C95.0794 84.8472 95.1796 83.6458 94.7198 82.5951L91.3826 74.9669C91.1459 74.4258 91.2488 73.7925 91.6447 73.3542C94.4541 70.245 96.0004 66.2255 96.0004 62.0352L95.9992 62.0348ZM68.7059 92.9887H4.51775C3.6875 92.9887 3.01187 92.3131 3.01187 91.4828C3.01187 87.7464 6.05185 84.7064 9.78831 84.7064H10.1648C10.9964 84.7064 11.6707 84.0321 11.6707 83.2005C11.6707 80.0604 13.9154 77.407 17.0071 76.89C17.4347 76.8187 17.8112 76.5659 18.0397 76.1975C18.2676 75.8285 18.3261 75.3794 18.1991 74.9646C17.7426 73.4708 17.5093 71.9152 17.506 70.3408C17.4878 61.6565 24.5352 54.5062 33.2161 54.4021C33.282 54.4014 33.3472 54.4007 33.4131 54.4007C37.6268 54.4007 41.5899 56.027 44.5908 58.9917C47.6389 62.0034 49.3175 66.0216 49.3175 70.3066C49.3175 70.6562 49.3048 71.0212 49.2799 71.3936C49.2469 71.8871 49.458 72.3657 49.8453 72.6736C50.2325 72.9815 50.7461 73.079 51.2201 72.9358C52.0174 72.6938 52.8469 72.6104 53.6866 72.6877C56.7978 72.9748 59.2845 75.5443 59.4707 78.6655C59.55 79.9939 59.2267 81.2893 58.5349 82.4114C58.2485 82.8759 58.2357 83.4594 58.502 83.9354C58.7682 84.4114 59.271 84.7065 59.8169 84.7065H63.435C67.1714 84.7065 70.2114 87.7465 70.2114 91.483C70.2114 92.3132 69.5358 92.9888 68.7055 92.9888L68.7059 92.9887ZM88.623 76.1747L91.9602 83.8029C92.0274 83.9568 91.9811 84.0819 91.9306 84.1599C91.8795 84.2372 91.7834 84.3299 91.6153 84.3299H70.1063C68.3571 82.697 66.0108 81.6947 63.4347 81.6947H62.119C62.4195 80.6642 62.5419 79.5819 62.476 78.4854C62.4236 77.6054 62.2454 76.7563 61.9624 75.9537H79.8109C80.6425 75.9537 81.3168 75.2794 81.3168 74.4478C81.3168 73.6162 80.6425 72.9419 79.8109 72.9419H60.2121C58.6626 71.1388 56.4481 69.9174 53.9608 69.6882C53.4102 69.6371 52.861 69.6337 52.3178 69.6781C52.1604 64.8183 50.182 60.2839 46.7057 56.8493C43.1367 53.3226 38.4241 51.389 33.4131 51.389C33.3351 51.389 33.2571 51.3897 33.1785 51.3904C32.2662 51.4011 31.37 51.4791 30.4928 51.6163V25.1352C30.4928 21.8748 31.5698 18.6431 33.5261 16.0347L33.719 15.7773C34.6488 14.5376 34.8794 12.9316 34.3348 11.4801L31.3499 3.52117C31.2928 3.36856 31.3419 3.24823 31.393 3.17428C31.4447 3.101 31.5402 3.01294 31.7029 3.01294H91.6143C91.7824 3.01294 91.8785 3.10571 91.9296 3.18302C91.98 3.261 92.0271 3.38605 91.9592 3.53999L88.6086 11.1984C87.9101 12.7944 88.2005 14.6733 89.3474 15.9844L89.5538 16.2197C91.7682 18.7501 92.987 21.9952 92.987 25.3565V62.0361C92.987 65.4788 91.7164 68.7816 89.4085 71.3363C88.2207 72.6519 87.9121 74.5511 88.6227 76.1752L88.623 76.1747Z" fill="black"/>
</svg>
