<svg width="67" height="88" viewBox="0 0 67 88" fill="none" xmlns="http://www.w3.org/2000/svg">
<path d="M65.7002 73.3648L65.706 73.3586L65.5576 73.0515L56.9809 55.3003L56.9807 55.2997L45.2627 31.1233V9.61837C46.1064 9.43923 46.8769 8.99893 47.4616 8.35447C48.1492 7.59736 48.5315 6.61188 48.5335 5.58845V5.58747V4.64362C48.5335 3.54472 48.0975 2.49087 47.3203 1.71377C46.5433 0.936764 45.4889 0.5 44.3905 0.5H23.527C22.4279 0.5 21.3741 0.936796 20.5971 1.71377C19.8202 2.49074 19.3834 3.54458 19.3834 4.64362V5.58747C19.3834 6.51975 19.698 7.42477 20.2781 8.1556C20.774 8.78091 21.4386 9.24707 22.1894 9.50106V31.1608L1.47056 72.982L1.46991 72.9834C0.0339672 75.9035 0.201296 79.3565 1.91303 82.1238C3.6248 84.8917 6.6403 86.5834 9.89392 86.6022H9.8968H57.061C57.0611 86.6022 57.0611 86.6022 57.0612 86.6022C60.3106 86.6034 63.3326 84.9323 65.0589 82.1787C66.7242 79.5223 66.9574 76.2202 65.7002 73.3648ZM21.727 6.03363V5.58607V4.64506C21.7328 4.16702 21.9248 3.71013 22.2618 3.37057C22.599 3.03155 23.0544 2.83712 23.5317 2.8282H44.3908C44.877 2.8282 45.3434 3.02215 45.6856 3.36675L45.6859 3.36702C46.029 3.71205 46.2205 4.17957 46.2177 4.6654V4.66828L46.2177 5.61272L46.2177 5.6156C46.2205 6.1014 46.0291 6.56893 45.6859 6.91399L45.6856 6.91422C45.354 7.2481 44.9059 7.44054 44.4363 7.45223C44.328 7.43404 44.2177 7.4319 44.109 7.44583C44.0057 7.43356 43.9011 7.43593 43.7984 7.4528H23.6669C23.5478 7.43325 23.4263 7.43316 23.307 7.4528H23.2308C22.7976 7.38519 22.4033 7.16449 22.1196 6.82985C21.9238 6.59889 21.7899 6.32494 21.727 6.03363ZM24.4273 31.95L24.4327 31.9392L24.4375 31.9283C24.5034 31.778 24.54 31.6167 24.5458 31.453L24.5461 31.4441V31.4353V9.72994H42.9462L42.9461 31.3821L42.9462 31.388C42.9482 31.5615 42.9879 31.7299 43.0581 31.883L43.0579 31.883L43.0626 31.8927L53.6812 53.821C51.6681 53.7285 49.3171 54.6751 46.805 56.5131V56.4881L45.994 57.1324C44.6993 58.161 43.6555 59.4711 42.9431 60.963C41.4709 63.9724 40.0094 65.2749 38.3906 65.4576L38.3761 65.4592L38.3617 65.4617C37.6966 65.5764 36.716 65.4813 35.4752 65.1474C34.2464 64.8169 32.8072 64.2646 31.2457 63.5102C30.1507 62.9752 28.9495 62.6944 27.7312 62.6887H27.7289H27.5296C27.5296 62.6887 27.5295 62.6887 27.5295 62.6887C25.72 62.6881 23.9638 63.3038 22.5502 64.4336L22.5496 64.4342L17.6044 68.4006C16.4813 69.055 15.1342 69.206 13.8934 68.8156C12.5193 68.3715 11.313 67.3216 10.3641 66.214C9.54526 65.2582 8.94789 64.2949 8.62787 63.7334L24.4273 31.95ZM63.4882 74.0204C64.5528 76.1974 64.4335 78.7627 63.1797 80.8284L63.1008 80.9542C61.7984 83.0301 59.5152 84.2842 57.0651 84.2703H57.0623H9.93763C9.93756 84.2703 9.93748 84.2703 9.93741 84.2703C7.47061 84.2691 5.17905 82.9932 3.87883 80.8964C2.57859 78.7995 2.45488 76.1796 3.55102 73.9689L3.55112 73.9687L7.3868 66.2246C7.86073 66.9258 8.48034 67.7338 9.23297 68.4951C10.0993 69.3715 11.1581 70.2024 12.39 70.7283L12.3638 70.7542L12.986 70.9534C13.0227 70.9654 13.0595 70.9772 13.0965 70.9887L13.149 71.0055C13.809 71.2168 14.4984 71.3233 15.1911 71.3214L15.1977 71.3213C16.476 71.301 17.7274 70.9523 18.8319 70.3097L18.865 70.2905L18.8948 70.2664L23.9294 66.1964L23.9575 66.1741C24.9713 65.3708 26.2306 64.9394 27.5242 64.9525H27.5293H27.7264C28.5969 64.9611 29.4541 65.1619 30.2369 65.5407L30.237 65.5407C31.4731 66.1387 32.9656 66.7826 34.4488 67.2253C35.9191 67.6643 37.44 67.9242 38.7076 67.6973C41.2216 67.247 43.2707 65.5121 45.0129 61.9323L45.0633 61.8287V61.8286C45.6283 60.6923 46.4352 59.6925 47.428 58.8997C48.457 58.0803 49.8903 57.0858 51.3389 56.521C52.7589 55.9674 54.0559 55.8756 55.0309 56.5637L63.4874 74.0188L63.4882 74.0204Z" fill="black" stroke="black"/>
<path d="M47.4734 63.9984C46.4814 64.9904 45.9248 66.3351 45.9248 67.7373C45.9248 69.1391 46.4814 70.4837 47.4734 71.4757C48.4647 72.4669 49.8093 73.0242 51.2117 73.0242C52.614 73.0242 53.9588 72.467 54.95 71.4756L54.9501 71.4755C55.9412 70.4837 56.4986 69.1391 56.4986 67.7373C56.4986 66.3349 55.9413 64.9903 54.9501 63.9985L54.95 63.9984C53.9586 63.007 52.6139 62.4504 51.2117 62.4504C49.8094 62.4504 48.4648 63.007 47.4734 63.9984ZM47.4734 63.9984L47.8269 64.352L47.4734 63.9984ZM49.1113 69.8379L49.1113 69.8379C48.5538 69.2804 48.2409 68.5248 48.2409 67.7375C48.2409 66.9494 48.5538 66.194 49.1111 65.6372L49.1115 65.6369C49.6682 65.0796 50.4237 64.7666 51.2117 64.7666C51.9991 64.7666 52.7546 65.0796 53.3121 65.6371L53.3121 65.6371C53.8689 66.1939 54.1819 66.9494 54.1819 67.7375C54.1819 68.5248 53.869 69.2804 53.3121 69.8379C52.7546 70.3948 51.999 70.7077 51.2117 70.7077C50.4236 70.7077 49.6681 70.3947 49.1113 69.8379Z" fill="black" stroke="black"/>
<path d="M27.8728 79.4402C28.8642 80.4323 30.209 80.9888 31.6111 80.9888C33.0132 80.9888 34.3579 80.4323 35.3493 79.4404C35.3493 79.4403 35.3494 79.4403 35.3494 79.4402C35.3495 79.4402 35.3495 79.4402 35.3495 79.4401C36.3415 78.4487 36.898 77.104 36.898 75.7019C36.898 74.2998 36.3414 72.955 35.3494 71.9636C34.3581 70.9723 33.0135 70.415 31.6111 70.415C30.2087 70.415 28.864 70.9723 27.8728 71.9636L27.8728 79.4402ZM27.8728 79.4402L28.2264 79.0867L27.8727 79.4401C27.8727 79.4402 27.8728 79.4402 27.8728 79.4402ZM29.5107 77.8025L29.5107 77.8025C28.9539 77.2457 28.6409 76.4901 28.6409 75.7021C28.6409 74.9147 28.9538 74.1592 29.5107 73.6017C30.0682 73.0447 30.8238 72.7318 31.6111 72.7318C32.3992 72.7318 33.1547 73.0448 33.7115 73.6017L33.7115 73.6017C34.269 74.1592 34.5819 74.9147 34.5819 75.7021C34.5819 76.4902 34.269 77.2456 33.7117 77.8023L33.7113 77.8026C33.1546 78.3599 32.3991 78.6729 31.6111 78.6729C30.8237 78.6729 30.0682 78.36 29.5107 77.8025Z" fill="black" stroke="black"/>
<path d="M28.8225 46.4747L28.6538 46.6155L30.0095 46.6308C31.3515 46.646 32.6441 46.1268 33.6028 45.1874L33.6029 45.1872C34.5611 44.2476 35.1052 42.9647 35.1158 41.6227C35.1263 40.2805 34.6018 38.9898 33.6591 38.0351L33.6588 38.0348C32.7153 37.0808 31.4306 36.5412 30.0884 36.5359C28.7464 36.5307 27.4575 37.0597 26.5068 38.0066C25.5554 38.9541 25.021 40.2409 25.021 41.583C25.021 42.9114 25.5448 44.1864 26.4784 45.1311C27.1284 45.7893 27.9408 46.2501 28.8225 46.4747ZM30.0254 38.8519L30.0255 38.8519C30.7531 38.8368 31.4566 39.1128 31.9793 39.618L31.9793 39.618C32.5027 40.1239 32.8028 40.8174 32.8128 41.5448C32.8228 42.2719 32.5424 42.9733 32.0331 43.4931C31.5236 44.0131 30.8281 44.3086 30.1008 44.3136C29.3733 44.3186 28.6739 44.0331 28.1575 43.5203L28.1573 43.5201C27.6411 43.0079 27.3506 42.3105 27.3506 41.5831C27.3506 40.868 27.6306 40.182 28.1305 39.671C28.6307 39.1604 29.3109 38.8665 30.0254 38.8519Z" fill="black" stroke="black"/>
<path d="M37.0115 24.1469C36.6741 24.2213 36.3627 24.3924 36.1172 24.6433L37.0115 24.1469ZM37.0115 24.1469L37.3856 24.1448C37.8601 24.142 38.316 24.3279 38.6533 24.6619L37.0115 24.1469ZM38.6628 27.192L38.6633 27.1915C38.9979 26.8554 39.1849 26.3997 39.183 25.9251C39.1812 25.4506 38.9905 24.9959 38.6533 24.6619L38.6628 27.192ZM38.6628 27.192C38.3284 27.5287 37.874 27.7183 37.3995 27.7192C36.925 27.7202 36.4695 27.5323 36.1338 27.197L36.1336 27.1968M38.6628 27.192L36.1336 27.1968M36.1336 27.1968C35.7973 26.8614 35.6085 26.4064 35.6085 25.9321H35.6086M36.1336 27.1968L35.6086 25.9321M35.6086 25.9321L35.6085 25.9234M35.6086 25.9321L35.6085 25.9234M35.6085 25.9234C35.6001 25.4458 35.7831 24.9854 36.1172 24.6434L35.6085 25.9234ZM40.2745 28.8245L40.2745 28.8245C41.042 28.057 41.4729 27.0169 41.4729 25.932C41.4729 24.8471 41.042 23.8071 40.2746 23.0396L40.2745 23.0395C39.5076 22.2726 38.4673 21.8418 37.3827 21.8418C36.2981 21.8418 35.2573 22.2725 34.4902 23.0395L34.4901 23.0397C33.7233 23.8072 33.2925 24.8472 33.2925 25.932C33.2925 27.0169 33.7233 28.0568 34.4901 28.8243L34.4902 28.8245C35.2572 29.5915 36.298 30.0222 37.3827 30.0222C38.4675 30.0222 39.5076 29.5914 40.2745 28.8245Z" fill="black" stroke="black"/>
</svg>
