<svg width="84" height="101" viewBox="0 0 84 101" fill="none" xmlns="http://www.w3.org/2000/svg">
<path d="M78.8716 34.0725L60.3292 49.4873L54.6761 63.3488L53.7809 63.8915L61.3736 25.5434L34.9335 0L12.6297 26.8693L18.2915 47.7542L8.41043 45.8149L0 54.8492L0.683594 74.816L22.5075 96.7256L26.836 94.8885L39.5997 100.8L46.0965 93.6822L53.0896 95.1865L54.2497 92.2336L55.1939 93.988L68.892 85.1113L84 51.5246L78.8716 34.0725ZM80.58 50.9622L73.5205 52.3458L77.5458 40.6486L80.58 50.9622ZM64.1977 50.3314L75.9147 40.59L71.8425 52.4275L64.1977 50.3314ZM62.8501 51.58L71.2996 53.8957L61.2351 79.6535L59.1614 79.7296L61.342 74.1771L57.7484 64.0832L62.8501 51.58ZM62.0422 81.4995L65.4646 83.6173L58.1402 88.3618L62.0422 81.4995ZM27.5023 91.2191L24.6392 92.433L26.5014 88.1234L28.3167 88.763L27.5023 91.2191ZM47.354 71.4296L53.8542 67.4954L51.2201 72.7665L47.354 71.4296ZM43.7016 88.8492L38.7691 88.8742L39.8812 86.4585L43.7016 88.8492ZM38.2218 86.3247L37.174 88.6034L33.4507 86.7511L38.2218 86.3247ZM29.9183 83.935L28.8083 87.282L26.7423 86.5543L22.3092 66.5766L26.7934 54.7578L29.3904 63.4919L31.9188 83.7556L29.9183 83.935ZM21.363 64.6718L11.267 49.5539L26.0021 52.4451L21.363 64.6718ZM20.6499 66.324L25.253 87.0675L24.3688 89.1145L11.981 68.8921L10.0687 50.5611L20.6499 66.324ZM3.73221 72.4207L3.27974 59.2052L10.0886 68.8869L3.73221 72.4207ZM10.9486 70.1931L23.6132 90.8658L22.8479 92.6388L4.21724 73.9358L10.9486 70.1931ZM31.9452 87.743L35.711 89.6182L30.5715 91.8849L31.9452 87.743ZM36.9561 90.7745L38.0355 96.6372L31.0262 93.3905L36.9561 90.7745ZM38.4858 90.4362L44.8648 90.4036L39.5509 96.2282L38.4858 90.4362ZM46.132 86.6891V72.6577L50.7287 74.2479L47.8644 87.7734L46.132 86.6891ZM55.6282 67.4379L57.7052 73.267L52.8436 73.0125L55.6282 67.4379ZM43.006 70.4148V84.7333L40.2552 83.0115L39.3372 83.093L40.6978 34.5981L57.7649 27.6859L50.1647 66.0814L43.006 70.4148ZM40.5659 32.9688L36.3804 5.73942L57.4817 26.1195L40.5659 32.9688ZM39.0025 33.0058L16.5592 27.0236L34.71 5.15768L39.0025 33.0058ZM16.3292 28.5756L39.1454 34.657L37.7694 83.2327L35.0328 83.4774L32.4402 62.8579L28.572 49.7696L21.7109 48.423L16.3292 28.5756ZM8.4717 50.3329L10.1333 66.2394L3.18063 56.3488L3.16973 56.028L8.4717 50.3329ZM48.7669 91.0674L48.8497 90.6726L50.1744 89.2216L49.2727 88.6571L52.2458 74.5171L57.7354 74.8238L51.15 91.5799L48.7669 91.0674ZM58.5413 81.3152L60.398 81.2456L56.0205 88.9303L55.7479 88.4245L58.5413 81.3152ZM66.6419 82.5106L62.7377 80.0949L72.9144 54.0564L80.073 52.6511L66.6419 82.5106Z" fill="black"/>
</svg>
