<svg width="537" height="539" viewBox="0 0 537 539" fill="none" xmlns="http://www.w3.org/2000/svg">
<path d="M18.7372 147.093C7.53938 174.718 0.815918 205.333 0.815918 237.442C0.815918 320.322 43.3786 393.495 108.337 436.055C109.082 436.055 109.082 436.8 109.832 436.8H110.577C147.165 460.696 191.217 474.133 238.26 474.133C368.926 474.128 474.953 368.103 474.953 237.44C474.953 106.777 368.926 0 238.26 0C188.233 0 141.942 15.6827 103.859 41.812C103.115 42.5568 102.365 42.5568 101.62 43.3068C65.7812 68.6921 37.4066 103.785 20.2346 144.109C19.4846 145.599 18.7398 146.344 18.7398 147.094L18.7372 147.093ZM23.2165 237.437C23.2165 209.062 29.1904 182.182 38.8991 156.797C47.1127 150.823 74.7378 132.157 94.1538 145.599C92.659 148.583 88.9246 156.052 75.4871 169.495C74.7423 170.989 73.2475 171.734 73.2475 173.229C72.5027 174.724 67.2735 191.15 74.7423 204.589C77.7267 209.818 83.7007 217.282 96.393 219.521H99.3774C107.591 218.776 116.549 221.016 118.044 222.505C118.044 222.505 118.789 224.745 115.06 230.719C115.06 231.464 114.315 232.214 114.315 232.214C112.82 236.693 104.607 258.35 108.341 273.282C108.341 274.027 109.086 274.777 109.086 275.521C109.086 275.521 119.539 298.667 109.086 305.385C103.856 306.88 90.419 312.104 82.9496 325.547C79.2152 332.266 76.2309 343.468 81.4549 358.401C82.1996 359.896 82.9497 361.386 84.4393 362.881C84.4393 362.881 108.335 386.777 109.079 408.427C56.8139 369.599 23.2153 306.881 23.2153 237.441L23.2165 237.437ZM324.87 433.81C320.391 421.862 315.911 394.237 348.015 350.185C365.187 326.289 373.4 296.425 369.666 266.559C368.171 250.133 369.666 238.185 375.64 232.21C379.374 228.475 386.838 226.981 396.546 227.731C397.291 227.731 451.801 233.705 451.052 268.799C439.109 343.46 390.573 404.692 324.869 433.812L324.87 433.81ZM424.922 131.41C415.963 130.665 405.51 128.425 399.536 126.931C363.698 103.785 331.588 117.972 319.64 128.425L280.812 159.785C253.187 171.733 233.026 165.015 218.839 139.624C214.36 132.155 212.12 122.452 211.37 111.999C210.626 91.8375 203.902 76.9055 191.958 66.4521C175.532 52.2641 154.625 53.7595 150.89 53.7595C143.422 53.7595 135.958 52.2647 129.984 50.0251C161.344 31.3584 197.932 20.9051 237.505 20.9051C318.145 22.3999 388.332 66.4517 424.918 131.41L424.922 131.41ZM109.082 65.7072C118.04 70.9364 134.467 78.3999 153.134 77.6551H153.879C153.879 77.6551 168.067 76.1603 178.519 85.1239C185.237 91.0979 189.716 100.807 189.716 114.244C190.461 128.432 193.451 141.124 199.425 151.577C212.862 176.217 233.023 188.165 256.919 188.165C268.117 188.165 279.321 185.181 291.269 179.952C292.013 179.207 292.764 179.207 293.508 178.457L333.826 145.602C334.57 144.857 357.722 126.19 388.331 146.347C389.076 147.092 390.571 147.842 391.315 147.842C394.3 148.587 418.195 155.311 435.367 153.071C445.076 175.472 451.05 200.112 451.794 226.243C435.367 212.806 412.966 206.831 398.034 205.336C381.607 203.097 368.17 206.831 359.206 215.789C348.008 226.242 344.274 244.164 346.513 268.805C349.498 292.701 342.779 316.592 328.592 336.753C292.004 387.524 295.737 423.368 303.207 441.284C282.3 448.003 260.644 451.737 237.499 451.737C197.925 451.737 160.592 440.539 128.483 421.873C137.441 390.513 109.071 357.66 100.857 348.701C99.3626 343.472 99.3626 339.743 101.602 336.008C104.587 330.034 112.8 327.05 115.039 326.3C115.784 326.3 117.279 325.555 118.024 325.555C141.92 312.118 135.945 282.249 128.477 266.571C127.732 260.597 130.717 248.65 133.706 241.186C142.665 226.254 139.68 216.546 136.691 210.571C128.477 196.383 106.827 196.383 99.3572 196.383C94.878 194.889 94.128 193.399 93.3832 192.649C91.8884 189.665 91.8884 185.18 92.6384 182.196C110.56 163.529 118.024 150.092 116.534 139.633C115.79 134.404 112.8 130.675 110.56 129.18C93.3885 114.992 73.2271 115.743 56.8004 121.711C70.9978 100.05 88.1751 81.3845 109.082 65.7072Z" fill="#45D3A1"/>
<path d="M212.871 394.986C224.069 394.986 235.272 389.757 246.469 379.303C249.454 376.319 251.699 373.329 253.188 370.345C295.751 299.413 271.855 266.558 253.188 253.866C241.99 245.653 227.052 242.668 214.36 247.147C191.215 254.616 180.011 277.762 182.256 312.106C182.256 316.585 181.511 321.814 178.522 326.294C177.027 329.279 175.537 332.268 174.043 336.002C168.813 353.924 174.043 373.336 188.231 385.284C195.694 392.003 203.908 394.986 212.871 394.986ZM195.693 342.721C196.438 340.481 197.188 338.986 197.933 337.491C203.162 328.533 205.402 319.57 204.652 310.611C203.907 297.174 204.652 273.278 221.079 268.799C222.573 268.055 224.813 268.055 227.053 268.055C231.532 268.055 236.011 269.549 240.49 272.534C261.397 287.466 259.157 318.826 234.516 359.894C233.771 361.389 232.276 362.878 230.781 364.373C220.328 374.826 211.369 376.321 203.901 369.602C195.693 362.883 193.454 352.43 195.693 342.722L195.693 342.721Z" fill="#45D3A1"/>
<circle cx="400.5" cy="401.775" r="129" fill="white" stroke="#45D3A1" stroke-width="15"/>
<path d="M430.955 481.024C428.672 478.892 426.37 476.76 424.087 474.628C418.577 469.515 413.086 464.382 407.576 459.269C400.935 453.098 394.312 446.928 387.67 440.758C381.915 435.4 376.16 430.041 370.405 424.701C367.612 422.097 364.858 419.437 362.008 416.889C361.971 416.852 361.933 416.814 361.895 416.776C362.82 419.003 363.744 421.229 364.65 423.455V418.059C361.499 421.21 358.367 424.342 355.215 427.493H366.216C369.99 427.493 373.801 427.625 377.575 427.456C386.311 427.059 395.066 424.474 402.407 419.663C409.482 415.021 415.558 408.681 419.502 401.153C423.559 393.397 425.728 384.567 425.275 375.793C424.823 367.132 422.256 358.509 417.483 351.226C412.803 344.093 406.369 337.942 398.746 334.017C391.557 330.319 383.67 328.319 375.575 328.319H351.215H350.442C348.026 328.319 345.479 329.376 343.762 331.074C342.121 332.715 340.894 335.395 341.007 337.753C341.12 340.187 341.913 342.716 343.762 344.433C345.611 346.131 347.876 347.188 350.442 347.188H374.292C376.518 347.188 378.745 347.244 380.953 347.527C380.122 347.414 379.273 347.301 378.443 347.188C381.99 347.659 385.443 348.603 388.745 349.98C387.99 349.659 387.236 349.339 386.5 349.037C389.726 350.414 392.746 352.188 395.519 354.32C394.878 353.829 394.255 353.339 393.613 352.848C396.293 354.942 398.689 357.339 400.784 360.018C400.293 359.377 399.802 358.754 399.312 358.112C401.444 360.886 403.218 363.905 404.595 367.132C404.274 366.377 403.953 365.622 403.651 364.886C405.029 368.188 405.972 371.641 406.444 375.189C406.331 374.358 406.218 373.509 406.104 372.679C406.557 376.151 406.557 379.679 406.104 383.151C406.218 382.321 406.331 381.472 406.444 380.642C405.972 384.189 405.029 387.642 403.651 390.944C403.972 390.189 404.293 389.435 404.595 388.699C403.217 391.925 401.444 394.944 399.312 397.718C399.802 397.077 400.293 396.454 400.784 395.812C398.689 398.492 396.293 400.888 393.613 402.982C394.255 402.492 394.878 402.001 395.519 401.511C392.746 403.643 389.727 405.416 386.5 406.794C387.255 406.473 388.009 406.152 388.745 405.85C385.443 407.228 381.99 408.171 378.443 408.643C379.273 408.53 380.122 408.417 380.953 408.303C377.594 408.737 374.216 408.643 370.839 408.643H358.348H355.216C350.121 408.643 345.781 412.964 345.781 418.077C345.781 419.832 345.762 421.587 345.781 423.342C345.819 426.059 346.932 428.644 348.913 430.493C350.121 431.607 351.329 432.739 352.536 433.852C357.801 438.739 363.065 443.645 368.329 448.532C375.311 455.023 382.292 461.514 389.274 468.023C395.557 473.873 401.859 479.722 408.143 485.571C411.256 488.477 414.35 491.402 417.483 494.27C417.52 494.308 417.577 494.345 417.615 494.383C419.426 496.062 421.785 497.138 424.294 497.138C426.615 497.138 429.37 496.119 430.973 494.383C432.615 492.59 433.842 490.232 433.728 487.704C433.615 485.251 432.804 482.741 430.955 481.024L430.955 481.024Z" fill="#45D3A1"/>
<path d="M350.459 347.169H360.422H384.366H413.217H438.237C442.294 347.169 446.351 347.225 450.389 347.169H450.558C452.974 347.169 455.521 346.112 457.238 344.414C458.879 342.772 460.106 340.093 459.993 337.734C459.879 335.3 459.087 332.772 457.238 331.055C455.389 329.357 453.124 328.3 450.558 328.3H440.596H416.651H387.801H362.781C358.724 328.3 354.667 328.244 350.629 328.3H350.459C348.044 328.3 345.497 329.357 343.78 331.055C342.138 332.697 340.912 335.376 341.025 337.734C341.138 340.169 341.931 342.697 343.78 344.414C345.629 346.112 347.912 347.169 350.459 347.169Z" fill="#45D3A1"/>
<path d="M350.459 387.342H360.422H384.366H413.217H438.237C442.294 387.342 446.351 387.399 450.389 387.342H450.558C452.974 387.342 455.521 386.285 457.238 384.587C458.879 382.946 460.106 380.266 459.993 377.908C459.879 375.474 459.087 372.945 457.238 371.228C455.389 369.53 453.124 368.473 450.558 368.473H440.596H416.651H387.801H362.781C358.724 368.473 354.667 368.417 350.629 368.473H350.459C348.044 368.473 345.497 369.53 343.78 371.228C342.138 372.87 340.912 375.549 341.025 377.908C341.138 380.342 341.931 382.87 343.78 384.587C345.629 386.266 347.912 387.342 350.459 387.342Z" fill="#45D3A1"/>
</svg>
