<svg width="652" height="493" viewBox="0 0 652 493" fill="none" xmlns="http://www.w3.org/2000/svg">
<path d="M281.248 150.882C281.216 159.7 280.498 167.189 279.206 174.216C277.732 182.247 275.472 190.122 272.623 197.768C272.284 198.674 271.925 199.575 271.571 200.476C271.519 200.611 270.279 203.544 271.112 201.606C270.352 203.377 269.539 205.127 268.706 206.866C266.909 210.616 264.909 214.268 262.784 217.846C260.831 221.132 258.716 224.32 256.503 227.439C253.847 231.179 253.196 231.955 249.841 235.846C228.956 260.075 202.112 274.846 170.18 280.012C170.034 280.038 166.784 280.502 168.941 280.215C167.946 280.346 166.951 280.455 165.956 280.57C163.951 280.794 161.941 280.95 159.93 281.085C155.081 281.413 150.211 281.439 145.357 281.278C134.742 280.929 124.679 279.169 114.367 276.236C96.3981 271.137 78.9608 261.367 65.5341 249.747C35.7688 223.998 19.0755 185.643 20.3568 145.768C20.487 141.732 20.8308 137.701 21.3047 133.69C21.6901 130.419 21.0026 135.69 21.4818 132.445C21.6276 131.461 21.7943 130.482 21.9558 129.498C22.3412 127.222 22.8047 124.956 23.2995 122.706C25.0495 114.768 27.5755 107.008 30.6744 99.4978C29.8723 101.446 31.1224 98.5239 31.1796 98.3937C31.5703 97.5134 31.9817 96.6437 32.3932 95.7686C33.2109 94.029 34.0858 92.3155 34.9713 90.6071C36.8932 86.9249 39.0129 83.3519 41.2525 79.8571C43.3099 76.6435 45.5337 73.5342 47.8463 70.4978C46.5858 72.1541 48.5233 69.6801 48.6119 69.5707C49.2108 68.8259 49.8202 68.0967 50.4348 67.3677C51.8619 65.6646 53.3463 64.0135 54.8515 62.3781C57.4348 59.5811 60.1536 56.9145 62.9504 54.3311C64.3515 53.0395 65.7889 51.7895 67.2368 50.5603C67.9608 49.9457 68.7004 49.3416 69.4399 48.7374C69.9347 48.3363 70.4295 47.9405 70.9295 47.5499C70.117 48.1697 70.1795 48.1176 71.1274 47.3988C77.4711 42.5655 84.2681 38.3467 91.3301 34.6593C98.8405 30.7426 103.502 28.8781 112.153 26.1905C115.903 25.0238 119.71 24.0602 123.543 23.2165C125.476 22.7894 127.424 22.4248 129.372 22.081C130.351 21.9092 131.335 21.7581 132.319 21.6071C133.549 21.43 133.637 21.4144 132.575 21.555C133.236 21.4717 133.898 21.3883 134.564 21.3102C171.736 16.9143 208.876 28.0498 237.122 53.0129C265.1 77.7582 281.065 112.877 281.248 150.882C281.274 156.445 285.872 161.09 291.455 161.09C297.002 161.09 301.69 156.445 301.663 150.882C301.466 109.361 284.294 69.3715 254.059 40.8715C223.554 12.1115 181.346 -2.72179 139.57 0.412874C105.33 2.98581 73.0287 17.2875 47.8207 40.5435C23.4047 63.0649 6.85675 94.2209 1.79408 127.022C-4.74752 169.402 6.79409 211.845 33.2421 245.476C59.0488 278.293 98.6687 298.069 140.007 301.388C174.627 304.169 210.258 293.95 238.398 273.7C265.867 253.934 286.117 225.512 295.705 193.038C299.726 179.429 301.621 165.06 301.674 150.882C301.694 145.32 297.017 140.674 291.465 140.674C285.877 140.674 281.269 145.315 281.248 150.882Z" fill="white"/>
<path d="M631.461 317.589V366.709V399.402V409.413V411.73V412.168C631.461 412.517 631.445 412.845 631.44 413.21C631.325 414.46 631.351 414.543 631.518 413.46C631.419 414.105 631.294 414.741 631.143 415.376C630.872 416.631 630.44 417.845 629.987 419.043C630.695 417.168 629.07 420.47 628.857 420.819C628.518 421.35 628.164 421.866 627.789 422.371C628.414 421.532 628.346 421.564 627.586 422.47C627.159 422.928 626.716 423.371 626.258 423.798C626.096 423.954 623.716 425.762 625.398 424.553C624.372 425.288 623.258 425.887 622.143 426.465C621.06 426.975 620.997 427.001 621.95 426.548C621.346 426.767 620.737 426.96 620.117 427.126C619.685 427.251 615.992 427.798 618.013 427.6C617.242 427.673 616.461 427.678 615.685 427.678H598.013C601.414 431.079 604.82 434.486 608.221 437.887C607.424 408.756 583.857 385.351 554.658 385.012C525.461 384.673 501.877 409.267 501.096 437.887C504.497 434.485 507.903 431.079 511.304 427.678H467.58L477.788 437.887V350.116V222.225V205.335C474.387 208.736 470.981 212.142 467.58 215.543H569.616H570.569C571.626 215.543 572.679 215.59 573.731 215.652C573.835 215.657 577.184 216.09 575.121 215.772C577.449 216.131 579.725 216.756 581.96 217.491C582.064 217.522 585.074 218.725 583.205 217.913C584.106 218.303 584.981 218.762 585.85 219.215C587.585 220.116 589.22 221.199 590.814 222.329C589.189 221.173 591.699 223.084 591.793 223.163C592.533 223.798 593.231 224.48 593.929 225.163C594.627 225.845 595.278 226.574 595.929 227.303C596.356 227.793 596.778 228.298 597.184 228.808C596.58 228.038 596.637 228.137 597.351 229.105C598.496 230.72 599.486 232.439 600.408 234.189C600.877 235.074 601.288 235.986 601.694 236.897C600.882 235.09 602.095 238.163 602.116 238.225C602.257 238.637 602.413 239.043 602.559 239.449C603.549 242.183 604.538 244.918 605.528 247.657C612.929 268.1 620.33 288.537 627.73 308.98C629.095 312.751 630.465 316.527 631.829 320.298C633.72 325.527 638.704 328.99 644.387 327.428C649.434 326.042 653.413 320.105 651.517 314.871C645.741 298.923 639.965 282.969 634.189 267.021C630.793 257.641 627.397 248.256 623.996 238.876C620.585 229.459 616.991 220.641 610.356 212.871C600.408 201.22 585.012 195.131 569.903 195.131H550.491H483.131H467.584C462.022 195.131 457.376 199.776 457.376 205.339V293.11V421V437.891C457.376 443.453 462.022 448.099 467.584 448.099H511.308C516.991 448.099 521.366 443.453 521.517 437.891C521.543 436.87 521.595 435.855 521.673 434.839C521.808 433.594 521.808 433.5 521.668 434.558C521.772 433.901 521.886 433.25 522.022 432.599C522.517 430.026 523.329 427.526 524.282 425.094C523.574 426.906 525.136 423.49 525.308 423.156C525.907 422.021 526.589 420.938 527.282 419.86C527.636 419.328 527.996 418.802 528.376 418.287C527.735 419.078 527.793 419.011 528.543 418.089C529.35 417.099 530.225 416.172 531.116 415.261C532.001 414.344 532.959 413.5 533.923 412.667C534.845 411.917 534.907 411.854 534.11 412.484C534.626 412.104 535.147 411.74 535.678 411.38C537.798 409.922 540.084 408.729 542.423 407.672C540.657 408.469 544.194 407.115 544.548 407C545.798 406.599 547.079 406.297 548.361 406.011C549.012 405.875 549.663 405.75 550.314 405.641C549.251 405.766 549.345 405.755 550.59 405.62C551.944 405.479 553.308 405.448 554.668 405.432C555.689 405.422 556.715 405.479 557.735 405.537C558.407 405.584 559.079 405.646 559.751 405.724C558.694 405.584 558.777 405.615 560.006 405.813C562.59 406.266 565.105 407.042 567.558 407.959C565.756 407.287 569.189 408.75 569.532 408.922C570.678 409.5 571.772 410.172 572.861 410.849C573.168 411.042 576.184 413.24 574.678 412.052C575.678 412.844 576.616 413.709 577.543 414.583C578.47 415.458 579.329 416.401 580.173 417.354C580.59 417.833 581.001 418.323 581.397 418.823C580.772 418.026 580.809 418.104 581.517 419.063C583.001 421.156 584.23 423.427 585.319 425.745C584.496 423.995 585.934 427.474 586.059 427.833C586.48 429.078 586.803 430.349 587.105 431.625C587.194 432 587.809 435.823 587.564 433.828C587.725 435.177 587.777 436.531 587.819 437.891C587.97 443.453 592.345 448.099 598.027 448.099C609.012 448.099 620.397 449.24 630.73 444.87C644.334 439.109 651.897 425.157 651.897 410.802V352.999V317.587C651.897 312.025 647.251 307.379 641.688 307.379C636.105 307.379 631.459 312.025 631.459 317.587L631.461 317.589Z" fill="white"/>
<path d="M457.381 150.736V227.132V367.292V437.88C460.782 434.479 464.188 431.072 467.589 427.671H377.459H255.125H245.333L255.542 437.88C254.745 408.749 231.178 385.338 201.979 385C172.782 384.661 149.208 409.265 148.416 437.88L158.625 427.671H132.655H119.416C118.593 427.671 115.119 427.494 116.858 427.729C115.89 427.598 114.942 427.354 113.999 427.114C113.827 427.067 110.869 426.02 112.827 426.854C111.952 426.484 111.124 426.02 110.296 425.557C109.754 425.239 109.223 424.901 108.702 424.541C109.499 425.213 109.442 425.171 108.536 424.411C107.812 423.807 107.161 423.13 106.51 422.458C106.353 422.296 104.551 419.911 105.754 421.593C105.202 420.822 104.739 420 104.28 419.177C104.171 418.979 103.02 416.187 103.765 418.135C103.421 417.234 103.181 416.296 102.947 415.359C102.89 415.125 102.504 412.052 102.707 414.187C102.64 413.479 102.629 412.76 102.629 412.046V407.765V384.905V278.927C97.5096 281.864 92.3897 284.801 87.2693 287.739C123.671 304.166 165.493 306.411 203.067 292.406C234.717 280.604 261.593 258.432 279.416 229.755C299.271 197.802 305.609 159.124 298.927 122.307C295.646 126.614 292.364 130.922 289.083 135.229H395.662H435.126H441.876C450.334 135.239 457.22 142.401 457.381 150.729C457.49 156.291 461.943 160.937 467.589 160.937C473.074 160.937 477.907 156.291 477.797 150.729C477.422 131.198 461.688 114.822 441.876 114.822H430.777H369.491H289.089C282.006 114.822 278.079 121.301 279.245 127.744C281.048 137.671 281.542 147.864 281.074 158.009C280.98 160.03 280.824 162.046 280.641 164.062C280.553 165.062 280.443 166.062 280.329 167.062C280.313 167.207 279.881 170.478 280.183 168.317C279.589 172.567 278.756 176.786 277.772 180.963C276.876 184.775 275.782 188.536 274.568 192.254C273.964 194.103 273.308 195.931 272.626 197.749C272.287 198.655 271.928 199.557 271.574 200.457C271.334 201.056 271.089 201.655 270.839 202.249C271.24 201.291 271.204 201.369 270.725 202.473C267.522 209.801 263.615 216.812 259.214 223.489C254.61 230.468 251.496 234.281 245.36 240.755C242.74 243.52 239.985 246.15 237.151 248.692C235.735 249.963 234.276 251.192 232.813 252.406C232.079 253.015 231.334 253.604 230.584 254.197C232.115 252.984 229.136 255.281 228.854 255.489C222.443 260.239 215.584 264.369 208.464 267.963C201.532 271.458 196.011 273.598 187.485 276.119C181.173 277.984 174.714 279.333 168.204 280.291C169.266 280.156 169.183 280.166 167.943 280.322C166.949 280.447 165.949 280.552 164.949 280.656C163.277 280.828 161.6 280.958 159.923 281.067C155.97 281.338 152.006 281.39 148.042 281.338C130.834 281.093 113.162 277.161 97.569 270.13C90.7357 267.046 82.209 270.593 82.209 278.942V387.864V409.088C82.209 420.114 85.235 430.353 93.4017 438.233C99.959 444.556 109.099 448.097 118.178 448.097H127.975H157.819H158.615C164.298 448.097 168.668 443.452 168.824 437.889C168.85 436.868 168.902 435.853 168.98 434.837C169.115 433.592 169.115 433.499 168.98 434.556C169.084 433.9 169.199 433.249 169.334 432.597C169.829 430.024 170.641 427.524 171.595 425.092C170.886 426.905 172.449 423.488 172.621 423.155C173.22 422.019 173.902 420.931 174.595 419.858C174.949 419.327 175.313 418.801 175.688 418.28C175.053 419.071 175.105 419.004 175.855 418.082C176.662 417.092 177.537 416.165 178.428 415.254C179.319 414.337 180.272 413.493 181.235 412.66C182.157 411.91 182.22 411.853 181.423 412.478C181.938 412.097 182.459 411.733 182.991 411.373C185.11 409.915 187.397 408.722 189.735 407.665C187.97 408.462 191.506 407.108 191.86 406.993C193.11 406.592 194.392 406.29 195.673 406.004C196.324 405.868 196.975 405.743 197.626 405.634C196.563 405.759 196.657 405.748 197.902 405.613C199.256 405.472 200.621 405.441 201.98 405.426C203.006 405.415 204.027 405.472 205.048 405.53C205.72 405.577 206.392 405.639 207.063 405.717C206.006 405.577 206.09 405.608 207.319 405.806C209.902 406.259 212.418 407.035 214.871 407.952C213.069 407.28 216.501 408.743 216.845 408.915C217.991 409.499 219.084 410.165 220.173 410.842C220.48 411.035 223.496 413.233 221.991 412.045C222.991 412.837 223.928 413.702 224.855 414.577C225.782 415.452 226.642 416.394 227.486 417.347C227.902 417.827 228.314 418.316 228.709 418.816C228.084 418.019 228.121 418.097 228.829 419.056C230.314 421.149 231.543 423.42 232.631 425.743C231.808 423.993 233.246 427.472 233.371 427.832C233.793 429.077 234.116 430.347 234.418 431.623C234.506 431.998 235.121 435.821 234.876 433.827C235.038 435.176 235.09 436.53 235.126 437.884C235.277 443.446 239.652 448.092 245.334 448.092H335.465H457.798H467.59C473.153 448.092 477.798 443.446 477.798 437.884V361.488V221.328V150.74C477.798 145.177 473.153 140.532 467.59 140.532C462.022 140.526 457.382 145.172 457.382 150.735L457.381 150.736Z" fill="white"/>
<path d="M587.821 438.589C587.737 445.995 586.128 451.365 581.404 458.272C579.659 460.824 582.639 456.845 580.68 459.23C580.076 459.964 579.425 460.662 578.774 461.355C577.472 462.746 576.04 464.001 574.566 465.209C576.165 463.897 573.685 465.777 573.555 465.865C572.764 466.407 571.941 466.891 571.118 467.376C570.29 467.865 569.436 468.298 568.576 468.73C567.998 469.011 567.415 469.282 566.831 469.537C567.785 469.126 567.696 469.136 566.571 469.579C564.732 470.261 562.837 470.751 560.925 471.178C560.764 471.214 557.566 471.73 559.717 471.454C558.717 471.584 557.706 471.641 556.701 471.699C554.67 471.818 552.628 471.725 550.602 471.558C547.368 471.298 552.529 471.928 549.363 471.371C548.071 471.141 546.795 470.813 545.529 470.475C544.592 470.219 543.665 469.902 542.748 469.584C539.785 468.558 544.456 470.428 541.608 469.147C539.858 468.36 538.191 467.402 536.561 466.391C535.748 465.886 534.972 465.329 534.196 464.777C535.868 465.975 533.415 464.095 533.29 463.99C531.602 462.543 530.081 460.917 528.639 459.235C526.628 456.891 529.717 460.793 527.915 458.277C527.357 457.501 526.852 456.688 526.352 455.876C525.337 454.245 524.493 452.516 523.706 450.761C524.566 452.678 523.399 449.73 523.347 449.584C523.029 448.662 522.774 447.714 522.519 446.772C522.258 445.819 522.071 444.855 521.878 443.886C521.68 442.662 521.654 442.584 521.795 443.647C521.717 442.98 521.654 442.313 521.607 441.641C520.962 433.714 522.607 427.72 526.248 421.485C529.68 415.605 534.394 411.491 541.529 408.073C544.358 406.719 539.732 408.724 542.68 407.625C543.597 407.282 544.535 407.006 545.472 406.724C546.42 406.443 547.384 406.23 548.347 406.011C548.503 405.974 551.712 405.454 549.576 405.73C551.602 405.469 553.644 405.422 555.686 405.448C556.701 405.459 557.722 405.542 558.733 405.625C559.977 405.761 560.071 405.766 559.009 405.646C559.665 405.756 560.316 405.875 560.962 406.016C569.43 407.704 574.951 411.245 580.779 418.089C582.789 420.448 579.706 416.542 581.498 419.068C582.237 420.115 582.899 421.214 583.545 422.318C584.029 423.151 584.461 424.016 584.894 424.881C585.388 425.974 585.435 426.047 585.039 425.099C585.284 425.704 585.508 426.308 585.727 426.922C587.607 432.037 587.784 434 587.821 438.589C587.868 444.151 592.43 448.797 598.029 448.797C603.56 448.797 608.284 444.151 608.237 438.589C608.081 419.777 598.253 402.646 582.347 392.714C566.153 382.605 545.243 382.871 528.653 391.751C512.075 400.626 502.065 418.387 501.132 436.871C500.184 455.616 510.273 473.105 525.471 483.496C541.711 494.595 563.553 494.554 580.596 485.481C597.675 476.387 608.017 457.683 608.241 438.595C608.304 433.033 603.549 428.387 598.033 428.387C592.413 428.382 587.882 433.028 587.819 438.59L587.821 438.589Z" fill="white"/>
<path d="M235.141 438.589C235.052 445.995 233.443 451.365 228.724 458.272C226.979 460.824 229.958 456.845 228 459.23C227.396 459.964 226.745 460.662 226.094 461.355C224.792 462.746 223.359 464.001 221.886 465.209C223.484 463.897 221.005 465.777 220.875 465.865C220.083 466.407 219.261 466.891 218.438 467.376C217.61 467.865 216.755 468.298 215.896 468.73C215.318 469.011 214.735 469.282 214.146 469.537C215.099 469.126 215.011 469.136 213.886 469.579C212.052 470.261 210.151 470.751 208.24 471.178C208.078 471.214 204.88 471.73 207.031 471.454C206.031 471.584 205.021 471.641 204.016 471.699C201.985 471.818 199.943 471.725 197.917 471.558C194.682 471.298 199.844 471.928 196.677 471.371C195.386 471.141 194.11 470.813 192.849 470.475C191.906 470.219 190.985 469.902 190.068 469.584C187.104 468.558 191.776 470.428 188.927 469.147C187.177 468.36 185.511 467.402 183.88 466.391C183.068 465.886 182.292 465.329 181.516 464.777C183.188 465.975 180.735 464.095 180.615 463.99C178.927 462.543 177.407 460.917 175.964 459.235C173.953 456.891 177.042 460.793 175.24 458.277C174.683 457.501 174.177 456.688 173.677 455.876C172.662 454.245 171.818 452.516 171.031 450.761C171.891 452.678 170.724 449.73 170.672 449.584C170.354 448.662 170.099 447.714 169.844 446.772C169.583 445.819 169.396 444.855 169.203 443.886C169.005 442.662 168.979 442.584 169.12 443.647C169.042 442.98 168.979 442.313 168.932 441.641C168.292 433.714 169.932 427.72 173.573 421.485C177.005 415.605 181.719 411.491 188.854 408.073C191.683 406.719 187.058 408.724 190.005 407.625C190.922 407.282 191.86 407.006 192.797 406.724C193.745 406.443 194.709 406.23 195.672 406.011C195.828 405.974 199.037 405.454 196.901 405.73C198.927 405.469 200.969 405.422 203.011 405.448C204.032 405.459 205.047 405.542 206.058 405.625C207.302 405.761 207.396 405.766 206.334 405.646C206.99 405.756 207.641 405.875 208.287 406.016C216.756 407.704 222.276 411.245 228.104 418.089C230.114 420.448 227.031 416.542 228.823 419.068C229.562 420.115 230.224 421.214 230.87 422.318C231.354 423.151 231.786 424.016 232.213 424.881C232.708 425.974 232.755 426.047 232.359 425.099C232.604 425.704 232.833 426.308 233.047 426.922C234.927 432.037 235.099 434 235.141 438.589C235.193 444.151 239.745 448.797 245.349 448.797C250.875 448.797 255.609 444.151 255.557 438.589C255.385 419.772 245.583 402.657 229.666 392.714C213.473 382.605 192.562 382.871 175.978 391.751C159.394 400.626 149.39 418.387 148.457 436.871C147.509 455.616 157.598 473.105 172.796 483.496C189.036 494.595 210.878 494.554 227.921 485.481C245 476.387 255.342 457.683 255.566 438.595C255.629 433.033 250.874 428.387 245.358 428.387C239.733 428.382 235.202 433.028 235.139 438.59L235.141 438.589Z" fill="white"/>
<path d="M589.634 307.376H514.15C517.551 310.777 520.957 314.183 524.358 317.584V250.303C520.957 253.704 517.551 257.11 514.15 260.511H539.89H553.739C554.698 260.511 555.656 260.511 556.609 260.542C554.562 260.485 557.234 260.74 557.63 260.855C555.651 260.297 557.948 261.053 558.401 261.323C556.599 260.25 558.599 261.568 558.974 261.959C557.515 260.459 559.515 262.985 559.807 263.563C558.948 261.855 560.021 264.766 560.286 265.521C560.75 266.823 561.213 268.131 561.677 269.433C563.297 273.98 564.911 278.521 566.531 283.069C570.229 293.459 573.932 303.855 577.63 314.246C578.349 316.262 579.067 318.282 579.786 320.298C581.651 325.538 586.682 328.986 592.344 327.429C597.411 326.033 601.343 320.116 599.474 314.871C593.437 297.913 587.401 280.959 581.364 264.002C580.484 261.528 579.734 258.986 578.828 256.533C575.161 246.637 566.255 240.096 555.583 240.096H529.161H514.156C508.593 240.096 503.948 244.742 503.948 250.304V317.585C503.948 323.148 508.594 327.794 514.156 327.794H589.64C595.203 327.794 599.848 323.148 599.848 317.585C599.843 312.023 595.202 307.377 589.635 307.377L589.634 307.376Z" fill="white"/>
<path d="M400.514 240.096H332.421C326.858 240.096 322.212 244.741 322.212 250.304C322.212 255.866 326.858 260.512 332.421 260.512H400.514C406.077 260.512 410.722 255.866 410.722 250.304C410.722 244.736 406.076 240.096 400.514 240.096Z" fill="white"/>
<path d="M400.514 307.376H304.045H204.023H203.935C198.372 307.376 193.727 312.021 193.727 317.584C193.727 323.146 198.372 327.792 203.935 327.792H300.404H400.426H400.514C406.077 327.792 410.722 323.146 410.722 317.584C410.722 312.021 406.076 307.376 400.514 307.376Z" fill="white"/>
<path d="M86.4741 161.082H195.625H215.037C224.011 161.082 228.463 149.994 222.256 143.656C210.105 131.249 197.949 118.844 185.797 106.437C176.573 97.0203 162.146 111.468 171.36 120.874C183.511 133.281 195.666 145.686 207.818 158.093C210.225 152.286 212.631 146.473 215.037 140.666H105.886H86.4744C80.9118 140.666 76.2661 145.312 76.2661 150.875C76.2661 156.437 80.9117 161.082 86.4741 161.082Z" fill="white"/>
<path d="M207.821 143.656C195.67 156.062 183.514 168.468 171.362 180.874C162.149 190.281 176.576 204.729 185.799 195.312C197.951 182.905 210.106 170.5 222.258 158.093C231.472 148.682 217.045 134.238 207.821 143.656Z" fill="white"/>
</svg>
