<svg width="110" height="125" viewBox="0 0 110 125" fill="none" xmlns="http://www.w3.org/2000/svg">
<path d="M26.4925 74.0985H29.2689C31.7251 74.0985 33.816 72.5133 34.5771 70.3134H42.5387C43.5502 70.3134 44.3698 69.4938 44.3698 68.4824C44.3698 67.4709 43.5502 66.6513 42.5387 66.6513H34.5771C33.8159 64.4514 31.7251 62.8663 29.2689 62.8663H26.4925C23.3954 62.8663 20.8765 65.3852 20.8765 68.4823C20.8765 71.5794 23.3954 74.0985 26.4925 74.0985ZM26.4925 66.5284H29.2689C30.3466 66.5284 31.2229 67.4047 31.2229 68.4824C31.2229 69.5601 30.3466 70.4364 29.2689 70.4364H26.4925C25.4148 70.4364 24.5385 69.5601 24.5385 68.4824C24.5385 67.4047 25.4148 66.5284 26.4925 66.5284Z" fill="white"/>
<path d="M26.4213 59.181H73.5083C75.799 59.181 77.663 57.3168 77.663 55.0263V14.0219C77.663 11.7313 75.7988 9.86719 73.5083 9.86719H54.8193C53.8078 9.86719 52.9882 10.6868 52.9882 11.6982C52.9882 12.7097 53.8078 13.5293 54.8193 13.5293H73.5083C73.7795 13.5293 74.001 13.7499 74.001 14.0219V55.0264C74.001 55.2975 73.7804 55.519 73.5083 55.519H26.4213C26.1501 55.519 25.9287 55.2984 25.9287 55.0264V14.0219C25.9287 13.7508 26.1493 13.5293 26.4213 13.5293H45.786C46.7974 13.5293 47.6171 12.7097 47.6171 11.6982C47.6171 10.6868 46.7974 9.86719 45.786 9.86719H26.4213C24.1298 9.86719 22.2666 11.7314 22.2666 14.0219V55.0263C22.2666 57.317 24.1308 59.181 26.4213 59.181Z" fill="white"/>
<path d="M105.877 110.632H99.8184C100.022 110.059 100.133 109.443 100.133 108.801V77.2429C100.133 74.2138 97.6691 71.7498 94.6401 71.7498H88.4441V4.79219C88.4441 2.15022 86.2939 0 83.6519 0H16.2769C13.6349 0 11.4847 2.15018 11.4847 4.79219V110.631H3.81773C1.80706 110.631 0.17041 112.268 0.17041 114.279V121.353C0.17041 123.363 1.80702 125 3.81773 125H42.3133C43.3247 125 44.1443 124.18 44.1443 123.169C44.1443 122.158 43.3247 121.338 42.3133 121.338L3.83336 121.353L3.81853 114.294L105.861 114.279L105.876 121.338H51.1012C50.0898 121.338 49.2702 122.158 49.2702 123.169C49.2702 124.18 50.0898 125 51.1012 125H105.876C107.886 125 109.523 123.363 109.523 121.353V114.279C109.523 112.268 107.886 110.631 105.876 110.631L105.877 110.632ZM96.4719 77.2435V108.802C96.4719 109.811 95.6506 110.633 94.6409 110.633H56.7056C55.6959 110.633 54.8746 109.811 54.8746 108.802V77.2435C54.8746 76.2339 55.6959 75.4125 56.7056 75.4125H67.3686V83.054C67.3686 85.4379 69.3077 87.377 71.6916 87.377H79.6549C82.0389 87.377 83.977 85.4378 83.977 83.054V75.4125H94.64C95.6497 75.4125 96.471 76.2339 96.471 77.2435H96.4719ZM51.5277 110.632H25.9295V81.6855C25.9295 81.4144 26.1501 81.1929 26.4222 81.1929H51.2123V108.8C51.2123 109.442 51.3239 110.058 51.5271 110.631L51.5277 110.632ZM71.0311 75.411H80.3155V83.0525C80.3155 83.4169 80.019 83.7134 79.6554 83.7134H71.692C71.3276 83.7134 71.0311 83.4169 71.0311 83.0525L71.0311 75.411ZM15.1472 4.79042C15.1472 4.16699 15.6537 3.6604 16.2772 3.6604H83.6522C84.2756 3.6604 84.7822 4.16786 84.7822 4.79042V71.748H56.7041C53.6751 71.748 51.211 74.2121 51.211 77.2411V77.5297H26.4208C24.1293 77.5297 22.2661 79.3939 22.2661 81.6844V110.631H15.1467L15.1472 4.79042Z" fill="white"/>
</svg>
