<svg width="105" height="125" viewBox="0 0 105 125" fill="none" xmlns="http://www.w3.org/2000/svg">
<path d="M102.087 87.4979H87.503V56.2468C87.503 55.0973 86.5719 54.1634 85.4196 54.1634H70.8357V22.9124C70.8357 21.7628 69.9047 20.829 68.7523 20.829H35.4179C34.2655 20.829 33.3345 21.7628 33.3345 22.9124V54.1634H18.7506C17.5983 54.1634 16.6672 55.0973 16.6672 56.2468V87.4979H2.0834C0.931032 87.4979 0 88.4317 0 89.5813V122.916C0 124.065 0.931032 124.999 2.0834 124.999H102.087C103.239 124.999 104.17 124.065 104.17 122.916V89.5813C104.17 88.4317 103.239 87.4979 102.087 87.4979ZM89.5864 91.6647V99.1362L86.893 96.4427C86.0782 95.628 84.7612 95.628 83.9474 96.4427L81.253 99.1362V91.6647H89.5864ZM75.0025 72.9141C75.2713 72.9141 75.542 72.862 75.8006 72.756C76.58 72.4332 77.086 71.6724 77.086 70.8307V58.3303H83.3362V87.4979H54.1685V58.3303H60.4187V70.8307C60.4187 71.6724 60.9247 72.4332 61.7041 72.756C62.4835 73.0769 63.3773 72.9001 63.9754 72.304L68.7522 67.5262L73.529 72.303C73.9271 72.702 74.461 72.9141 75.0023 72.9141L75.0025 72.9141ZM56.2519 91.6647V99.1362L53.5585 96.4427C52.7437 95.628 51.4267 95.628 50.6129 96.4427L47.9185 99.1362V91.6647H56.2519ZM72.9191 58.3303V65.8017L70.2257 63.1083C69.4109 62.2935 68.094 62.2935 67.2801 63.1083L64.5858 65.8017V58.3303H72.9191ZM47.9183 24.9958H56.2519V32.4672L53.5585 29.7738C52.7437 28.959 51.4267 28.959 50.6129 29.7738L47.9185 32.4672L47.9183 24.9958ZM37.5013 24.9958H43.7515V37.4962C43.7515 38.338 44.2575 39.0988 45.0369 39.4215C45.8144 39.7424 46.7101 39.5675 47.3082 38.9695L52.085 34.1917L56.8618 38.9685C57.2599 39.3675 57.7938 39.5796 58.3351 39.5796C58.6039 39.5796 58.8745 39.5275 59.1331 39.4215C59.9125 39.0987 60.4185 38.3379 60.4185 37.4962V24.9958H66.6687V54.1634H37.501L37.5013 24.9958ZM31.2511 58.3303H39.5847V67.8851L36.8913 65.1917C36.0765 64.3769 34.7595 64.3769 33.9457 65.1917L31.2513 67.8851L31.2511 58.3303ZM20.834 58.3303H27.0843V72.9141C27.0843 73.7558 27.5902 74.5166 28.3696 74.8394C29.1472 75.1603 30.0447 74.9854 30.6409 74.3873L35.4178 69.6096L40.1946 74.3864C40.5927 74.7854 41.1265 74.9975 41.6678 74.9975C41.9366 74.9975 42.2073 74.9454 42.4659 74.8394C43.2453 74.5166 43.7512 73.7558 43.7512 72.9141V58.3302H50.0015V87.4979H20.8338L20.834 58.3303ZM14.5838 91.6647H22.9174V99.1362L20.224 96.4427C19.4093 95.628 18.0923 95.628 17.2784 96.4427L14.5841 99.1362L14.5838 91.6647ZM33.3345 120.832H4.16681V91.6647H10.417V104.165C10.417 105.007 10.923 105.768 11.7024 106.09C12.4837 106.413 13.3775 106.236 13.9737 105.638L18.7505 100.861L23.5273 105.637C23.9254 106.036 24.4593 106.249 25.0006 106.249C25.2694 106.249 25.5401 106.196 25.7986 106.09C26.578 105.768 27.084 105.007 27.084 104.165V91.6647H33.3342L33.3345 120.832ZM66.6689 120.832H37.5013V91.6647H43.7515V104.165C43.7515 105.007 44.2575 105.768 45.0369 106.09C45.8144 106.413 46.7101 106.236 47.3082 105.638L52.085 100.861L56.8618 105.637C57.2599 106.036 57.7938 106.249 58.3351 106.249C58.6039 106.249 58.8745 106.196 59.1331 106.09C59.9125 105.768 60.4185 105.007 60.4185 104.165V91.6647H66.6687L66.6689 120.832ZM100.003 120.832H70.8357V91.6647H77.086V104.165C77.086 105.007 77.5919 105.768 78.3713 106.09C79.1507 106.413 80.0446 106.236 80.6426 105.638L85.4195 100.861L90.1963 105.637C90.5944 106.036 91.1282 106.249 91.6695 106.249C91.9383 106.249 92.209 106.196 92.4676 106.09C93.247 105.768 93.753 105.007 93.753 104.165V91.6647H100.003L100.003 120.832Z" fill="white"/>
<path d="M49.9893 0H54.1561V10.417H49.9893V0Z" fill="white"/>
<path d="M79.1636 35.416H89.5806V39.5828H79.1636V35.416Z" fill="white"/>
<path d="M14.5869 35.416H25.0039V39.5828H14.5869V35.416Z" fill="white"/>
<path d="M74.5215 16.3083L81.8879 8.94189L84.8344 11.8884L77.468 19.2549L74.5215 16.3083Z" fill="white"/>
<path d="M18.2495 11.8882L21.196 8.94165L28.5625 16.3088L25.6159 19.2553L18.2495 11.8882Z" fill="white"/>
</svg>
