<svg width="120" height="125" viewBox="0 0 120 125" fill="none" xmlns="http://www.w3.org/2000/svg">
<path d="M49.101 75.3549C42.3097 75.3549 36.5018 70.2728 35.5925 63.5346C35.5107 62.9259 35.4688 62.3072 35.4688 61.6962C35.4688 54.9049 40.5509 49.097 47.2891 48.1877C47.8978 48.1059 48.5165 48.064 49.1286 48.064C55.9199 48.064 61.7278 53.1461 62.6371 59.8843C62.7188 60.493 62.7608 61.1117 62.7608 61.7238C62.7608 68.5151 57.6786 74.323 50.9405 75.2323C50.3307 75.3129 49.7119 75.3549 49.101 75.3549ZM49.1275 54.2499C48.7917 54.2499 48.4514 54.2731 48.1155 54.3184C44.4322 54.8155 41.6546 57.9875 41.6546 61.6963C41.6546 62.0321 41.6778 62.3724 41.7231 62.7083C42.2202 66.3916 45.3922 69.1692 49.0998 69.1692C49.4357 69.1692 49.776 69.146 50.1107 69.1007C53.794 68.6036 56.5717 65.4316 56.5717 61.7228C56.5717 61.387 56.5485 61.0467 56.5032 60.7108C56.0082 57.0275 52.8363 54.2499 49.1275 54.2499Z" fill="white"/>
<path d="M41.9935 107.778C41.946 107.778 41.8996 107.777 41.8521 107.775C36.5125 107.531 32.1165 103.51 31.4018 98.2121L30.8792 94.3399C30.7433 93.3379 30.6748 92.3192 30.6748 91.3139C30.6748 80.1478 39.0316 70.5989 50.1128 69.103C51.116 68.9671 52.1346 68.8986 53.1377 68.8986C57.4133 68.8986 61.5839 70.1216 65.199 72.434C70.7673 75.9971 74.4673 81.7928 75.35 88.3355L75.8726 92.2078C75.9389 92.6983 75.9721 93.1977 75.9721 93.6926C75.9721 98.4942 72.9019 102.717 68.3323 104.2C68.1555 104.258 67.9743 104.299 67.7909 104.324L42.4058 107.751C42.271 107.77 42.1318 107.779 41.9937 107.779L41.9935 107.778ZM53.1387 75.0834C52.4106 75.0834 51.6704 75.1331 50.9412 75.2314C42.9159 76.3152 36.8628 83.2279 36.8628 91.3109C36.8628 92.04 36.9125 92.7802 37.0108 93.5094L37.5334 97.3816C37.8372 99.6332 39.6502 101.361 41.8896 101.575L66.6539 98.2312C68.5376 97.5142 69.7871 95.7189 69.7871 93.6893C69.7871 93.4716 69.7727 93.2507 69.7429 93.0341L69.2203 89.1608C68.5806 84.4222 65.8993 80.2239 61.8656 77.6431C59.2472 75.9682 56.2297 75.0834 53.1387 75.0834Z" fill="white"/>
<path d="M105.797 125C105.611 125 105.425 124.993 105.241 124.98L44.9647 120.509C43.2611 120.382 41.9828 118.899 42.1086 117.194C42.2346 115.491 43.7161 114.211 45.422 114.338L50.998 114.752C51.3107 113.583 52.2984 112.657 53.5722 112.484L53.8782 112.443C55.573 112.213 57.1296 113.399 57.3596 115.092C57.3662 115.136 57.3706 115.18 57.375 115.223L67.8938 116.003C67.1867 115.527 66.6796 114.763 66.5569 113.851C66.3283 112.159 67.5159 110.6 69.2085 110.372L91.4878 107.364C92.0988 107.281 92.5595 106.756 92.5595 106.143C92.5595 106.085 92.5551 106.028 92.5485 105.973L79.8698 12.0675C79.7449 11.1439 80.0443 10.2125 80.6829 9.53306C81.3215 8.85362 82.2351 8.49897 83.1643 8.56855L113.71 10.8345C114.692 10.9074 115.534 11.4311 116.045 12.189C116.958 12.1106 117.892 12.4332 118.567 13.1502C118.687 13.2783 118.803 13.4109 118.915 13.5468C119.995 14.8703 119.798 16.8191 118.475 17.8998C117.152 18.9803 115.203 18.7837 114.122 17.4601C114.102 17.4369 114.082 17.4137 114.062 17.3916C113.946 17.269 113.842 17.1375 113.75 17.0016C113.586 17.0149 113.419 17.016 113.252 17.0049L86.5128 15.0218L98.681 105.146C98.7252 105.475 98.7484 105.811 98.7484 106.144C98.7484 109.841 95.9831 113.002 92.3174 113.497L71.6686 116.285L105.701 118.81C105.736 118.813 105.767 118.813 105.798 118.813C106.439 118.813 106.979 118.309 107.027 117.667L113.494 30.4822C113.62 28.7775 115.111 27.5003 116.807 27.6262C118.511 27.7533 119.79 29.2359 119.663 30.9407L113.197 118.126C112.91 121.978 109.66 124.998 105.797 124.998L105.797 125Z" fill="white"/>
<path d="M19.3952 29.6694C17.8706 29.6694 16.5426 28.5425 16.3339 26.9891C16.1052 25.2954 17.2928 23.7377 18.9854 23.51L68.0366 16.8878C69.7269 16.6602 71.288 17.8468 71.5157 19.5394C71.7443 21.2319 70.5567 22.7908 68.8641 23.0184L19.8129 29.6406C19.6726 29.6594 19.5322 29.6694 19.3952 29.6694Z" fill="white"/>
<path d="M36.3791 39.8626C34.8545 39.8626 33.5265 38.7357 33.3177 37.1823C33.0891 35.4887 34.2767 33.9309 35.9693 33.7032L54.3631 31.2197C56.0557 30.991 57.6145 32.1786 57.8422 33.8712C58.0709 35.5638 56.8832 37.1226 55.1907 37.3503L36.7968 39.8339C36.6565 39.8526 36.5172 39.8626 36.3791 39.8626Z" fill="white"/>
<path d="M20.1957 123.167C16.4991 123.167 13.3382 120.402 12.8433 116.736L2.66141 41.3197C2.43271 39.6271 3.62037 38.0683 5.31294 37.8406C7.0044 37.613 8.56435 38.7996 8.79203 40.4921L18.9739 115.906C19.0645 116.573 19.6953 117.056 20.3649 116.967L91.4881 107.364C93.1784 107.135 94.7395 108.323 94.9672 110.015C95.1959 111.709 94.0082 113.267 92.3156 113.494L21.1924 123.097C20.8643 123.142 20.5273 123.166 20.1948 123.166L20.1957 123.167ZM94.7016 101.911C93.177 101.911 91.849 100.783 91.6402 99.2306L91.5983 98.9246C91.3696 97.2321 92.5572 95.6732 94.2498 95.4455C95.9435 95.2168 97.5012 96.4045 97.7289 98.0971L97.7709 98.4031C97.9996 100.097 96.8119 101.655 95.1193 101.882C94.979 101.902 94.8397 101.911 94.7016 101.911ZM92.5903 86.2758C91.0657 86.2758 89.7377 85.1489 89.529 83.5955L79.2224 7.25976C79.1329 6.59245 78.5009 6.10855 77.8314 6.19914L7.63022 15.6773C5.93545 15.9049 4.3788 14.7184 4.15113 13.0258C3.92243 11.3332 5.11009 9.7744 6.80266 9.54672L77.0039 0.067393C77.3331 0.0232009 77.6701 0 78.0026 0C81.698 0 84.8589 2.76531 85.355 6.43098L95.6616 82.7668C95.8903 84.4604 94.7027 86.0182 93.0101 86.2458C92.8698 86.2657 92.7295 86.2746 92.5914 86.2746L92.5903 86.2758ZM3.65448 28.6718C2.12985 28.6718 0.801859 27.5449 0.59313 25.9916L0.551143 25.6856C0.32245 23.993 1.51011 22.4341 3.20267 22.2065C4.89414 21.9778 6.45296 23.1654 6.68177 24.858L6.72375 25.164C6.95244 26.8577 5.76479 28.4154 4.07222 28.6431C3.93191 28.6619 3.79148 28.6718 3.65448 28.6718Z" fill="white"/>
</svg>
