<svg width="113" height="90" viewBox="0 0 113 90" fill="none" xmlns="http://www.w3.org/2000/svg">
<path d="M28.5356 54.3729C27.27 54.3729 26.0042 53.8981 25.0376 52.9314C24.1062 52 23.5962 50.7516 23.5962 49.4334C23.5962 48.1153 24.1062 46.8677 25.0376 45.9354C26.9538 44.002 30.0994 44.002 32.0156 45.9354C32.947 46.8668 33.457 48.1153 33.457 49.4334C33.457 50.7516 32.947 51.9992 32.0156 52.9314C31.0669 53.8809 29.8013 54.3729 28.5356 54.3729ZM28.5356 46.2351C27.7094 46.2351 26.9012 46.5513 26.268 47.1665C25.6701 47.7644 25.3366 48.5726 25.3366 49.4341C25.3366 50.2957 25.6709 51.1039 26.268 51.7018C27.5156 52.9494 29.5549 52.9494 30.8025 51.7018C31.4004 51.1039 31.7339 50.2957 31.7339 49.4341C31.7339 48.5726 31.3996 47.7644 30.8025 47.1665C30.1701 46.534 29.3446 46.2351 28.5356 46.2351Z" fill="black"/>
<path d="M23.0174 76.4832C21.8922 76.4832 20.7851 76.1842 19.7829 75.6216C18.2889 74.7601 17.2172 73.354 16.7596 71.6841C16.1617 69.4518 16.8121 67.0616 18.4466 65.4273C19.2375 64.6363 20.2568 64.0565 21.3468 63.7575C23.0166 63.3009 24.757 63.5464 26.2509 64.408C27.7449 65.2696 28.8167 66.6757 29.2743 68.3455C29.8722 70.5778 29.2217 72.968 27.5873 74.6024C26.7963 75.3933 25.7771 75.9732 24.6871 76.2721C24.1417 76.3953 23.5792 76.4832 23.0174 76.4832ZM23.0347 65.2523C22.6306 65.2523 22.2084 65.3049 21.8043 65.4108C20.9961 65.6219 20.2577 66.0433 19.6779 66.6412C18.4828 67.8362 18.0081 69.5938 18.4475 71.2283C18.7818 72.4587 19.5547 73.4779 20.6617 74.1113C21.7516 74.7437 23.0345 74.9022 24.265 74.586C25.0732 74.3749 25.8116 73.9536 26.3915 73.3557C27.5865 72.1606 28.0612 70.403 27.6218 68.7685C27.2875 67.5382 26.5146 66.5189 25.4076 65.8856C24.6692 65.4634 23.8429 65.2524 23.0349 65.2524L23.0347 65.2523Z" fill="black"/>
<path d="M38.0626 89.9999C37.6404 89.9999 37.2191 89.9474 36.7969 89.8414C35.514 89.4899 34.4593 88.6817 33.7916 87.5392C33.1239 86.3967 32.9481 85.0612 33.2996 83.7955C33.528 82.952 33.9674 82.1964 34.5826 81.5813C35.8302 80.3337 37.6583 79.8409 39.3455 80.2984C41.9819 81.0014 43.5466 83.7086 42.8435 86.3451C42.6152 87.1886 42.1758 87.9442 41.5606 88.5593C40.6284 89.4899 39.3634 89.9999 38.0626 89.9999ZM38.0798 81.8441C37.2363 81.8441 36.4101 82.1783 35.8122 82.7754C35.4081 83.1795 35.1264 83.6715 34.9859 84.2169C34.7576 85.0431 34.8808 85.9039 35.3021 86.6422C35.7243 87.3806 36.4273 87.9079 37.2528 88.1362C38.3599 88.4352 39.5377 88.119 40.3458 87.31C40.7499 86.9059 41.0316 86.4139 41.1721 85.8685C41.6288 84.1635 40.6095 82.4059 38.9044 81.9491C38.6424 81.8793 38.3615 81.8441 38.0798 81.8441Z" fill="black"/>
<path d="M58.6442 85.1148C57.1502 85.1148 55.744 84.5349 54.7067 83.4803C52.5268 81.3005 52.5268 77.7679 54.7067 75.5882C56.8866 73.4085 60.4191 73.4083 62.5988 75.5882C64.7787 77.7681 64.7787 81.3007 62.5988 83.4803C61.527 84.5349 60.1381 85.1148 58.644 85.1148H58.6442ZM58.6442 75.6934C57.6603 75.6934 56.6755 76.0622 55.92 76.8186C54.426 78.3126 54.426 80.7561 55.92 82.25C57.3614 83.7087 59.9099 83.7087 61.3687 82.25C62.8627 80.756 62.8627 78.3125 61.3687 76.8186C60.613 76.0802 59.6291 75.6934 58.6444 75.6934H58.6442Z" fill="black"/>
<path d="M64.1646 65.4452C61.2997 65.4452 58.6805 63.529 57.9078 60.6469C57.3099 58.4146 57.9604 56.0244 59.5775 54.3901C60.3857 53.5819 61.3878 53.0193 62.4778 52.7203C64.1475 52.2809 65.888 52.5092 67.3819 53.3708C68.8759 54.2324 69.9477 55.6385 70.4052 57.3083C71.0032 59.5406 70.3527 61.9308 68.7355 63.5651C67.9273 64.3561 66.9253 64.9359 65.8353 65.2349C65.2719 65.3754 64.7091 65.4452 64.1646 65.4452ZM64.1646 54.2316C63.7605 54.2316 63.3383 54.2842 62.9342 54.3901C62.126 54.6012 61.3877 55.0225 60.8078 55.6204C59.6128 56.8155 59.138 58.5731 59.5774 60.2076C60.2632 62.739 62.8643 64.2329 65.3777 63.5644C66.1859 63.3533 66.9242 62.932 67.5041 62.334C68.6992 61.139 69.1739 59.3814 68.7345 57.7469C68.4002 56.5165 67.6273 55.4973 66.5202 54.8639C65.7991 54.4426 64.9909 54.2316 64.1646 54.2316Z" fill="black"/>
<path d="M49.0828 49.3271C48.6261 49.3271 48.1514 49.2745 47.6939 49.1513C44.811 48.3776 43.0887 45.4076 43.8625 42.5249C44.1088 41.6108 44.6008 40.7673 45.2686 40.0996C46.6394 38.746 48.6435 38.2015 50.5062 38.6934C53.3891 39.4671 55.1114 42.4371 54.3376 45.3199C54.0912 46.234 53.5992 47.0775 52.9315 47.7452C51.895 48.7653 50.5062 49.3271 49.0828 49.3271ZM49.1 40.2408C48.1333 40.2408 47.1839 40.6276 46.4808 41.3126C46.0242 41.7693 45.7072 42.3319 45.5314 42.9651C45.0041 44.9158 46.1819 46.937 48.1325 47.4643C49.3982 47.7986 50.769 47.429 51.6832 46.5148C52.1398 46.0582 52.4568 45.4956 52.6326 44.8623C53.1599 42.9117 51.9821 40.8905 50.0315 40.3632C49.7333 40.2933 49.4163 40.2408 49.1 40.2408Z" fill="black"/>
<path d="M54.6008 29.8363C52.9483 29.8363 51.2785 29.2038 50.0309 27.9382C47.4995 25.4067 47.4995 21.3117 50.0309 18.7811C52.5623 16.2497 56.6573 16.2497 59.1879 18.7811C61.7193 21.3125 61.7193 25.4075 59.1879 27.9382C57.923 29.203 56.2706 29.8363 54.6008 29.8363ZM54.6008 18.6227C53.3877 18.6227 52.1754 19.0793 51.244 20.0115C49.3984 21.8571 49.3984 24.8622 51.244 26.7259C53.0895 28.5715 56.0947 28.5715 57.9584 26.7259C59.8039 24.8804 59.8039 21.8752 57.9584 20.0115C57.0442 19.0794 55.8311 18.6227 54.6008 18.6227Z" fill="black"/>
<path d="M84.7097 58.3987C83.444 58.3987 82.1783 57.9239 81.2117 56.9572C79.2783 55.0238 79.2955 51.8954 81.2117 49.9793C82.1431 49.0479 83.3915 48.5378 84.7097 48.5378C86.0278 48.5378 87.2754 49.0479 88.2077 49.9793C90.1411 51.9127 90.1411 55.0411 88.2077 56.9572C87.2402 57.9239 85.9746 58.3987 84.7097 58.3987ZM84.7269 50.2609C83.8654 50.2609 83.0572 50.5951 82.4593 51.1922C81.2117 52.4399 81.2117 54.4791 82.4593 55.7268C83.7069 56.9744 85.7462 56.9744 86.9938 55.7268C88.2414 54.4792 88.2414 52.4399 86.9938 51.1922C86.3794 50.5943 85.5704 50.2609 84.7269 50.2609Z" fill="black"/>
<path d="M90.23 39.3798C87.3652 39.3798 84.746 37.4637 83.9732 34.5816C83.3753 32.3493 84.0258 29.9591 85.643 28.3247C86.4339 27.5338 87.4359 26.9539 88.5432 26.655C90.2129 26.1983 91.9534 26.4439 93.4646 27.3055C94.9586 28.167 96.0304 29.5731 96.4879 31.243C97.0859 33.4753 96.4354 35.8655 94.8182 37.4998C94.0272 38.308 93.008 38.8706 91.918 39.1696C91.3554 39.3092 90.7926 39.3798 90.23 39.3798ZM90.23 28.1663C89.8259 28.1663 89.4038 28.2188 88.9997 28.3248C88.1915 28.5358 87.4531 28.9572 86.8732 29.5551C85.6782 30.7501 85.2035 32.5078 85.6429 34.1423C86.3287 36.6737 88.9298 38.1676 91.4431 37.4991C92.2513 37.288 92.9897 36.8666 93.5696 36.2687C94.7646 35.0737 95.2393 33.3161 94.7999 31.6816C94.4656 30.4512 93.6927 29.432 92.5857 28.7986C91.8646 28.3772 91.0564 28.1663 90.23 28.1663Z" fill="black"/>
<path d="M75.1663 23.2618C74.6916 23.2618 74.2349 23.2092 73.7602 23.086C72.3713 22.7172 71.1944 21.8203 70.4733 20.5727C69.753 19.3251 69.5592 17.8655 69.9288 16.4774C70.1752 15.5633 70.6671 14.7198 71.3349 14.0521C72.7057 12.6813 74.6917 12.154 76.5552 12.646C77.944 13.0148 79.1209 13.9116 79.8421 15.1593C80.5624 16.4069 80.7562 17.8665 80.3866 19.2726C80.1402 20.1867 79.6663 21.0303 78.9978 21.698C77.9785 22.6992 76.5905 23.2618 75.1663 23.2618ZM75.1844 14.1746C74.2177 14.1746 73.2682 14.5615 72.5652 15.2465C72.1085 15.7031 71.7915 16.2657 71.6157 16.899C71.3693 17.8484 71.4925 18.8324 71.9845 19.6939C72.4765 20.5374 73.2674 21.1526 74.2168 21.399C75.4825 21.7333 76.8533 21.3818 77.7675 20.4496C78.2241 19.9929 78.5412 19.4303 78.7169 18.7971C78.9806 17.8476 78.8401 16.8464 78.3481 16.0021C77.8561 15.1586 77.0652 14.5434 76.1158 14.2798C75.8169 14.2099 75.5006 14.1746 75.1844 14.1746Z" fill="black"/>
<path d="M52.8613 9.88752C51.5957 9.88752 50.3299 9.41279 49.3633 8.44609C48.4319 7.5147 47.9219 6.26621 47.9219 4.94807C47.9219 3.62994 48.4319 2.38231 49.3633 1.45006C51.2795 -0.483352 54.4251 -0.483352 56.3413 1.45006C57.2726 2.38145 57.7827 3.62994 57.7827 4.94807C57.7827 6.26621 57.2726 7.51383 56.3413 8.44609C55.3918 9.41279 54.127 9.88752 52.8613 9.88752ZM52.8613 1.74972C52.0351 1.74972 51.2088 2.06594 50.5937 2.68111C49.9957 3.27903 49.6623 4.08723 49.6623 4.94877C49.6623 5.81034 49.9965 6.61854 50.5937 7.21644C51.8413 8.46404 53.8806 8.46404 55.1282 7.21644C55.7261 6.61852 56.0596 5.81032 56.0596 4.94877C56.0596 4.08721 55.7253 3.27901 55.1282 2.68111C54.4957 2.06594 53.6695 1.74972 52.8613 1.74972Z" fill="black"/>
<path d="M107.559 35.5652C106.293 35.5652 105.028 35.0905 104.061 34.1238C102.145 32.1904 102.145 29.062 104.061 27.1459C105.924 25.2831 109.176 25.2831 111.039 27.1459C111.97 28.0773 112.481 29.3257 112.481 30.6439C112.481 31.962 111.97 33.2096 111.039 34.1419C110.09 35.0733 108.824 35.5652 107.559 35.5652ZM107.559 27.4274C106.698 27.4274 105.889 27.7617 105.291 28.3588C104.044 29.6064 104.044 31.6457 105.291 32.8934C106.539 34.141 108.578 34.141 109.826 32.8934C110.424 32.2954 110.757 31.4872 110.757 30.6257C110.757 29.7642 110.423 28.9559 109.826 28.358C109.229 27.7436 108.42 27.4274 107.559 27.4274Z" fill="black"/>
<path d="M78.3118 78.066C77.0462 78.066 75.7804 77.5913 74.8138 76.6246C72.8804 74.6911 72.8804 71.5627 74.8138 69.6466C76.6766 67.7838 79.9283 67.7838 81.7918 69.6466C82.7232 70.578 83.2332 71.8265 83.2332 73.1446C83.2332 74.4627 82.7232 75.7104 81.7918 76.6426C80.8431 77.5921 79.5775 78.066 78.3118 78.066ZM78.3118 69.9282C77.4503 69.9282 76.6421 70.2625 76.0442 70.8596C74.7966 72.1072 74.7966 74.1465 76.0442 75.3941C77.2918 76.6417 79.3311 76.6417 80.5787 75.3941C81.1766 74.7962 81.5101 73.988 81.5101 73.1264C81.5101 72.2649 81.1758 71.4567 80.5787 70.8588C79.9643 70.2624 79.1553 69.9282 78.3118 69.9282Z" fill="black"/>
<path d="M4.94807 73.9522C3.68241 73.9522 2.41666 73.4775 1.45006 72.5108C-0.483352 70.5774 -0.483352 67.449 1.45006 65.5328C3.31284 63.67 6.5645 63.67 8.42801 65.5328C10.3614 67.4662 10.3614 70.5946 8.42801 72.5108C7.47934 73.4775 6.21378 73.9522 4.94807 73.9522ZM4.94807 65.8144C4.0865 65.8144 3.27831 66.1487 2.68041 66.7458C1.4328 67.9934 1.4328 70.0327 2.68041 71.2803C3.92802 72.528 5.96731 72.5279 7.21493 71.2803C8.46254 70.0327 8.46254 67.9934 7.21493 66.7458C6.60054 66.1479 5.8096 65.8144 4.94807 65.8144Z" fill="black"/>
<path d="M74.4972 72.5462C74.2688 72.5462 74.0578 72.4584 73.882 72.2998L66.1311 64.5489C65.7968 64.2147 65.7968 63.6701 66.1311 63.3186C66.4654 62.9843 67.0099 62.9843 67.3614 63.3186L75.1123 71.0695C75.4466 71.4038 75.4466 71.9483 75.1123 72.2998C74.9546 72.4583 74.7255 72.5462 74.4972 72.5462Z" fill="black"/>
<path d="M76.8536 70.1917C76.6253 70.1917 76.4142 70.1039 76.2384 69.9453L68.4875 62.1944C68.1532 61.8602 68.1532 61.3156 68.4875 60.9641C68.8218 60.6298 69.3663 60.6298 69.7179 60.9641L77.4688 68.715C77.8031 69.0493 77.8031 69.5938 77.4688 69.9453C77.3103 70.1219 77.0819 70.1917 76.8536 70.1917Z" fill="black"/>
<path d="M42.0886 86.5731C41.7018 86.5731 41.3502 86.3094 41.2451 85.9226C41.1219 85.4659 41.4036 84.9912 41.8603 84.868L54.6033 81.4578C55.06 81.3346 55.5347 81.6163 55.6579 82.0729C55.7811 82.5296 55.4994 83.0043 55.0427 83.1275L42.2997 86.5378C42.2291 86.5558 42.1585 86.5731 42.0886 86.5731ZM34.267 84.4812C34.0387 84.4812 33.8276 84.3933 33.6518 84.2348L25.004 75.605C24.6697 75.2708 24.6697 74.7262 25.004 74.3747C25.3383 74.0404 25.8828 74.0404 26.2344 74.3747L34.8822 83.0044C35.2164 83.3387 35.2164 83.8833 34.8822 84.2348C34.7064 84.3933 34.4953 84.4812 34.267 84.4812ZM41.2269 83.374C40.84 83.374 40.4885 83.1276 40.3834 82.7416C40.2602 82.2849 40.5419 81.8102 40.9985 81.687L53.7243 78.2597C54.181 78.1365 54.6557 78.4001 54.7789 78.8749C54.9021 79.3315 54.6204 79.8063 54.1637 79.9295L41.438 83.3568C41.3854 83.3568 41.3148 83.374 41.2269 83.374ZM36.6397 82.1264C36.4114 82.1264 36.2003 82.0385 36.0245 81.88L27.3595 73.2149C27.0252 72.8807 27.0252 72.3361 27.3595 71.9846C27.6937 71.633 28.2383 71.6503 28.5898 71.9846L37.2549 80.6497C37.5892 80.9839 37.5892 81.5285 37.2549 81.88C37.0791 82.0558 36.85 82.1264 36.6397 82.1264ZM61.4054 76.607C61.3348 76.607 61.2469 76.5897 61.1771 76.5717C60.7204 76.4485 60.4387 75.9738 60.5619 75.5171L63.5499 64.3562C63.6731 63.8995 64.1478 63.6178 64.6045 63.741C65.0612 63.8642 65.3429 64.3389 65.2197 64.7956L62.2317 75.9565C62.1265 76.3434 61.775 76.607 61.4054 76.607ZM58.1718 75.7282C58.1012 75.7282 58.0133 75.7109 57.9434 75.6929C57.4868 75.5697 57.2051 75.095 57.3283 74.6383L60.3163 63.4773C60.4395 63.0207 60.9142 62.739 61.3709 62.8622C61.8275 62.9854 62.1092 63.4601 61.986 63.9168L58.998 75.0777C58.9094 75.4826 58.5578 75.7282 58.1718 75.7282ZM17.5872 72.231H17.5347L8.51805 71.739C8.04333 71.7217 7.67455 71.2996 7.70986 70.8249C7.72712 70.3501 8.13202 69.946 8.624 70.0167L17.6406 70.5086C18.1153 70.5259 18.4841 70.9481 18.4488 71.4228C18.4135 71.8794 18.0439 72.231 17.5872 72.231ZM17.7803 68.926H17.7277L8.693 68.434C8.21828 68.4168 7.8495 67.9946 7.88481 67.5199C7.90207 67.0452 8.32422 66.6411 8.79895 66.7117L17.8336 67.2037C18.3084 67.2209 18.6772 67.6431 18.6418 68.1178C18.6246 68.5745 18.2377 68.926 17.7803 68.926ZM26.0239 66.1318C25.9533 66.1318 25.8654 66.1146 25.7956 66.0965C25.3389 65.9733 25.0572 65.4986 25.1804 65.0419L28.3442 53.2304C28.4674 52.7737 28.9421 52.492 29.3988 52.6152C29.8554 52.7384 30.1371 53.2131 30.0139 53.6698L26.8502 65.4814C26.7443 65.8682 26.3927 66.1318 26.0239 66.1318ZM22.8075 65.2703C22.7369 65.2703 22.649 65.253 22.5792 65.235C22.1225 65.1118 21.8408 64.637 21.964 64.1804L25.1105 52.3869C25.2337 51.9302 25.7084 51.6485 26.1651 51.7717C26.6218 51.8949 26.9035 52.3696 26.7803 52.8263L23.6338 64.6198C23.5459 65.0066 23.1944 65.2703 22.8075 65.2703ZM69.7537 60.068C69.3669 60.068 69.0154 59.8217 68.9275 59.4356C68.8043 58.9789 69.086 58.5042 69.5427 58.381L81.3542 55.2173C81.8109 55.0941 82.2856 55.3758 82.4088 55.8324C82.532 56.2891 82.2503 56.7638 81.7936 56.887L69.9821 60.0508C69.8942 60.0681 69.8244 60.068 69.7537 60.068ZM59.1906 57.2377C58.9623 57.2377 58.7512 57.1499 58.5754 56.9913L50.2972 48.7131C49.9629 48.3789 49.9629 47.8343 50.2972 47.4828C50.6315 47.1485 51.176 47.1485 51.5276 47.4828L59.8058 55.761C60.14 56.0953 60.14 56.6398 59.8058 56.9913C59.63 57.1498 59.4189 57.2377 59.1906 57.2377ZM68.893 56.869C68.5062 56.869 68.1546 56.6226 68.0495 56.2365C67.9263 55.7799 68.208 55.3051 68.6647 55.1819L80.4762 52.0009C80.9329 51.8777 81.4076 52.1413 81.5308 52.6161C81.654 53.0727 81.3723 53.5475 80.9157 53.6707L69.1041 56.8517C69.0507 56.8517 68.9628 56.869 68.893 56.869ZM61.5454 54.883C61.3171 54.883 61.106 54.7951 60.9303 54.6366L52.6521 46.3584C52.3178 46.0241 52.3178 45.4795 52.6521 45.128C52.9863 44.7937 53.5309 44.7937 53.8824 45.128L62.1606 53.4062C62.4949 53.7405 62.4949 54.285 62.1606 54.6366C61.9848 54.7951 61.7746 54.883 61.5454 54.883ZM87.2954 51.1738C87.2248 51.1738 87.155 51.1566 87.0671 51.1385C86.6104 51.0153 86.3287 50.5406 86.4519 50.0839L89.6157 38.2724C89.651 38.1319 89.7389 37.9915 89.844 37.8855C90.1783 37.5512 90.7401 37.5512 91.0744 37.8855C91.338 38.1492 91.3906 38.518 91.2674 38.835L88.1209 50.5405C88.0166 50.9281 87.665 51.1738 87.2954 51.1738ZM32.5453 50.9635C32.1585 50.9635 31.8069 50.7172 31.7018 50.3311C31.5786 49.8744 31.8603 49.3997 32.317 49.2765L45.2185 45.8139C45.6751 45.6907 46.1499 45.9724 46.2731 46.429C46.3963 46.8857 46.1146 47.3604 45.6579 47.4836L32.7564 50.9463C32.7038 50.9455 32.6159 50.9635 32.5453 50.9635ZM84.0795 50.3131C84.0088 50.3131 83.921 50.2958 83.8511 50.2777C83.3945 50.1546 83.1127 49.6798 83.2359 49.2232L86.417 37.4116C86.5402 36.9549 87.0149 36.6732 87.4716 36.7964C87.9282 36.9196 88.2099 37.3943 88.0867 37.851L84.9057 49.6626C84.8006 50.0667 84.4663 50.3131 84.0795 50.3131ZM31.7016 47.7292C31.3148 47.7292 30.9633 47.4656 30.8581 47.0968C30.7349 46.6401 31.0166 46.1654 31.4733 46.0422L44.3567 42.5976C44.8134 42.4744 45.2881 42.7561 45.4113 43.2128C45.5345 43.6695 45.2528 44.1442 44.7961 44.2674L31.9127 47.712C31.8601 47.7292 31.7723 47.7292 31.7016 47.7292ZM51.8091 41.1381C51.7385 41.1381 51.6506 41.1209 51.5808 41.1028C51.1241 40.9796 50.8424 40.5049 50.9656 40.0482L54.0062 28.7286C54.1294 28.2719 54.6041 27.9902 55.0608 28.1134C55.5175 28.2366 55.7992 28.7114 55.676 29.168L52.6353 40.4877C52.5294 40.8918 52.1959 41.1381 51.8091 41.1381ZM48.5927 40.2766C48.5221 40.2766 48.4342 40.2593 48.3644 40.2413C47.9077 40.1181 47.626 39.6433 47.7492 39.1867L50.7898 27.867C50.913 27.4104 51.3877 27.1287 51.8444 27.2519C52.3011 27.3751 52.5828 27.8498 52.4596 28.3065L49.4189 39.6261C49.3303 40.031 48.9788 40.2766 48.5927 40.2766ZM95.7498 34.7055C95.3277 34.7055 94.9416 34.3893 94.8882 33.9499C94.8176 33.4752 95.1519 33.0358 95.6266 32.9832L103.975 31.8933C104.45 31.8227 104.889 32.157 104.942 32.6317C105.013 33.1064 104.678 33.5458 104.204 33.5984L95.855 34.6883C95.8196 34.7056 95.7851 34.7055 95.7498 34.7055ZM95.3104 31.4187C94.8883 31.4187 94.5022 31.1024 94.4488 30.663C94.3782 30.1883 94.7125 29.7489 95.1872 29.6963L103.536 28.6064C104.011 28.5358 104.45 28.8701 104.503 29.3448C104.573 29.8195 104.239 30.2589 103.764 30.3115L95.4155 31.4014C95.3802 31.4187 95.3457 31.4187 95.3104 31.4187ZM85.2737 31.155C85.0454 31.155 84.8343 31.0671 84.6586 30.9086L76.3804 22.6304C76.0461 22.2961 76.0461 21.7516 76.3804 21.4001C76.7146 21.0658 77.2592 21.0658 77.6107 21.4001L85.8889 29.6783C86.2232 30.0125 86.2232 30.5571 85.8889 30.9086C85.7132 31.0671 85.5029 31.155 85.2737 31.155ZM87.6294 28.7994C87.4011 28.7994 87.19 28.7115 87.0142 28.553L78.736 20.2748C78.4017 19.9405 78.4017 19.3959 78.736 19.0444C79.0703 18.7101 79.6148 18.7101 79.9664 19.0444L88.2446 27.3226C88.5788 27.6569 88.5788 28.2014 88.2446 28.553C88.0688 28.7295 87.8577 28.7994 87.6294 28.7994ZM60.2101 24.4579C59.8233 24.4579 59.4718 24.2115 59.3839 23.8254C59.2607 23.3688 59.5424 22.894 59.9991 22.7709L71.3187 19.7302C71.7754 19.607 72.2501 19.8887 72.3733 20.3454C72.4965 20.8021 72.2148 21.2768 71.7581 21.4L60.4385 24.4406C60.3506 24.4406 60.2807 24.4579 60.2101 24.4579ZM59.3486 21.2415C58.9617 21.2415 58.6102 20.9951 58.5223 20.6091C58.3991 20.1524 58.6628 19.6777 59.1375 19.5545L70.4571 16.5138C70.9138 16.3906 71.3885 16.6723 71.5117 17.129C71.6349 17.5857 71.3532 18.0604 70.8965 18.1836L59.5769 21.2242C59.4898 21.2242 59.4192 21.2415 59.3486 21.2415ZM52.4592 19.0797C52.0198 19.0797 51.651 18.7454 51.5976 18.2887L50.6835 8.90251C50.6309 8.42778 50.9825 8.00643 51.4572 7.95306C51.9319 7.91775 52.3533 8.25202 52.4066 8.72675L53.3208 18.113C53.3733 18.5877 53.0218 19.009 52.5471 19.0624C52.5118 19.0624 52.4765 19.0797 52.4592 19.0797ZM55.7634 18.7454C55.324 18.7454 54.9371 18.4111 54.9018 17.9545L54.0057 8.56824C53.9531 8.09351 54.3047 7.67216 54.7794 7.61879C55.2714 7.54817 55.6755 7.91775 55.7289 8.39247L56.6249 17.7787C56.6775 18.2534 56.326 18.6748 55.8512 18.7281C55.8159 18.7454 55.7806 18.7454 55.7634 18.7454Z" fill="black"/>
</svg>
