<svg width="38" height="29" viewBox="0 0 38 29" fill="none" xmlns="http://www.w3.org/2000/svg">
<path d="M37.1599 12.5085L25.4399 0.80866C24.3598 -0.269553 22.5599 -0.269553 21.4798 0.80866C20.3997 1.88687 20.3997 3.6837 21.4798 4.76192L28.4 11.7098H2.79994C1.23993 11.7098 0 12.9476 0 14.5049C0 16.0622 1.23993 17.3 2.79994 17.3H28.4L21.4798 24.208C20.3997 25.2863 20.3997 27.0831 21.4798 28.1613C22.0398 28.7203 22.7599 29 23.4798 29C24.1997 29 24.9198 28.7203 25.4798 28.1613L37.1599 16.5014C37.6799 15.9822 38 15.2636 38 14.5048C38 13.7461 37.7199 13.0275 37.1599 12.5083L37.1599 12.5085Z" fill="white"/>
</svg>
