<svg width="747" height="747" viewBox="0 0 747 747" fill="none" xmlns="http://www.w3.org/2000/svg">
<path d="M690.669 746.667H56.0027C25.128 746.667 0.00268555 721.541 0.00268555 690.667V56C0.00268555 25.1253 25.128 0 56.0027 0H690.669C721.544 0 746.669 25.1253 746.669 56V690.667C746.669 721.541 721.544 746.667 690.669 746.667ZM56.0027 24.8933C38.852 24.8933 24.8934 38.8413 24.8934 56.0027V690.669C24.8934 707.831 38.852 721.779 56.0027 721.779H690.669C707.831 721.779 721.779 707.831 721.779 690.669V56.0027C721.779 38.8413 707.82 24.8933 690.669 24.8933H56.0027Z" fill="white"/>
<path d="M112.003 124.443H62.2267C55.357 124.443 49.784 118.88 49.784 112L49.7788 62.224C49.7788 55.3438 55.3517 49.7814 62.2215 49.7814H111.997C118.867 49.7814 124.44 55.3439 124.44 62.224V112C124.445 118.88 118.872 124.443 112.003 124.443ZM74.6694 99.5574H99.56V74.6667H74.6694V99.5574Z" fill="white"/>
<path d="M211.563 124.443H161.787C154.917 124.443 149.344 118.88 149.344 112L149.339 62.224C149.339 55.3438 154.912 49.7814 161.782 49.7814H211.558C218.427 49.7814 224 55.3439 224 62.224V112C224.005 118.88 218.432 124.443 211.563 124.443ZM174.229 99.5574H199.12L199.115 74.6667H174.224L174.229 99.5574Z" fill="white"/>
<path d="M311.109 124.443H261.333C254.464 124.443 248.891 118.88 248.891 112V62.224C248.891 55.3438 254.464 49.7814 261.333 49.7814H311.109C317.979 49.7814 323.552 55.3439 323.552 62.224V112C323.557 118.88 317.979 124.443 311.109 124.443ZM273.776 99.5574H298.667V74.6667H273.776V99.5574Z" fill="white"/>
<path d="M734.229 174.227H12.4427C5.57293 174.227 0 168.664 0 161.784V56.0027C0 25.128 25.1253 0.00268555 56 0.00268555H690.667C721.541 0.00268555 746.667 25.128 746.667 56.0027V161.779C746.667 168.664 741.094 174.227 734.224 174.227L734.229 174.227ZM24.896 149.336H721.789L721.784 56.0027C721.784 38.8414 707.826 24.8934 690.675 24.8934H56.0081C38.8575 24.8934 24.8988 38.8414 24.8988 56.0027L24.896 149.336Z" fill="white"/>
<path d="M684.443 696.893H659.552C652.682 696.893 647.109 691.331 647.109 684.451C647.109 677.57 652.682 672.008 659.552 672.008H671.995V659.565C671.995 652.685 677.568 647.123 684.437 647.123C691.307 647.123 696.88 652.685 696.88 659.565V684.456C696.89 691.331 691.312 696.893 684.443 696.893Z" fill="white"/>
<path d="M584.896 696.893H535.12C528.25 696.893 522.677 691.331 522.677 684.451C522.677 677.57 528.25 672.008 535.12 672.008H584.896C591.766 672.008 597.339 677.571 597.339 684.451C597.339 691.331 591.766 696.893 584.896 696.893ZM460.448 696.893H410.672C403.802 696.893 398.229 691.331 398.229 684.451C398.229 677.57 403.802 672.008 410.672 672.008H460.448C467.318 672.008 472.891 677.571 472.891 684.451C472.896 691.331 467.318 696.893 460.448 696.893ZM336.005 696.893H286.229C279.36 696.893 273.787 691.331 273.787 684.451C273.787 677.57 279.36 672.008 286.229 672.008H336.005C342.875 672.008 348.448 677.571 348.448 684.451C348.448 691.331 342.875 696.893 336.005 696.893ZM211.563 696.893H161.787C154.917 696.893 149.344 691.331 149.344 684.451C149.344 677.57 154.917 672.008 161.787 672.008H211.563C218.432 672.008 224.005 677.571 224.005 684.451C224.005 691.331 218.432 696.893 211.563 696.893Z" fill="white"/>
<path d="M87.1093 696.893H62.2239C55.3542 696.893 49.7812 691.331 49.7812 684.451V659.56C49.7812 652.68 55.3542 647.117 62.2239 647.117C69.0937 647.117 74.6666 652.68 74.6666 659.56V672.003H87.1093C93.979 672.003 99.5519 677.565 99.5519 684.445C99.5571 691.331 93.979 696.893 87.1093 696.893Z" fill="white"/>
<path d="M62.2293 597.333C55.3596 597.333 49.7866 591.771 49.7866 584.891V535.115C49.7866 528.234 55.3596 522.672 62.2293 522.672C69.099 522.672 74.672 528.235 74.672 535.115V584.891C74.672 591.771 69.099 597.333 62.2293 597.333Z" fill="white"/>
<path d="M62.2293 472.893C55.3596 472.893 49.7866 467.331 49.7866 460.451V435.56C49.7866 428.68 55.3596 423.117 62.2293 423.117H87.12C93.9897 423.117 99.5626 428.68 99.5626 435.56C99.5626 442.44 93.9897 448.003 87.12 448.003H74.6721V460.445C74.6721 467.331 69.099 472.893 62.2293 472.893Z" fill="white"/>
<path d="M584.896 448H535.12C528.25 448 522.677 442.437 522.677 435.557C522.677 428.677 528.25 423.115 535.12 423.115H584.896C591.766 423.115 597.339 428.677 597.339 435.557C597.339 442.438 591.766 448 584.896 448ZM460.448 448H410.672C403.802 448 398.229 442.437 398.229 435.557C398.229 428.677 403.802 423.115 410.672 423.115H460.448C467.318 423.115 472.891 428.677 472.891 435.557C472.896 442.438 467.318 448 460.448 448ZM336.005 448H286.229C279.36 448 273.787 442.437 273.787 435.557C273.787 428.677 279.36 423.115 286.229 423.115H336.005C342.875 423.115 348.448 428.677 348.448 435.557C348.448 442.438 342.875 448 336.005 448ZM211.563 448H161.787C154.917 448 149.344 442.437 149.344 435.557C149.344 428.677 154.917 423.115 161.787 423.115H211.563C218.432 423.115 224.005 428.677 224.005 435.557C224.005 442.438 218.432 448 211.563 448Z" fill="white"/>
<path d="M684.443 472.893C677.573 472.893 672 467.331 672 460.451V448.008H659.557C652.688 448.008 647.115 442.445 647.115 435.565C647.115 428.685 652.688 423.123 659.557 423.123H684.448C691.318 423.123 696.891 428.685 696.891 435.565V460.456C696.891 467.331 691.313 472.893 684.443 472.893Z" fill="white"/>
<path d="M684.443 597.333C677.573 597.333 672 591.771 672 584.891V535.115C672 528.234 677.573 522.672 684.443 522.672C691.312 522.672 696.885 528.235 696.885 535.115V584.891C696.891 591.771 691.312 597.333 684.443 597.333Z" fill="white"/>
<path d="M647.109 311.107H336.003C329.133 311.107 323.56 305.544 323.56 298.664C323.56 291.784 329.133 286.221 336.003 286.221H647.109C653.979 286.221 659.552 291.784 659.552 298.664C659.557 305.544 653.979 311.107 647.109 311.107Z" fill="white"/>
<path d="M684.443 360.893H336.003C329.133 360.893 323.56 355.331 323.56 348.451C323.56 341.57 329.133 336.008 336.003 336.008H684.443C691.312 336.008 696.885 341.571 696.885 348.451C696.891 355.331 691.312 360.893 684.443 360.893Z" fill="white"/>
<path d="M373.336 634.667C366.466 634.667 360.894 629.104 360.894 622.224V497.776C360.894 490.896 366.466 485.333 373.336 485.333C380.206 485.333 385.779 490.896 385.779 497.776V622.219C385.779 629.104 380.206 634.667 373.336 634.667Z" fill="white"/>
<path d="M323.563 560C320.375 560 317.193 558.781 314.766 556.354C309.901 551.49 309.901 543.625 314.766 538.755L364.542 488.979C369.396 484.115 377.286 484.115 382.14 488.979C387.005 493.844 387.005 501.709 382.14 506.578L332.364 556.354C329.932 558.781 326.745 560 323.563 560Z" fill="white"/>
<path d="M423.11 560C419.922 560 416.74 558.781 414.313 556.354L364.537 506.578C359.672 501.714 359.672 493.849 364.537 488.979C369.391 484.115 377.281 484.115 382.135 488.979L431.911 538.755C436.776 543.62 436.776 551.485 431.911 556.354C429.484 558.781 426.297 560 423.11 560Z" fill="white"/>
<path d="M166.215 210.047C165.701 210.114 165.196 210.245 164.714 210.438L95.7371 237.599C94.613 238.033 93.639 238.781 92.929 239.754L76.207 262.736C75.0785 264.28 74.7169 266.257 75.2258 268.1C75.7346 269.944 77.0585 271.455 78.8197 272.203L87.5721 275.99V335.404C87.575 336.627 87.9337 337.822 88.6073 338.842C89.2809 339.864 90.2373 340.665 91.3614 341.149L164.518 372.488C166.102 373.171 167.898 373.171 169.482 372.488L242.639 341.149C243.763 340.665 244.719 339.864 245.393 338.842C246.066 337.822 246.425 336.627 246.428 335.404V275.99L255.18 272.203C256.942 271.455 258.265 269.944 258.774 268.1C259.283 266.257 258.921 264.281 257.793 262.736L241.071 239.754C240.361 238.781 239.387 238.033 238.263 237.599L169.286 210.438C168.312 210.053 167.256 209.919 166.215 210.047ZM167 223.04L221.084 244.324L167 265.934L112.916 244.324L167 223.04ZM99.2624 252.42L154.328 274.422L142.571 286.174L90.9688 263.846L99.2624 252.42ZM234.734 252.42L243.028 263.846L191.426 286.174L179.669 274.422L234.734 252.42ZM100.11 281.409L141.522 299.363C142.681 299.856 143.96 299.989 145.195 299.744C146.429 299.499 147.562 298.89 148.446 297.992L160.725 285.718V357.209L100.109 331.223L100.11 281.409ZM233.883 281.409V331.223L173.267 357.209V285.718L185.546 297.992C186.429 298.89 187.562 299.499 188.797 299.744C190.032 299.989 191.311 299.856 192.47 299.364L233.883 281.409Z" fill="white"/>
</svg>
